<svg width="633" height="116" viewBox="0 0 633 116" fill="none" xmlns="http://www.w3.org/2000/svg">
<path d="M27.7748 2.28125H40.9144V86.959C40.9144 105.875 34.2705 115.333 20.9828 115.333C13.958 115.333 8.79529 113.196 5.49451 108.922C2.19373 104.605 0.543335 98.0674 0.543335 89.3076V74.708H13.3656V88.4824C13.3656 94.153 13.6195 97.623 14.1273 98.8926C14.6351 100.162 15.1429 101.178 15.6508 101.939C16.6664 103.421 18.3379 104.161 20.6654 104.161C23.0352 104.161 24.7067 103.378 25.6801 101.812C26.6957 100.204 27.2881 98.2578 27.4574 95.9727C27.669 93.6452 27.7748 90.8099 27.7748 87.4668V2.28125ZM90.1418 2.28125H123.53V13.1992H103.281V51.4121H122.451V62.3301H103.281V103.082H123.784V114H90.1418V2.28125ZM231.41 2.28125H243.471L230.268 114H217.255L205.321 31.5439L192.689 114H179.994L165.268 2.28125H177.392L186.913 87.9111L199.608 2.28125H210.336L223.349 87.9111L231.41 2.28125ZM287.874 2.28125H321.262V13.1992H301.013V51.4121H320.183V62.3301H301.013V103.082H321.516V114H287.874V2.28125ZM368.078 2.28125H381.217V103.146H401.847V114H368.078V2.28125ZM506.396 32.623C506.396 19.9277 508.681 11.2103 513.251 6.4707C516.848 2.74674 522.074 0.884766 528.93 0.884766C538.917 0.884766 545.307 4.98958 548.1 13.1992C549.75 18.0658 550.575 24.5404 550.575 32.623V81.8809C550.575 93.5182 548.946 102.003 545.688 107.335C542.429 112.625 536.716 115.27 528.549 115.27C520.424 115.27 514.69 112.604 511.347 107.271C508.046 101.939 506.396 93.4759 506.396 81.8809V32.623ZM537.436 31.8613C537.436 24.7096 536.864 19.6527 535.722 16.6904C534.579 13.6859 532.273 12.1836 528.803 12.1836C525.333 12.1836 522.921 13.707 521.567 16.7539C520.212 19.8008 519.535 24.8154 519.535 31.7979V82.0078C519.535 90.5137 520.128 96.3112 521.313 99.4004C522.498 102.447 524.889 103.971 528.486 103.971C532.083 103.971 534.473 102.426 535.658 99.3369C536.843 96.2054 537.436 90.429 537.436 82.0078V31.8613ZM598.724 2.28125H632.366V13.2627H611.8V48.5557H631.097V59.6641H611.8V114H598.724V2.28125Z" fill="black"/>
</svg>
