<svg width="492" height="116" viewBox="0 0 492 116" fill="none" xmlns="http://www.w3.org/2000/svg">
<path d="M0.140625 2.28125H13.2803V103.146H33.9102V114H0.140625V2.28125ZM88.533 2.28125H104.339L122.81 114H110.432L107.259 92.6719H87.0096L84.0896 114H71.5848L88.533 2.28125ZM88.4695 82.0078H105.608L96.785 22.9746H96.5945L88.4695 82.0078ZM164.738 33.8926C164.738 17.4733 168.631 7.27474 176.418 3.29688C179.464 1.77344 182.808 0.99056 186.447 0.948242C193.26 0.948242 198.19 2.4082 201.237 5.32812C204.284 8.20573 206.252 12.0355 207.14 16.8174C208.029 21.557 208.473 27.3333 208.473 34.1465V42.7793H195.778V28.2432C195.778 22.5303 195.185 18.4466 194.001 15.9922C192.858 13.5378 190.573 12.3105 187.145 12.3105C183.76 12.3105 181.369 13.8551 179.972 16.9443C178.576 20.0335 177.878 25.4925 177.878 33.3213V80.2939C177.878 89.223 178.491 95.4437 179.718 98.9561C180.946 102.426 183.358 104.161 186.955 104.161C190.594 104.161 193.07 102.363 194.381 98.7656C195.736 95.1686 196.413 88.9268 196.413 80.04V65.5039H187.336V55.3477H208.473V114H201.554L199.777 105.367C197.28 111.842 192.498 115.079 185.431 115.079C178.407 115.079 173.201 112.35 169.816 106.891C166.431 101.389 164.738 92.6719 164.738 80.7383V33.8926ZM287.408 2.28125H300.484V85.3086C300.484 95.7611 298.833 103.378 295.533 108.16C292.274 112.942 286.604 115.333 278.521 115.333C270.438 115.333 264.725 112.942 261.382 108.16C258.039 103.378 256.368 95.7611 256.368 85.3086V2.28125H269.507V84.9912C269.507 92.4391 269.803 96.9036 270.396 98.3848C271.031 99.8236 271.687 100.966 272.364 101.812C273.549 103.421 275.601 104.225 278.521 104.225C281.441 104.225 283.599 103.336 284.996 101.559C286.392 99.7812 287.133 97.1364 287.217 93.624C287.344 90.1117 287.408 87.2552 287.408 85.0547V2.28125ZM383.862 2.28125H395.478V114H385.829L360.756 37.3203L361.518 65.5039V114H349.394V2.28125H359.296L385.195 78.3262L383.862 46.0166V2.28125ZM456.956 2.28125H472.762L491.233 114H478.855L475.682 92.6719H455.433L452.513 114H440.008L456.956 2.28125ZM456.893 82.0078H474.031L465.208 22.9746H465.018L456.893 82.0078Z" fill="black"/>
</svg>
