<?xml version="1.0" encoding="utf-8"?>
<!-- Generator: Adobe Illustrator 24.0.1, SVG Export Plug-In . SVG Version: 6.00 Build 0)  -->
<svg version="1.1" id="Layer_1" xmlns="http://www.w3.org/2000/svg" xmlns:xlink="http://www.w3.org/1999/xlink" x="0px" y="0px"
	 viewBox="0 0 616 144" style="enable-background:new 0 0 616 144;" xml:space="preserve">
<style type="text/css">
	.st0{fill:#1A1A1A;}
	.st1{fill:#F4C095;}
	.st2{fill:#FDCC9A;}
</style>
<rect class="st0" width="616" height="144"/>
<path class="st1" d="M94,50.3h17.9v4.2h-5.6v38.8h-6.3V54.5h-6V50.3z M147.3,50.3h6.4v43h-6.4V72.4h-8.7v20.8h-6.4v-43h6.4v18h8.7
	V50.3z M177.6,50.3h16.2v4.2H184v14.7h9.3v4.2H184v15.7h9.9v4.2h-16.3V50.3z M246.5,63.6c-0.4-1-0.6-2.3-0.6-3.7
	c0-3.1,0.7-5.6,2.2-7.4c1.5-1.8,4.2-2.8,8.3-2.8c5.2,0,8.3,2,9.3,6c0.4,1.7,0.6,3.9,0.6,6.5v2.5h-6.1v-2.9c0-2.7-0.2-4.6-0.5-5.5
	c-0.3-0.9-0.8-1.6-1.3-1.9s-1.2-0.5-2-0.5c-1.5,0-2.6,0.4-3.3,1.3c-0.7,0.9-1,2.2-1,4c0,1.8,0.3,3,0.9,3.9c0.6,0.8,1.4,1.6,2.3,2.3
	c0.9,0.7,1.4,1.1,1.5,1.2l3.7,3.1c4.4,3.7,6.6,7.8,6.6,12.4c0,3.7-0.7,6.6-2.2,8.5c-1.4,2-4.2,2.9-8.2,2.9c-4.9,0-8-1.7-9.3-5.1
	c-0.8-1.9-1.1-4.4-1.1-7.5c0-0.1,0-0.2,0-0.2v-4.2h6.2V81c0,3.1,0.3,5.3,0.9,6.6c0.6,1.2,1.6,1.8,3.2,1.8c1.6,0,2.6-0.3,3.2-0.9
	c0.6-0.6,0.9-1.5,1-2.7c0.1-1.2,0.2-2.5,0.2-4c0-3-1.6-5.8-4.9-8.4l-3.5-2.8C249.2,68.1,247.2,65.8,246.5,63.6z M285.4,50.3h17.9
	v4.2h-5.6v38.8h-6.3V54.5h-6V50.3z M323.1,62c0-4.9,1.1-8.2,3.3-10.1c1.7-1.4,4.3-2.1,7.6-2.1c4.8,0,7.9,1.6,9.3,4.7
	c0.8,1.9,1.2,4.4,1.2,7.5v18.9c0,4.5-0.8,7.7-2.4,9.8c-1.6,2-4.3,3.1-8.3,3.1c-3.9,0-6.7-1-8.3-3.1c-1.6-2.1-2.4-5.3-2.4-9.8V62z
	 M338.1,61.7c0-2.8-0.3-4.7-0.8-5.8c-0.6-1.2-1.7-1.7-3.4-1.7c-1.7,0-2.8,0.6-3.5,1.8c-0.7,1.2-1,3.1-1,5.8v19.3
	c0,3.3,0.3,5.5,0.9,6.7c0.6,1.2,1.7,1.8,3.5,1.8c1.7,0,2.9-0.6,3.5-1.8c0.6-1.2,0.9-3.4,0.9-6.7V61.7z M367.8,50.3h11.3
	c3.2,0,5.5,0.5,6.9,1.6c1.4,1.1,2.3,2.9,2.6,5.4c0.1,1,0.2,2.7,0.2,4.9c0,2.2-0.4,4-1.1,5.5c-0.7,1.5-2,2.5-3.8,2.9
	c1.4,0.2,2.4,0.7,3.1,1.7c0.7,0.9,1.2,2.5,1.5,4.5c0.3,2.1,0.4,5.2,0.4,9.3c0,4.1,0.2,6.5,0.5,7.2h-6.3c-0.3-0.5-0.5-5.3-0.5-14.5
	c0-3.1-0.4-4.9-1.1-5.3c-0.8-0.5-1.9-0.8-3.4-0.8l-3.8-0.2v20.8h-6.4V50.3z M382.6,60.8c0-3.3-0.4-5.2-1.1-5.7
	c-0.7-0.5-1.8-0.8-3.2-0.8h-4v14.5h4.1c1.2,0,2.1-0.2,2.7-0.6c0.6-0.4,1-1.1,1.2-2.1c0.2-1.1,0.4-2.7,0.4-5V60.8z M426.7,50.3h6.2
	l-8.7,24.9v18h-6.4v-18l-9.4-24.9h6.2l6.4,17.6h0.1L426.7,50.3z"/>
<polygon class="st2" points="522,72.3 482.3,50.3 482.3,94.3 "/>
</svg>
