<svg width="278" height="85" viewBox="0 0 278 85" fill="none" xmlns="http://www.w3.org/2000/svg">
<path d="M0.8125 1.5H17.4062C24.7188 1.5 29.3125 4.53125 31.1875 10.5938C32.375 14.4062 32.9688 18.8594 32.9688 23.9531C32.9688 29.0469 32.8281 32.875 32.5469 35.4375C31.9219 41.0625 30.4375 45.1719 28.0938 47.7656C25.75 50.3281 22.1875 51.6094 17.4062 51.6094H10.5156V84H0.8125V1.5ZM23.2656 24.7969C23.2656 19.1406 22.8125 15.125 21.9062 12.75C21.0312 10.375 19.2812 9.1875 16.6562 9.1875H10.5156V43.5469H16.4219C19.1719 43.5469 21 42.3438 21.9062 39.9375C22.8125 37.5312 23.2656 33.0156 23.2656 26.3906V24.7969ZM51.1938 23.9062C51.1938 14.5312 52.8813 8.09375 56.2563 4.59375C58.9125 1.84375 62.7719 0.46875 67.8344 0.46875C75.2094 0.46875 79.9281 3.5 81.9906 9.5625C83.2094 13.1562 83.8188 17.9375 83.8188 23.9062V60.2812C83.8188 68.875 82.6156 75.1406 80.2094 79.0781C77.8031 82.9844 73.5844 84.9375 67.5531 84.9375C61.5531 84.9375 57.3188 82.9688 54.85 79.0312C52.4125 75.0938 51.1938 68.8438 51.1938 60.2812V23.9062ZM74.1156 23.3438C74.1156 18.0625 73.6938 14.3281 72.85 12.1406C72.0063 9.92188 70.3031 8.8125 67.7406 8.8125C65.1781 8.8125 63.3969 9.9375 62.3969 12.1875C61.3969 14.4375 60.8969 18.1406 60.8969 23.2969V60.375C60.8969 66.6562 61.3344 70.9375 62.2094 73.2188C63.0844 75.4688 64.85 76.5938 67.5063 76.5938C70.1625 76.5938 71.9281 75.4531 72.8031 73.1719C73.6781 70.8594 74.1156 66.5938 74.1156 60.375V23.3438ZM105.981 1.5H130.637V9.5625H115.684V37.7812H129.841V45.8438H115.684V75.9375H130.825V84H105.981V1.5ZM146.331 1.5H173.566V9.5625H165.081V84H155.425V9.5625H146.331V1.5ZM191.275 1.5H208.572C213.478 1.5 217.009 2.51563 219.166 4.54688C221.322 6.57812 222.619 10.0312 223.056 14.9062C223.244 16.9062 223.337 20.0312 223.337 24.2812C223.337 28.5 222.775 32.0469 221.65 34.9219C220.556 37.7969 218.603 39.6562 215.791 40.5C217.853 40.8438 219.416 41.9375 220.478 43.7812C221.541 45.5938 222.291 48.5 222.728 52.5C223.166 56.4688 223.384 62.3906 223.384 70.2656C223.384 78.1094 223.634 82.6875 224.134 84H214.478C213.978 83 213.728 73.7344 213.728 56.2031C213.728 50.2969 213.15 46.875 211.994 45.9375C210.837 44.9688 209.087 44.4844 206.744 44.4844L200.978 44.1562V84H191.275V1.5ZM213.728 21.7031C213.728 15.3594 213.15 11.6875 211.994 10.6875C210.869 9.6875 209.228 9.1875 207.072 9.1875H200.978V37.0312H207.166C209.041 37.0312 210.416 36.6719 211.291 35.9531C212.166 35.2344 212.791 33.8594 213.166 31.8281C213.541 29.7969 213.728 26.6094 213.728 22.2656V21.7031ZM267.531 1.5H277.047L263.734 49.3594V84H254.031V49.3594L239.688 1.5H249.109L258.859 35.25H259.047L267.531 1.5Z" fill="white" style="mix-blend-mode:difference"/>
</svg>
