<svg width="239" height="85" viewBox="0 0 239 85" fill="none" xmlns="http://www.w3.org/2000/svg">
<path d="M1.8125 27.0469C1.25 25.0781 0.96875 22.7188 0.96875 19.9688C0.96875 14 2.0625 9.26562 4.25 5.76562C6.46875 2.23438 10.6875 0.46875 16.9062 0.46875C24.9062 0.46875 29.625 4.3125 31.0625 12C31.6875 15.3125 32 19.4844 32 24.5156V29.3906H22.7188V23.8594C22.7188 18.6094 22.4531 15.0781 21.9219 13.2656C21.3906 11.4531 20.7344 10.25 19.9531 9.65625C19.1719 9.0625 18.1562 8.76562 16.9062 8.76562C14.5625 8.76562 12.875 9.625 11.8438 11.3438C10.8125 13.0625 10.2969 15.6094 10.2969 18.9844C10.2969 22.3594 10.7656 24.8281 11.7031 26.3906C12.6406 27.9531 13.7969 29.4531 15.1719 30.8906C16.5469 32.2969 17.3125 33.0938 17.4688 33.2812L23.0938 39.2344C29.8438 46.2969 33.2188 54.2031 33.2188 62.9531C33.2188 70.0781 32.1094 75.5312 29.8906 79.3125C27.7031 83.0625 23.5156 84.9375 17.3281 84.9375C9.85938 84.9375 5.125 81.6562 3.125 75.0938C1.96875 71.4062 1.39062 66.5781 1.39062 60.6094C1.39062 60.4531 1.39062 60.2969 1.39062 60.1406V52.125H10.8125V60.5156C10.8125 66.5469 11.25 70.75 12.125 73.125C13 75.4688 14.625 76.6406 17 76.6406C19.375 76.6406 21.0156 76.0938 21.9219 75C22.8281 73.875 23.3438 72.1719 23.4688 69.8906C23.625 67.6094 23.7031 65.0469 23.7031 62.2031C23.7031 56.4844 21.1875 51.1094 16.1562 46.0781L10.7656 40.6875C5.95312 35.75 2.96875 31.2031 1.8125 27.0469ZM76.1469 1.5H85.85V84H76.1469V44.0156H62.9281V84H53.225V1.5H62.9281V36.0938H76.1469V1.5ZM117.809 1.5H129.481L143.122 84H133.981L131.637 68.25H116.684L114.528 84H105.294L117.809 1.5ZM117.762 60.375H130.419L123.903 16.7812H123.762L117.762 60.375ZM162.613 1.5H179.206C186.519 1.5 191.113 4.53125 192.988 10.5938C194.175 14.4062 194.769 18.8594 194.769 23.9531C194.769 29.0469 194.628 32.875 194.347 35.4375C193.722 41.0625 192.238 45.1719 189.894 47.7656C187.55 50.3281 183.988 51.6094 179.206 51.6094H172.316V84H162.613V1.5ZM185.066 24.7969C185.066 19.1406 184.613 15.125 183.706 12.75C182.831 10.375 181.081 9.1875 178.456 9.1875H172.316V43.5469H178.222C180.972 43.5469 182.8 42.3438 183.706 39.9375C184.613 37.5312 185.066 33.0156 185.066 26.3906V24.7969ZM213.931 1.5H238.587V9.5625H223.634V37.7812H237.791V45.8438H223.634V75.9375H238.775V84H213.931V1.5Z" fill="white" style="mix-blend-mode:difference"/>
</svg>
