<svg width="231" height="83" viewBox="0 0 231 83" fill="none" xmlns="http://www.w3.org/2000/svg">
<path d="M0.3125 0.5H27.5469V8.5625H19.0625V83H9.40625V8.5625H0.3125V0.5ZM54.1156 0.5H65.7875L79.4281 83H70.2875L67.9437 67.25H52.9906L50.8344 83H41.6L54.1156 0.5ZM54.0687 59.375H66.725L60.2094 15.7812H60.0687L54.0687 59.375ZM123.294 0.5H133.044L117.669 41.2344L134.122 83H123.997L108.716 43.5312V83H98.9187V0.5H108.622V39.8281L123.294 0.5ZM150.425 0.5H175.081V8.5625H160.128V36.7812H174.284V44.8438H160.128V74.9375H175.269V83H150.425V0.5ZM221.666 0.5H230.244V83H223.119L204.603 26.375L205.166 47.1875V83H196.212V0.5H203.525L222.65 56.6562L221.666 32.7969V0.5Z" fill="white" style="mix-blend-mode:difference"/>
</svg>
