<svg width="552" height="116" viewBox="0 0 552 116" fill="none" xmlns="http://www.w3.org/2000/svg">
<path d="M0.871094 33.8926C0.871094 17.4733 4.76432 7.27474 12.5508 3.29688C15.5977 1.77344 18.9408 0.99056 22.5801 0.948242C29.3932 0.948242 34.3232 2.4082 37.3701 5.32812C40.417 8.20573 42.3848 12.0355 43.2734 16.8174C44.1621 21.557 44.6064 27.3333 44.6064 34.1465V42.7793H31.9111V28.2432C31.9111 22.5303 31.3187 18.4466 30.1338 15.9922C28.9912 13.5378 26.7061 12.3105 23.2783 12.3105C19.8929 12.3105 17.502 13.8551 16.1055 16.9443C14.709 20.0335 14.0107 25.4925 14.0107 33.3213V80.2939C14.0107 89.223 14.6243 95.4437 15.8516 98.9561C17.0788 102.426 19.4909 104.161 23.0879 104.161C26.7272 104.161 29.2028 102.363 30.5146 98.7656C31.8688 95.1686 32.5459 88.9268 32.5459 80.04V65.5039H23.4688V55.3477H44.6064V114H37.6875L35.9102 105.367C33.4134 111.842 28.6315 115.079 21.5645 115.079C14.5397 115.079 9.33464 112.35 5.94922 106.891C2.5638 101.389 0.871094 92.6719 0.871094 80.7383V33.8926ZM105.133 2.28125H120.938L139.41 114H127.032L123.858 92.6719H103.609L100.689 114H88.1844L105.133 2.28125ZM105.069 82.0078H122.208L113.385 22.9746H113.194L105.069 82.0078ZM184.004 2.28125H197.143V103.146H217.773V114H184.004V2.28125ZM260.399 2.28125H273.538V103.146H294.168V114H260.399V2.28125ZM336.794 2.28125H370.183V13.1992H349.934V51.4121H369.104V62.3301H349.934V103.082H370.437V114H336.794V2.28125ZM416.998 2.28125H440.421C447.065 2.28125 451.847 3.65658 454.767 6.40723C457.687 9.15788 459.443 13.834 460.035 20.4355C460.289 23.1439 460.416 27.3757 460.416 33.1309C460.416 38.8438 459.654 43.6468 458.131 47.54C456.65 51.4333 454.005 53.9512 450.196 55.0938C452.989 55.5592 455.105 57.0404 456.544 59.5371C457.983 61.9915 458.998 65.9271 459.591 71.3438C460.183 76.7181 460.479 84.7373 460.479 95.4014C460.479 106.023 460.818 112.223 461.495 114H448.419C447.742 112.646 447.403 100.099 447.403 76.3584C447.403 68.3604 446.62 63.7266 445.055 62.457C443.489 61.1452 441.119 60.4893 437.945 60.4893L430.138 60.0449V114H416.998V2.28125ZM447.403 29.6396C447.403 21.0492 446.62 16.0768 445.055 14.7227C443.531 13.3685 441.31 12.6914 438.39 12.6914H430.138V50.3965H438.517C441.056 50.3965 442.918 49.9098 444.103 48.9365C445.287 47.9632 446.134 46.1012 446.642 43.3506C447.149 40.5999 447.403 36.2835 447.403 30.4014V29.6396ZM538.462 2.28125H551.347L533.32 67.0908V114H520.18V67.0908L500.757 2.28125H513.515L526.719 47.9844H526.972L538.462 2.28125Z" fill="black"/>
</svg>
