<svg width="220" height="46" viewBox="0 0 220 46" fill="none" xmlns="http://www.w3.org/2000/svg">
<path d="M11.7197 8.37891H16.3584L11.1094 45H5.22559L0.0253906 8.37891H4.68848L7.3252 29.0088L8.17969 37.1875H8.64355L9.35156 28.9844L11.7197 8.37891ZM33.0703 8.37891H38.0752V45H33.0703V8.37891ZM33.0703 0.419922H38.0996V5.00977H33.0703V0.419922ZM56.7402 19.7314C56.7402 15.109 57.5703 11.8945 59.2305 10.0879C60.5326 8.6556 62.4531 7.93945 64.9922 7.93945C68.6706 7.93945 70.9818 9.52637 71.9258 12.7002C72.4466 14.4906 72.707 16.9076 72.707 19.9512V26.8604H61.7695V34.1602C61.7695 37.334 62.0218 39.3115 62.5264 40.0928C63.0309 40.874 63.8285 41.2646 64.9189 41.2646C66.0094 41.2646 66.7337 40.8089 67.0918 39.8975C67.4661 38.986 67.6615 38.0013 67.6777 36.9434C67.694 35.8691 67.7021 34.9658 67.7021 34.2334V31.2793H72.6094V32.8418C72.6094 36.7318 72.3327 39.458 71.7793 41.0205C71.2422 42.583 70.4202 43.7142 69.3135 44.4141C68.2067 45.0977 66.8314 45.4395 65.1875 45.4395C63.5599 45.4395 62.2497 45.236 61.2568 44.8291C60.2803 44.4059 59.499 43.8525 58.9131 43.1689C58.3434 42.4854 57.8389 41.3949 57.3994 39.8975C56.96 38.4001 56.7402 35.9912 56.7402 32.6709V19.7314ZM67.7021 18.8037C67.7021 16.1995 67.6045 14.6289 67.4092 14.0918C67.2301 13.5547 66.9941 13.0827 66.7012 12.6758C66.4082 12.2689 65.8792 12.0654 65.1143 12.0654C63.6494 12.0654 62.7217 12.6839 62.3311 13.9209C61.9404 15.1416 61.7451 16.8262 61.7451 18.9746V23.4668H67.7021V18.8037ZM110.488 8.37891H114.59L110.171 45H105.557L101.87 16.3379L97.4756 45H93.0566L88.7842 8.37891H92.9834L94.9121 28.7646L95.4736 35.7715H95.6934L96.6211 28.7402L99.5264 8.37891H103.896L106.802 28.2031L107.803 35.7715H107.998L108.584 28.1787L110.488 8.37891ZM166.471 24.8096C164.42 25.7373 163.053 26.4535 162.369 26.958C161.686 27.4626 161.165 28.0566 160.807 28.7402C160.465 29.4076 160.294 30.5143 160.294 32.0605V35.4541C160.294 37.5863 160.481 39.0918 160.855 39.9707C161.23 40.8333 161.873 41.2646 162.784 41.2646C163.696 41.2646 164.477 41.0042 165.128 40.4834C165.779 39.9463 166.227 39.3685 166.471 38.75V24.8096ZM155.704 18.9746C155.704 14.5475 156.396 11.6016 157.779 10.1367C159.163 8.67188 161.132 7.93945 163.688 7.93945C166.243 7.93945 168.09 8.55794 169.229 9.79492C170.385 11.0319 171.093 13.0176 171.354 15.752C171.467 16.9238 171.524 18.3643 171.524 20.0732V45H166.495V41.8262C166.235 42.7051 165.665 43.5107 164.786 44.2432C163.907 44.9593 162.817 45.3174 161.515 45.3174C157.364 45.3174 155.273 42.0785 155.24 35.6006V32.0361C155.24 29.9365 155.81 28.1462 156.949 26.665C158.105 25.1676 161.279 23.4668 166.471 21.5625V18.7305C166.471 15.5892 166.243 13.7012 165.787 13.0664C165.331 12.4316 164.55 12.1143 163.443 12.1143C162.353 12.1143 161.62 12.5944 161.246 13.5547C160.872 14.515 160.685 16.2484 160.685 18.7549V20.0244H155.704V18.9746ZM190.385 1.56738H195.39V45H190.385V1.56738ZM214.641 1.56738H219.646V45H214.641V1.56738Z" fill="black"/>
</svg>
