<svg width="779" height="116" viewBox="0 0 779 116" fill="none" xmlns="http://www.w3.org/2000/svg">
<path d="M0.871094 34.5273C0.871094 26.0638 1.56934 19.8431 2.96582 15.8652C4.3623 11.8874 5.88574 8.96745 7.53613 7.10547C11.1331 3.04297 16.3805 0.99056 23.2783 0.948242C32.9268 0.99056 39.1475 5.24349 41.9404 13.707C43.5485 18.5736 44.3525 25.0482 44.3525 33.1309V45.5088H31.4668V33.0674C31.4668 25.9157 31.0648 21.0915 30.2607 18.5947C29.499 16.0557 28.568 14.3841 27.4678 13.5801C26.3675 12.7337 24.971 12.3105 23.2783 12.3105C19.766 12.3105 17.3327 13.9821 15.9785 17.3252C14.6667 20.626 14.0107 25.8522 14.0107 33.0039V81.373C14.0107 89.8366 14.6032 95.7611 15.7881 99.1465C17.0153 102.49 19.3428 104.161 22.7705 104.161C26.2406 104.161 28.5469 102.468 29.6895 99.083C30.8743 95.6976 31.4668 89.7731 31.4668 81.3096V68.9316H44.4795V81.1826C44.4795 92.9046 42.8714 101.537 39.6553 107.081C36.4814 112.582 30.9167 115.333 22.9609 115.333C15.0052 115.333 9.33464 112.498 5.94922 106.827C2.5638 101.114 0.871094 92.5238 0.871094 81.0557V34.5273ZM90.3426 32.623C90.3426 19.9277 92.6277 11.2103 97.198 6.4707C100.795 2.74674 106.021 0.884766 112.877 0.884766C122.864 0.884766 129.254 4.98958 132.047 13.1992C133.697 18.0658 134.522 24.5404 134.522 32.623V81.8809C134.522 93.5182 132.893 102.003 129.635 107.335C126.376 112.625 120.663 115.27 112.496 115.27C104.371 115.27 98.6368 112.604 95.2937 107.271C91.993 101.939 90.3426 93.4759 90.3426 81.8809V32.623ZM121.383 31.8613C121.383 24.7096 120.811 19.6527 119.669 16.6904C118.526 13.6859 116.22 12.1836 112.75 12.1836C109.28 12.1836 106.868 13.707 105.513 16.7539C104.159 19.8008 103.482 24.8154 103.482 31.7979V82.0078C103.482 90.5137 104.075 96.3112 105.26 99.4004C106.444 102.447 108.835 103.971 112.432 103.971C116.029 103.971 118.42 102.426 119.605 99.3369C120.79 96.2054 121.383 90.429 121.383 82.0078V31.8613ZM182.734 2.28125H195.874V103.146H216.504V114H182.734V2.28125ZM259.129 2.28125H272.269V103.146H292.899V114H259.129V2.28125ZM335.525 2.28125H368.913V13.1992H348.664V51.4121H367.834V62.3301H348.664V103.082H369.167V114H335.525V2.28125ZM414.459 34.5273C414.459 26.0638 415.157 19.8431 416.554 15.8652C417.95 11.8874 419.474 8.96745 421.124 7.10547C424.721 3.04297 429.968 0.99056 436.866 0.948242C446.515 0.99056 452.735 5.24349 455.528 13.707C457.136 18.5736 457.94 25.0482 457.94 33.1309V45.5088H445.055V33.0674C445.055 25.9157 444.653 21.0915 443.849 18.5947C443.087 16.0557 442.156 14.3841 441.056 13.5801C439.955 12.7337 438.559 12.3105 436.866 12.3105C433.354 12.3105 430.921 13.9821 429.566 17.3252C428.255 20.626 427.599 25.8522 427.599 33.0039V81.373C427.599 89.8366 428.191 95.7611 429.376 99.1465C430.603 102.49 432.931 104.161 436.358 104.161C439.828 104.161 442.135 102.468 443.277 99.083C444.462 95.6976 445.055 89.7731 445.055 81.3096V68.9316H458.067V81.1826C458.067 92.9046 456.459 101.537 453.243 107.081C450.069 112.582 444.505 115.333 436.549 115.333C428.593 115.333 422.923 112.498 419.537 106.827C416.152 101.114 414.459 92.5238 414.459 81.0557V34.5273ZM497.837 2.28125H534.717V13.1992H523.227V114H510.151V13.1992H497.837V2.28125ZM577.914 2.28125H591.053V114H577.914V2.28125ZM640.344 32.623C640.344 19.9277 642.629 11.2103 647.2 6.4707C650.797 2.74674 656.023 0.884766 662.878 0.884766C672.865 0.884766 679.255 4.98958 682.048 13.1992C683.699 18.0658 684.524 24.5404 684.524 32.623V81.8809C684.524 93.5182 682.895 102.003 679.636 107.335C676.378 112.625 670.665 115.27 662.497 115.27C654.372 115.27 648.638 112.604 645.295 107.271C641.995 101.939 640.344 93.4759 640.344 81.8809V32.623ZM671.384 31.8613C671.384 24.7096 670.813 19.6527 669.67 16.6904C668.528 13.6859 666.221 12.1836 662.751 12.1836C659.281 12.1836 656.869 13.707 655.515 16.7539C654.161 19.8008 653.484 24.8154 653.484 31.7979V82.0078C653.484 90.5137 654.076 96.3112 655.261 99.4004C656.446 102.447 658.837 103.971 662.434 103.971C666.031 103.971 668.422 102.426 669.607 99.3369C670.792 96.2054 671.384 90.429 671.384 82.0078V31.8613ZM767.203 2.28125H778.82V114H769.171L744.098 37.3203L744.86 65.5039V114H732.736V2.28125H742.638L768.536 78.3262L767.203 46.0166V2.28125Z" fill="black"/>
</svg>
