<svg width="326" height="140" viewBox="0 0 326 140" fill="none" xmlns="http://www.w3.org/2000/svg">
<path d="M9.784 16.2296C8.416 16.2296 7.3 16.8896 6.436 18.2096C5.596 19.5056 5.176 21.2936 5.176 23.5736C5.176 25.8536 5.584 27.6536 6.4 28.9736C7.24 30.2696 8.308 30.9176 9.604 30.9176C10.924 30.9176 12.004 30.5816 12.844 29.9096C13.684 29.2376 14.26 28.2776 14.572 27.0296L15.256 27.1736C14.968 28.6376 14.308 29.7776 13.276 30.5936C12.244 31.3856 11.056 31.7816 9.712 31.7816C7.624 31.7816 5.884 31.0496 4.492 29.5856C3.124 28.1216 2.44 26.1176 2.44 23.5736C2.44 21.0296 3.136 19.0256 4.528 17.5616C5.92 16.0976 7.672 15.3656 9.784 15.3656C11.416 15.3656 12.64 15.7376 13.456 16.4816C14.272 17.2016 14.68 18.1736 14.68 19.3976C14.68 20.9816 14.236 21.7736 13.348 21.7736C12.628 21.7736 12.052 21.5816 11.62 21.1976C11.956 20.4776 12.124 19.7336 12.124 18.9656C12.124 18.1736 11.92 17.5256 11.512 17.0216C11.128 16.4936 10.552 16.2296 9.784 16.2296ZM28.2483 29.5856C26.9043 28.1216 26.2323 26.1176 26.2323 23.5736C26.2323 21.0296 26.9043 19.0256 28.2483 17.5616C29.5923 16.0976 31.3443 15.3656 33.5043 15.3656C35.6643 15.3656 37.4163 16.0976 38.7603 17.5616C40.1283 19.0256 40.8123 21.0296 40.8123 23.5736C40.8123 26.1176 40.1283 28.1216 38.7603 29.5856C37.4163 31.0496 35.6643 31.7816 33.5043 31.7816C31.3443 31.7816 29.5923 31.0496 28.2483 29.5856ZM30.2643 18.1736C29.4003 19.4936 28.9683 21.2936 28.9683 23.5736C28.9683 25.8536 29.4003 27.6656 30.2643 29.0096C31.1283 30.3296 32.2083 30.9896 33.5043 30.9896C34.8003 30.9896 35.8803 30.3296 36.7443 29.0096C37.6323 27.6656 38.0763 25.8536 38.0763 23.5736C38.0763 21.2936 37.6323 19.4936 36.7443 18.1736C35.8803 16.8296 34.8003 16.1576 33.5043 16.1576C32.2083 16.1576 31.1283 16.8296 30.2643 18.1736ZM67.177 20.8376V30.2696C67.177 30.5576 67.345 30.7016 67.681 30.7016H69.373V31.3496H62.893V30.7016H64.081C64.417 30.7016 64.585 30.5576 64.585 30.2696V20.3696C64.585 19.1456 64.309 18.2456 63.757 17.6696C63.229 17.0696 62.521 16.7696 61.633 16.7696C60.385 16.7696 59.353 17.5136 58.537 19.0016C57.721 20.4656 57.313 22.5776 57.313 25.3376V30.1976C57.313 30.5336 57.481 30.7016 57.817 30.7016H59.005V31.3496H52.525V30.7016H54.217C54.553 30.7016 54.721 30.5576 54.721 30.2696V16.9496C54.721 16.6136 54.553 16.4456 54.217 16.4456H52.525V15.7976H54.289C55.729 15.7976 56.737 15.7256 57.313 15.5816V20.4776C58.129 17.0696 59.929 15.3656 62.713 15.3656C63.961 15.3656 65.017 15.8216 65.881 16.7336C66.745 17.6216 67.177 18.9896 67.177 20.8376ZM84.2357 11.9816H84.7757V15.7976H88.3757V16.4456H84.7757V28.6496C84.7757 29.9456 85.1357 30.5936 85.8557 30.5936C86.1917 30.5936 86.4797 30.4376 86.7197 30.1256C86.9837 29.8136 87.1157 29.4536 87.1157 29.0456C87.1157 28.6376 87.0797 28.2536 87.0077 27.8936L87.6917 27.7856C87.7877 28.1456 87.8357 28.5416 87.8357 28.9736C87.8357 29.8376 87.5717 30.5216 87.0437 31.0256C86.5397 31.5296 85.8677 31.7816 85.0277 31.7816C84.1877 31.7816 83.5037 31.4456 82.9757 30.7736C82.4477 30.0776 82.1837 29.0456 82.1837 27.6776V16.9496C82.1837 16.6136 82.0157 16.4456 81.6797 16.4456H79.9877V15.7976H81.7517C82.5197 15.7976 83.3477 14.5256 84.2357 11.9816ZM108.047 22.9616L108.083 21.7016V20.4416C108.083 17.6336 107.171 16.2296 105.347 16.2296C104.555 16.2296 103.931 16.5056 103.475 17.0576C103.043 17.5856 102.827 18.2096 102.827 18.9296C102.827 19.6496 102.923 20.2736 103.115 20.8016C102.707 21.1616 102.143 21.3416 101.423 21.3416C100.703 21.3416 100.343 20.7536 100.343 19.5776C100.343 18.4016 100.799 17.4056 101.711 16.5896C102.647 15.7736 103.967 15.3656 105.671 15.3656C109.007 15.3656 110.675 17.3336 110.675 21.2696V28.6496C110.675 29.9456 111.035 30.5936 111.755 30.5936C112.091 30.5936 112.379 30.4376 112.619 30.1256C112.883 29.8136 113.015 29.4536 113.015 29.0456C113.015 28.6376 112.979 28.2536 112.907 27.8936L113.591 27.7856C113.687 28.1456 113.735 28.5416 113.735 28.9736C113.735 29.8376 113.471 30.5216 112.943 31.0256C112.439 31.5296 111.767 31.7816 110.927 31.7816C110.087 31.7816 109.403 31.4456 108.875 30.7736C108.347 30.0776 108.083 29.0456 108.083 27.6776V27.0296C107.675 28.6616 107.027 29.8616 106.139 30.6296C105.251 31.3976 104.219 31.7816 103.043 31.7816C101.891 31.7816 100.955 31.4216 100.235 30.7016C99.5394 29.9576 99.1914 28.9856 99.1914 27.7856C99.1914 26.5616 99.7554 25.4816 100.883 24.5456C102.011 23.5856 103.631 23.1056 105.743 23.1056C106.199 23.1056 106.967 23.1656 108.047 23.2856V22.9616ZM103.871 30.4136C104.879 30.4136 105.779 29.8496 106.571 28.7216C107.387 27.5696 107.867 25.9616 108.011 23.8976C107.771 23.8736 107.435 23.8616 107.003 23.8616C105.083 23.8616 103.703 24.2696 102.863 25.0856C102.047 25.8776 101.639 26.8016 101.639 27.8576C101.639 28.5536 101.843 29.1536 102.251 29.6576C102.659 30.1616 103.199 30.4136 103.871 30.4136ZM131.699 16.2296C130.331 16.2296 129.215 16.8896 128.351 18.2096C127.511 19.5056 127.091 21.2936 127.091 23.5736C127.091 25.8536 127.499 27.6536 128.315 28.9736C129.155 30.2696 130.223 30.9176 131.519 30.9176C132.839 30.9176 133.919 30.5816 134.759 29.9096C135.599 29.2376 136.175 28.2776 136.487 27.0296L137.171 27.1736C136.883 28.6376 136.223 29.7776 135.191 30.5936C134.159 31.3856 132.971 31.7816 131.627 31.7816C129.539 31.7816 127.799 31.0496 126.407 29.5856C125.039 28.1216 124.355 26.1176 124.355 23.5736C124.355 21.0296 125.051 19.0256 126.443 17.5616C127.835 16.0976 129.587 15.3656 131.699 15.3656C133.331 15.3656 134.555 15.7376 135.371 16.4816C136.187 17.2016 136.595 18.1736 136.595 19.3976C136.595 20.9816 136.151 21.7736 135.263 21.7736C134.543 21.7736 133.967 21.5816 133.535 21.1976C133.871 20.4776 134.039 19.7336 134.039 18.9656C134.039 18.1736 133.835 17.5256 133.427 17.0216C133.043 16.4936 132.467 16.2296 131.699 16.2296ZM151.675 11.9816H152.215V15.7976H155.815V16.4456H152.215V28.6496C152.215 29.9456 152.575 30.5936 153.295 30.5936C153.631 30.5936 153.919 30.4376 154.159 30.1256C154.423 29.8136 154.555 29.4536 154.555 29.0456C154.555 28.6376 154.519 28.2536 154.447 27.8936L155.131 27.7856C155.227 28.1456 155.275 28.5416 155.275 28.9736C155.275 29.8376 155.011 30.5216 154.483 31.0256C153.979 31.5296 153.307 31.7816 152.467 31.7816C151.627 31.7816 150.943 31.4456 150.415 30.7736C149.887 30.0776 149.623 29.0456 149.623 27.6776V16.9496C149.623 16.6136 149.455 16.4456 149.119 16.4456H147.427V15.7976H149.191C149.959 15.7976 150.787 14.5256 151.675 11.9816Z" fill="#C2C2C2"/>
<path d="M1.752 88.5923V88.1363H4.56C4.752 88.1363 4.864 88.0403 4.896 87.8483V76.8083C4.896 76.4083 4.656 76.2083 4.176 76.2083L1.512 76.3523L1.464 75.7763L3.648 75.4643C5.024 75.2563 6.112 75.0003 6.912 74.6963C6.752 75.3043 6.672 76.2163 6.672 77.4323V87.8003C6.672 88.0243 6.792 88.1363 7.032 88.1363H9.288V88.5923H1.752ZM11.8294 83.5283V82.5683H17.8774V83.5283H11.8294ZM21.4659 88.8803L21.2739 88.3283C22.1539 88.0403 23.0979 87.4403 24.1059 86.5283C24.6339 86.0323 25.1139 85.3923 25.5459 84.6083C25.9939 83.8243 26.3219 82.9603 26.5299 82.0163C25.9379 82.9283 25.1059 83.3843 24.0339 83.3843C22.9619 83.3843 22.0019 82.9843 21.1539 82.1843C20.3219 81.3683 19.9059 80.3043 19.9059 78.9923C19.9059 77.6643 20.2899 76.6163 21.0579 75.8483C21.8259 75.0803 22.8899 74.6963 24.2499 74.6963C25.6099 74.6963 26.6819 75.1523 27.4659 76.0643C28.2499 76.9603 28.6419 78.0563 28.6419 79.3523C28.6419 80.6483 28.3939 81.9043 27.8979 83.1203C27.4019 84.3203 26.5939 85.4563 25.4739 86.5283C24.3699 87.6003 23.0339 88.3843 21.4659 88.8803ZM24.3219 82.6883C25.0259 82.6883 25.6019 82.3843 26.0499 81.7763C26.5139 81.1683 26.7459 80.2883 26.7459 79.1363C26.7459 77.9843 26.4979 77.0483 26.0019 76.3283C25.5059 75.5923 24.9059 75.2243 24.2019 75.2243C23.4979 75.2243 22.9139 75.5523 22.4499 76.2083C21.9859 76.8483 21.7539 77.7443 21.7539 78.8963C21.7539 80.0483 22.0099 80.9683 22.5219 81.6563C23.0339 82.3443 23.6339 82.6883 24.3219 82.6883ZM37.3033 74.6963H38.0953V84.6323H40.1113V85.3763H38.0953V87.8483C38.0953 88.0403 38.2153 88.1363 38.4553 88.1363H40.1113V88.5923H34.3273V88.1363H35.9833C36.2073 88.1363 36.3193 88.0243 36.3193 87.8003V85.3763H29.6953L37.3033 74.6963ZM31.0633 84.6323H36.3193V77.2643L31.0633 84.6323ZM43.6847 88.8803L43.4927 88.3283C44.3727 88.0403 45.3167 87.4403 46.3247 86.5283C46.8527 86.0323 47.3327 85.3923 47.7647 84.6083C48.2127 83.8243 48.5407 82.9603 48.7487 82.0163C48.1567 82.9283 47.3247 83.3843 46.2527 83.3843C45.1807 83.3843 44.2207 82.9843 43.3727 82.1843C42.5407 81.3683 42.1247 80.3043 42.1247 78.9923C42.1247 77.6643 42.5087 76.6163 43.2767 75.8483C44.0447 75.0803 45.1087 74.6963 46.4687 74.6963C47.8287 74.6963 48.9007 75.1523 49.6847 76.0643C50.4687 76.9603 50.8607 78.0563 50.8607 79.3523C50.8607 80.6483 50.6127 81.9043 50.1167 83.1203C49.6207 84.3203 48.8127 85.4563 47.6927 86.5283C46.5887 87.6003 45.2527 88.3843 43.6847 88.8803ZM46.5407 82.6883C47.2447 82.6883 47.8207 82.3843 48.2687 81.7763C48.7327 81.1683 48.9647 80.2883 48.9647 79.1363C48.9647 77.9843 48.7167 77.0483 48.2207 76.3283C47.7247 75.5923 47.1247 75.2243 46.4207 75.2243C45.7167 75.2243 45.1327 75.5523 44.6687 76.2083C44.2047 76.8483 43.9727 77.7443 43.9727 78.8963C43.9727 80.0483 44.2287 80.9683 44.7407 81.6563C45.2527 82.3443 45.8527 82.6883 46.5407 82.6883ZM52.6341 83.5283V82.5683H58.6821V83.5283H52.6341ZM69.5666 75.0083L65.8706 84.0803C65.4706 85.0883 65.2706 85.9363 65.2706 86.6243C65.2706 87.2963 65.4066 87.9283 65.6786 88.5203C65.4226 88.7603 65.0466 88.8803 64.5506 88.8803C63.9266 88.8803 63.6146 88.5683 63.6146 87.9443C63.6146 87.4003 64.0466 86.1123 64.9106 84.0803L68.1746 76.4963H62.6306C62.1986 76.4963 61.9666 76.6803 61.9346 77.0483L61.6466 79.1363H61.0706V77.9603C61.0706 76.5203 60.9986 75.4563 60.8546 74.7683C61.4306 74.9283 62.3426 75.0083 63.5906 75.0083H69.5666ZM72.252 88.5923V88.1363H75.06C75.252 88.1363 75.364 88.0403 75.396 87.8483V76.8083C75.396 76.4083 75.156 76.2083 74.676 76.2083L72.012 76.3523L71.964 75.7763L74.148 75.4643C75.524 75.2563 76.612 75.0003 77.412 74.6963C77.252 75.3043 77.172 76.2163 77.172 77.4323V87.8003C77.172 88.0243 77.292 88.1363 77.532 88.1363H79.788V88.5923H72.252ZM83.8414 81.6803L84.3694 75.0083H89.8654C90.2814 75.0083 90.5134 74.8243 90.5614 74.4563L90.6094 73.9763H91.1134L91.0414 74.7923C90.9774 75.5923 90.8174 76.0883 90.5614 76.2803C90.3054 76.4723 89.8014 76.5683 89.0494 76.5683H84.9694L84.6094 80.8883C85.3134 80.7283 85.9934 80.6483 86.6494 80.6483C88.1854 80.6483 89.3774 81.0563 90.2254 81.8723C91.0894 82.6883 91.5214 83.6563 91.5214 84.7763C91.5214 85.8803 91.0894 86.8403 90.2254 87.6563C89.3774 88.4723 88.1854 88.8803 86.6494 88.8803C85.4494 88.8803 84.5374 88.6003 83.9134 88.0403C83.2894 87.4643 82.9774 86.7443 82.9774 85.8803C82.9774 85.0003 83.2654 84.5603 83.8414 84.5603C84.3214 84.5603 84.6894 84.6883 84.9454 84.9443C84.7374 85.3603 84.6334 85.8483 84.6334 86.4083C84.6334 86.9683 84.8014 87.4403 85.1374 87.8243C85.4894 88.1923 85.9934 88.3763 86.6494 88.3763C87.6094 88.3763 88.3534 88.0483 88.8814 87.3923C89.4254 86.7363 89.6974 85.8803 89.6974 84.8243C89.6974 83.7523 89.3374 82.9043 88.6174 82.2803C87.9134 81.6563 87.0014 81.3443 85.8814 81.3443C85.1774 81.3443 84.4974 81.4563 83.8414 81.6803ZM93.4388 83.5283V82.5683H99.4868V83.5283H93.4388ZM101.947 88.5923V88.1363H104.755C104.947 88.1363 105.059 88.0403 105.091 87.8483V76.8083C105.091 76.4083 104.851 76.2083 104.371 76.2083L101.707 76.3523L101.659 75.7763L103.843 75.4643C105.219 75.2563 106.307 75.0003 107.107 74.6963C106.947 75.3043 106.867 76.2163 106.867 77.4323V87.8003C106.867 88.0243 106.987 88.1363 107.227 88.1363H109.483V88.5923H101.947ZM119.945 74.6963L120.137 75.2723C119.209 75.5763 118.241 76.1923 117.233 77.1203C116.689 77.6163 116.185 78.2723 115.721 79.0883C115.273 79.8883 114.937 80.7683 114.713 81.7283C115.353 80.8003 116.225 80.3363 117.329 80.3363C118.433 80.3363 119.401 80.7363 120.233 81.5363C121.065 82.3203 121.481 83.3603 121.481 84.6563C121.481 85.9363 121.065 86.9603 120.233 87.7283C119.417 88.4963 118.313 88.8803 116.921 88.8803C115.545 88.8803 114.465 88.4323 113.681 87.5363C112.913 86.6403 112.529 85.5443 112.529 84.2483C112.529 82.9363 112.801 81.6723 113.345 80.4563C113.889 79.2243 114.737 78.0803 115.889 77.0243C117.041 75.9683 118.393 75.1923 119.945 74.6963ZM117.017 81.0323C116.313 81.0323 115.713 81.3283 115.217 81.9203C114.721 82.4963 114.473 83.3523 114.473 84.4883C114.473 85.6243 114.721 86.5603 115.217 87.2963C115.713 88.0163 116.321 88.3763 117.041 88.3763C117.777 88.3763 118.393 88.0483 118.889 87.3923C119.385 86.7203 119.633 85.8163 119.633 84.6803C119.633 83.5283 119.377 82.6323 118.865 81.9923C118.353 81.3523 117.737 81.0323 117.017 81.0323ZM127.958 88.8803C126.486 88.8803 125.286 88.2563 124.358 87.0083C123.446 85.7443 122.99 84.0083 122.99 81.8003C122.99 79.5763 123.446 77.8403 124.358 76.5923C125.286 75.3283 126.486 74.6963 127.958 74.6963C129.43 74.6963 130.63 75.3283 131.558 76.5923C132.486 77.8403 132.95 79.5763 132.95 81.8003C132.95 84.0083 132.486 85.7443 131.558 87.0083C130.63 88.2563 129.43 88.8803 127.958 88.8803ZM125.726 77.0003C125.134 78.1843 124.838 79.7843 124.838 81.8003C124.838 83.8163 125.134 85.4163 125.726 86.6003C126.334 87.7843 127.078 88.3763 127.958 88.3763C128.838 88.3763 129.582 87.7843 130.19 86.6003C130.798 85.4163 131.102 83.8163 131.102 81.8003C131.102 79.7843 130.798 78.1843 130.19 77.0003C129.582 75.8163 128.838 75.2243 127.958 75.2243C127.078 75.2243 126.334 75.8163 125.726 77.0003ZM141.179 78.1763C141.179 77.2643 140.971 76.5443 140.555 76.0163C140.155 75.4883 139.587 75.2243 138.851 75.2243C138.131 75.2243 137.579 75.4083 137.195 75.7763C136.811 76.1443 136.619 76.6083 136.619 77.1683C136.619 77.7283 136.723 78.2243 136.931 78.6563C136.659 78.8963 136.291 79.0163 135.827 79.0163C135.251 79.0163 134.963 78.5843 134.963 77.7203C134.963 76.8403 135.275 76.1203 135.899 75.5603C136.539 74.9843 137.515 74.6963 138.827 74.6963C140.155 74.6963 141.187 75.0083 141.923 75.6323C142.675 76.2563 143.051 77.0003 143.051 77.8643C143.051 79.0643 142.491 80.3043 141.371 81.5843C141.259 81.7123 140.995 82.0003 140.579 82.4483C140.179 82.8803 139.947 83.1363 139.883 83.2163L136.307 87.0803H141.827C142.211 87.0803 142.435 86.9043 142.499 86.5523L142.811 84.4643H143.363V85.6163C143.363 87.0243 143.443 88.0883 143.603 88.8083C143.059 88.6643 142.139 88.5923 140.843 88.5923H134.003L139.451 82.5923C140.603 81.3123 141.179 79.8403 141.179 78.1763ZM10.272 114.512L10.08 114.488C9.936 113.496 9.576 113 9 113C8.712 113 8.448 113.152 8.208 113.456C7.968 113.76 7.824 114.16 7.776 114.656C8.64 115.312 9.072 116.224 9.072 117.392C9.072 118.56 8.728 119.464 8.04 120.104C7.368 120.728 6.488 121.04 5.4 121.04H3.264C2.864 121.04 2.552 121.152 2.328 121.376C2.12 121.6 2.016 121.864 2.016 122.168C2.016 122.472 2.12 122.736 2.328 122.96C2.552 123.184 2.864 123.296 3.264 123.296H7.272C8.232 123.296 8.952 123.52 9.432 123.968C9.928 124.4 10.176 124.952 10.176 125.624C10.176 126.696 9.672 127.704 8.664 128.648C7.656 129.592 6.4 130.064 4.896 130.064C3.744 130.064 2.808 129.792 2.088 129.248C1.368 128.704 1.008 128.016 1.008 127.184C1.008 126.352 1.448 125.552 2.328 124.784C1.912 124.672 1.576 124.44 1.32 124.088C1.08 123.72 0.96 123.272 0.96 122.744C0.96 122.216 1.152 121.744 1.536 121.328C1.92 120.896 2.496 120.68 3.264 120.68H3.624C2.376 120.104 1.752 119.04 1.752 117.488C1.752 116.384 2.088 115.52 2.76 114.896C3.432 114.256 4.312 113.936 5.4 113.936C6.12 113.936 6.752 114.08 7.296 114.368C7.408 113.728 7.632 113.2 7.968 112.784C8.32 112.368 8.776 112.16 9.336 112.16C9.912 112.16 10.384 112.312 10.752 112.616C11.136 112.92 11.328 113.248 11.328 113.6C11.328 114.208 10.976 114.512 10.272 114.512ZM7.272 124.88H3.072C2.56 125.472 2.304 126.144 2.304 126.896C2.304 127.648 2.528 128.264 2.976 128.744C3.424 129.24 4.144 129.488 5.136 129.488C6.144 129.488 7.056 129.136 7.872 128.432C8.688 127.728 9.096 127 9.096 126.248C9.096 125.848 8.944 125.52 8.64 125.264C8.336 125.008 7.88 124.88 7.272 124.88ZM4.008 115.28C3.64 115.824 3.456 116.56 3.456 117.488C3.456 118.416 3.64 119.152 4.008 119.696C4.376 120.24 4.84 120.512 5.4 120.512C5.96 120.512 6.424 120.24 6.792 119.696C7.176 119.152 7.368 118.416 7.368 117.488C7.368 116.56 7.176 115.824 6.792 115.28C6.424 114.736 5.96 114.464 5.4 114.464C4.84 114.464 4.376 114.736 4.008 115.28ZM16.7064 113.936C17.8104 113.936 18.6824 114.304 19.3224 115.04C19.9624 115.776 20.2824 116.856 20.2824 118.28C20.2824 118.568 20.2664 118.888 20.2344 119.24H13.6824V119.408C13.6824 120.928 13.9544 122.128 14.4984 123.008C15.0584 123.872 15.7704 124.304 16.6344 124.304C17.5144 124.304 18.2344 124.08 18.7944 123.632C19.3544 123.184 19.7384 122.544 19.9464 121.712L20.4024 121.808C20.2104 122.784 19.7704 123.544 19.0824 124.088C18.3944 124.616 17.6024 124.88 16.7064 124.88C15.3144 124.88 14.1544 124.392 13.2264 123.416C12.3144 122.44 11.8584 121.112 11.8584 119.432C11.8584 117.736 12.3224 116.4 13.2504 115.424C14.1784 114.432 15.3304 113.936 16.7064 113.936ZM18.6264 117.464C18.6264 115.496 17.8904 114.512 16.4184 114.512C15.6824 114.512 15.0504 114.912 14.5224 115.712C14.0104 116.512 13.7384 117.528 13.7064 118.76H18.5304C18.5944 118.216 18.6264 117.784 18.6264 117.464ZM38.4362 117.584V123.872C38.4362 124.064 38.5482 124.16 38.7722 124.16H39.9002V124.592H35.5802V124.16H36.3722C36.5962 124.16 36.7082 124.064 36.7082 123.872V117.272C36.7082 116.456 36.5402 115.856 36.2042 115.472C35.8682 115.072 35.4122 114.872 34.8362 114.872C34.0362 114.872 33.3802 115.392 32.8682 116.432C32.3562 117.456 32.1002 118.936 32.1002 120.872V123.824C32.1002 124.048 32.2122 124.16 32.4362 124.16H33.5642V124.592H29.2442V124.16H30.0362C30.2602 124.16 30.3722 124.064 30.3722 123.872V117.272C30.3722 116.456 30.2042 115.856 29.8682 115.472C29.5322 115.072 29.0762 114.872 28.5002 114.872C27.7002 114.872 27.0442 115.392 26.5322 116.432C26.0202 117.456 25.7642 118.936 25.7642 120.872V123.824C25.7642 124.048 25.8762 124.16 26.1002 124.16H26.8922V124.592H22.5722V124.16H23.7002C23.9242 124.16 24.0362 124.064 24.0362 123.872V114.992C24.0362 114.768 23.9242 114.656 23.7002 114.656H22.5722V114.224H23.7482C24.7082 114.224 25.3802 114.176 25.7642 114.08V117.296C26.2922 115.056 27.4282 113.936 29.1722 113.936C29.9402 113.936 30.6042 114.216 31.1642 114.776C31.7402 115.336 32.0522 116.184 32.1002 117.32C32.6282 115.064 33.7642 113.936 35.5082 113.936C36.3082 113.936 36.9962 114.24 37.5722 114.848C38.1482 115.44 38.4362 116.352 38.4362 117.584ZM57.6784 117.584V123.872C57.6784 124.064 57.7904 124.16 58.0144 124.16H59.1424V124.592H54.8224V124.16H55.6144C55.8384 124.16 55.9504 124.064 55.9504 123.872V117.272C55.9504 116.456 55.7824 115.856 55.4464 115.472C55.1104 115.072 54.6544 114.872 54.0784 114.872C53.2784 114.872 52.6224 115.392 52.1104 116.432C51.5984 117.456 51.3424 118.936 51.3424 120.872V123.824C51.3424 124.048 51.4544 124.16 51.6784 124.16H52.8064V124.592H48.4864V124.16H49.2784C49.5024 124.16 49.6144 124.064 49.6144 123.872V117.272C49.6144 116.456 49.4464 115.856 49.1104 115.472C48.7744 115.072 48.3184 114.872 47.7424 114.872C46.9424 114.872 46.2864 115.392 45.7744 116.432C45.2624 117.456 45.0064 118.936 45.0064 120.872V123.824C45.0064 124.048 45.1184 124.16 45.3424 124.16H46.1344V124.592H41.8144V124.16H42.9424C43.1664 124.16 43.2784 124.064 43.2784 123.872V114.992C43.2784 114.768 43.1664 114.656 42.9424 114.656H41.8144V114.224H42.9904C43.9504 114.224 44.6224 114.176 45.0064 114.08V117.296C45.5344 115.056 46.6704 113.936 48.4144 113.936C49.1824 113.936 49.8464 114.216 50.4064 114.776C50.9824 115.336 51.2944 116.184 51.3424 117.32C51.8704 115.064 53.0064 113.936 54.7504 113.936C55.5504 113.936 56.2384 114.24 56.8144 114.848C57.3904 115.44 57.6784 116.352 57.6784 117.584ZM66.8406 119L66.8646 118.16V117.32C66.8646 115.448 66.2566 114.512 65.0406 114.512C64.5126 114.512 64.0966 114.696 63.7926 115.064C63.5046 115.416 63.3606 115.832 63.3606 116.312C63.3606 116.792 63.4246 117.208 63.5526 117.56C63.2806 117.8 62.9046 117.92 62.4246 117.92C61.9446 117.92 61.7046 117.528 61.7046 116.744C61.7046 115.96 62.0086 115.296 62.6166 114.752C63.2406 114.208 64.1206 113.936 65.2566 113.936C67.4806 113.936 68.5926 115.248 68.5926 117.872V122.792C68.5926 123.656 68.8326 124.088 69.3126 124.088C69.5366 124.088 69.7286 123.984 69.8886 123.776C70.0646 123.568 70.1526 123.328 70.1526 123.056C70.1526 122.784 70.1286 122.528 70.0806 122.288L70.5366 122.216C70.6006 122.456 70.6326 122.72 70.6326 123.008C70.6326 123.584 70.4566 124.04 70.1046 124.376C69.7686 124.712 69.3206 124.88 68.7606 124.88C68.2006 124.88 67.7446 124.656 67.3926 124.208C67.0406 123.744 66.8646 123.056 66.8646 122.144V121.712C66.5926 122.8 66.1606 123.6 65.5686 124.112C64.9766 124.624 64.2886 124.88 63.5046 124.88C62.7366 124.88 62.1126 124.64 61.6326 124.16C61.1686 123.664 60.9366 123.016 60.9366 122.216C60.9366 121.4 61.3126 120.68 62.0646 120.056C62.8166 119.416 63.8966 119.096 65.3046 119.096C65.6086 119.096 66.1206 119.136 66.8406 119.216V119ZM64.0566 123.968C64.7286 123.968 65.3286 123.592 65.8566 122.84C66.4006 122.072 66.7206 121 66.8166 119.624C66.6566 119.608 66.4326 119.6 66.1446 119.6C64.8646 119.6 63.9446 119.872 63.3846 120.416C62.8406 120.944 62.5686 121.56 62.5686 122.264C62.5686 122.728 62.7046 123.128 62.9766 123.464C63.2486 123.8 63.6086 123.968 64.0566 123.968ZM82.2722 117.8C82.2722 115.928 81.7122 114.992 80.5922 114.992C80.0962 114.992 79.7042 115.16 79.4162 115.496C79.1442 115.832 79.0082 116.224 79.0082 116.672C79.0082 117.104 79.0722 117.488 79.2002 117.824C78.9282 118.048 78.5522 118.16 78.0722 118.16C77.5922 118.16 77.3522 117.84 77.3522 117.2C77.3522 116.368 77.6482 115.696 78.2402 115.184C78.8322 114.672 79.6802 114.416 80.7842 114.416C82.8962 114.416 83.9522 115.728 83.9522 118.352V123.944C83.9522 124.568 84.2082 124.88 84.7202 124.88C85.5202 124.88 86.2242 124.368 86.8322 123.344C87.4562 122.304 87.7682 121.12 87.7682 119.792C87.7682 117.792 87.0642 116.088 85.6562 114.68C84.2482 113.256 82.5442 112.544 80.5442 112.544C78.5442 112.544 76.8322 113.256 75.4082 114.68C74.0002 116.088 73.2962 117.792 73.2962 119.792C73.2962 121.792 74.0002 123.496 75.4082 124.904C76.8322 126.312 78.5442 127.016 80.5442 127.016V127.88C78.3042 127.88 76.3922 127.088 74.8082 125.504C73.2242 123.936 72.4322 122.032 72.4322 119.792C72.4322 117.552 73.2242 115.64 74.8082 114.056C76.3922 112.472 78.3042 111.68 80.5442 111.68C82.7842 111.68 84.6882 112.472 86.2562 114.056C87.8402 115.64 88.6322 117.552 88.6322 119.792C88.6322 121.6 88.1762 123.048 87.2642 124.136C86.3682 125.208 85.4002 125.744 84.3602 125.744C82.9682 125.744 82.2722 124.92 82.2722 123.272V121.664C82.0162 122.736 81.5922 123.544 81.0002 124.088C80.4082 124.616 79.7682 124.88 79.0802 124.88C78.3922 124.88 77.8002 124.64 77.3042 124.16C76.8242 123.68 76.5842 123.032 76.5842 122.216C76.5842 121.4 76.9442 120.68 77.6642 120.056C78.4002 119.416 79.4402 119.096 80.7842 119.096C81.0402 119.096 81.5282 119.136 82.2482 119.216C82.2642 119.104 82.2722 118.632 82.2722 117.8ZM78.2162 121.976C78.2162 122.52 78.3522 122.952 78.6242 123.272C78.8962 123.576 79.2962 123.728 79.8242 123.728C80.3522 123.728 80.8562 123.368 81.3362 122.648C81.8322 121.928 82.1282 120.92 82.2242 119.624C82.0802 119.608 81.8802 119.6 81.6242 119.6C80.4242 119.6 79.5522 119.856 79.0082 120.368C78.4802 120.88 78.2162 121.416 78.2162 121.976ZM97.0303 114.224H100.078V114.656H99.1903C99.0463 114.656 98.9343 114.768 98.8543 114.992L95.2783 124.592H94.6303L91.0543 114.992C90.9743 114.768 90.8623 114.656 90.7183 114.656H89.8303V114.224H93.9103V114.656H92.7103L95.4703 122.24L98.2543 114.656H97.0303V114.224ZM105.652 113.936C106.756 113.936 107.628 114.304 108.268 115.04C108.908 115.776 109.228 116.856 109.228 118.28C109.228 118.568 109.212 118.888 109.18 119.24H102.628V119.408C102.628 120.928 102.9 122.128 103.444 123.008C104.004 123.872 104.716 124.304 105.58 124.304C106.46 124.304 107.18 124.08 107.74 123.632C108.3 123.184 108.684 122.544 108.892 121.712L109.348 121.808C109.156 122.784 108.716 123.544 108.028 124.088C107.34 124.616 106.548 124.88 105.652 124.88C104.26 124.88 103.1 124.392 102.172 123.416C101.26 122.44 100.804 121.112 100.804 119.432C100.804 117.736 101.268 116.4 102.196 115.424C103.124 114.432 104.276 113.936 105.652 113.936ZM107.572 117.464C107.572 115.496 106.836 114.512 105.364 114.512C104.628 114.512 103.996 114.912 103.468 115.712C102.956 116.512 102.684 117.528 102.652 118.76H107.476C107.54 118.216 107.572 117.784 107.572 117.464ZM121.286 117.584V123.872C121.286 124.064 121.398 124.16 121.622 124.16H122.75V124.592H118.43V124.16H119.222C119.446 124.16 119.558 124.064 119.558 123.872V117.272C119.558 116.456 119.374 115.856 119.006 115.472C118.654 115.072 118.182 114.872 117.59 114.872C116.758 114.872 116.07 115.368 115.526 116.36C114.982 117.336 114.71 118.744 114.71 120.584V123.824C114.71 124.048 114.822 124.16 115.046 124.16H115.838V124.592H111.518V124.16H112.646C112.87 124.16 112.982 124.064 112.982 123.872V114.992C112.982 114.768 112.87 114.656 112.646 114.656H111.518V114.224H112.694C113.654 114.224 114.326 114.176 114.71 114.08V117.344C115.254 115.072 116.454 113.936 118.31 113.936C119.142 113.936 119.846 114.24 120.422 114.848C120.998 115.44 121.286 116.352 121.286 117.584ZM126.13 123.824V114.992C126.13 114.768 126.018 114.656 125.794 114.656H124.666V114.224H125.842C126.802 114.224 127.474 114.176 127.858 114.08V123.872C127.858 124.064 127.97 124.16 128.194 124.16H129.322V124.592H124.666V124.16H125.794C126.018 124.16 126.13 124.048 126.13 123.824ZM126.178 111.584C125.97 111.36 125.866 111.088 125.866 110.768C125.866 110.448 125.97 110.184 126.178 109.976C126.402 109.752 126.674 109.64 126.994 109.64C127.314 109.64 127.578 109.752 127.786 109.976C128.01 110.184 128.122 110.448 128.122 110.768C128.122 111.088 128.01 111.36 127.786 111.584C127.578 111.792 127.314 111.896 126.994 111.896C126.674 111.896 126.402 111.792 126.178 111.584ZM137.111 113.936C137.735 113.936 138.239 114.2 138.623 114.728C139.023 115.256 139.223 115.92 139.223 116.72C139.223 117.52 138.895 117.92 138.239 117.92C137.855 117.92 137.543 117.8 137.303 117.56C137.511 117.096 137.615 116.624 137.615 116.144C137.615 115.296 137.263 114.872 136.559 114.872C135.967 114.872 135.439 115.368 134.975 116.36C134.527 117.336 134.303 118.76 134.303 120.632V123.824C134.303 124.048 134.415 124.16 134.639 124.16H136.247V124.592H131.111V124.16H132.239C132.463 124.16 132.575 124.048 132.575 123.824V114.992C132.575 114.768 132.463 114.656 132.239 114.656H131.111V114.224H132.287C133.247 114.224 133.919 114.176 134.303 114.08V117.152C134.559 116.048 134.935 115.24 135.431 114.728C135.927 114.2 136.487 113.936 137.111 113.936ZM141.64 123.416C140.744 122.44 140.296 121.104 140.296 119.408C140.296 117.712 140.744 116.376 141.64 115.4C142.536 114.424 143.704 113.936 145.144 113.936C146.584 113.936 147.752 114.424 148.648 115.4C149.56 116.376 150.016 117.712 150.016 119.408C150.016 121.104 149.56 122.44 148.648 123.416C147.752 124.392 146.584 124.88 145.144 124.88C143.704 124.88 142.536 124.392 141.64 123.416ZM142.984 115.808C142.408 116.688 142.12 117.888 142.12 119.408C142.12 120.928 142.408 122.136 142.984 123.032C143.56 123.912 144.28 124.352 145.144 124.352C146.008 124.352 146.728 123.912 147.304 123.032C147.896 122.136 148.192 120.928 148.192 119.408C148.192 117.888 147.896 116.688 147.304 115.808C146.728 114.912 146.008 114.464 145.144 114.464C144.28 114.464 143.56 114.912 142.984 115.808ZM156.792 113.936C157.896 113.936 158.768 114.304 159.408 115.04C160.048 115.776 160.368 116.856 160.368 118.28C160.368 118.568 160.352 118.888 160.32 119.24H153.768V119.408C153.768 120.928 154.04 122.128 154.584 123.008C155.144 123.872 155.856 124.304 156.72 124.304C157.6 124.304 158.32 124.08 158.88 123.632C159.44 123.184 159.824 122.544 160.032 121.712L160.488 121.808C160.296 122.784 159.856 123.544 159.168 124.088C158.48 124.616 157.688 124.88 156.792 124.88C155.4 124.88 154.24 124.392 153.312 123.416C152.4 122.44 151.944 121.112 151.944 119.432C151.944 117.736 152.408 116.4 153.336 115.424C154.264 114.432 155.416 113.936 156.792 113.936ZM158.712 117.464C158.712 115.496 157.976 114.512 156.504 114.512C155.768 114.512 155.136 114.912 154.608 115.712C154.096 116.512 153.824 117.528 153.792 118.76H158.616C158.68 118.216 158.712 117.784 158.712 117.464ZM162.922 124.496C162.666 124.224 162.538 123.904 162.538 123.536C162.538 123.168 162.666 122.856 162.922 122.6C163.194 122.328 163.514 122.192 163.882 122.192C164.25 122.192 164.562 122.328 164.818 122.6C165.09 122.856 165.226 123.168 165.226 123.536C165.226 123.904 165.09 124.224 164.818 124.496C164.562 124.752 164.25 124.88 163.882 124.88C163.514 124.88 163.194 124.752 162.922 124.496ZM172.051 114.512C171.139 114.512 170.395 114.952 169.819 115.832C169.259 116.696 168.979 117.888 168.979 119.408C168.979 120.928 169.251 122.128 169.795 123.008C170.355 123.872 171.067 124.304 171.931 124.304C172.811 124.304 173.531 124.08 174.091 123.632C174.651 123.184 175.035 122.544 175.243 121.712L175.699 121.808C175.507 122.784 175.067 123.544 174.379 124.088C173.691 124.616 172.899 124.88 172.003 124.88C170.611 124.88 169.451 124.392 168.523 123.416C167.611 122.44 167.155 121.104 167.155 119.408C167.155 117.712 167.619 116.376 168.547 115.4C169.475 114.424 170.643 113.936 172.051 113.936C173.139 113.936 173.955 114.184 174.499 114.68C175.043 115.16 175.315 115.808 175.315 116.624C175.315 117.68 175.019 118.208 174.427 118.208C173.947 118.208 173.563 118.08 173.275 117.824C173.499 117.344 173.611 116.848 173.611 116.336C173.611 115.808 173.475 115.376 173.203 115.04C172.947 114.688 172.563 114.512 172.051 114.512ZM178.601 123.416C177.705 122.44 177.257 121.104 177.257 119.408C177.257 117.712 177.705 116.376 178.601 115.4C179.497 114.424 180.665 113.936 182.105 113.936C183.545 113.936 184.713 114.424 185.609 115.4C186.521 116.376 186.977 117.712 186.977 119.408C186.977 121.104 186.521 122.44 185.609 123.416C184.713 124.392 183.545 124.88 182.105 124.88C180.665 124.88 179.497 124.392 178.601 123.416ZM179.945 115.808C179.369 116.688 179.081 117.888 179.081 119.408C179.081 120.928 179.369 122.136 179.945 123.032C180.521 123.912 181.241 124.352 182.105 124.352C182.969 124.352 183.689 123.912 184.265 123.032C184.857 122.136 185.153 120.928 185.153 119.408C185.153 117.888 184.857 116.688 184.265 115.808C183.689 114.912 182.969 114.464 182.105 114.464C181.241 114.464 180.521 114.912 179.945 115.808ZM204.889 117.584V123.872C204.889 124.064 205.001 124.16 205.225 124.16H206.353V124.592H202.033V124.16H202.825C203.049 124.16 203.161 124.064 203.161 123.872V117.272C203.161 116.456 202.993 115.856 202.657 115.472C202.321 115.072 201.865 114.872 201.289 114.872C200.489 114.872 199.833 115.392 199.321 116.432C198.809 117.456 198.553 118.936 198.553 120.872V123.824C198.553 124.048 198.665 124.16 198.889 124.16H200.017V124.592H195.697V124.16H196.489C196.713 124.16 196.825 124.064 196.825 123.872V117.272C196.825 116.456 196.657 115.856 196.321 115.472C195.985 115.072 195.529 114.872 194.953 114.872C194.153 114.872 193.497 115.392 192.985 116.432C192.473 117.456 192.217 118.936 192.217 120.872V123.824C192.217 124.048 192.329 124.16 192.553 124.16H193.345V124.592H189.025V124.16H190.153C190.377 124.16 190.489 124.064 190.489 123.872V114.992C190.489 114.768 190.377 114.656 190.153 114.656H189.025V114.224H190.201C191.161 114.224 191.833 114.176 192.217 114.08V117.296C192.745 115.056 193.881 113.936 195.625 113.936C196.393 113.936 197.057 114.216 197.617 114.776C198.193 115.336 198.505 116.184 198.553 117.32C199.081 115.064 200.217 113.936 201.961 113.936C202.761 113.936 203.449 114.24 204.025 114.848C204.601 115.44 204.889 116.352 204.889 117.584Z" fill="#A2A2A2"/>
</svg>
