<svg width="390" height="234" viewBox="0 0 390 234" fill="none" xmlns="http://www.w3.org/2000/svg">
<path d="M3.276 30.1976V9.17361C3.276 8.83761 3.108 8.66961 2.772 8.66961H1.08V8.02161H2.844C4.284 8.02161 5.292 7.94961 5.868 7.80561V30.1976C5.868 30.5336 6.036 30.7016 6.372 30.7016H8.064V31.3496H1.08V30.7016H2.772C3.108 30.7016 3.276 30.5336 3.276 30.1976ZM21.2366 29.5856C19.8926 28.1216 19.2206 26.1176 19.2206 23.5736C19.2206 21.0296 19.8926 19.0256 21.2366 17.5616C22.5806 16.0976 24.3326 15.3656 26.4926 15.3656C28.6526 15.3656 30.4046 16.0976 31.7486 17.5616C33.1166 19.0256 33.8006 21.0296 33.8006 23.5736C33.8006 26.1176 33.1166 28.1216 31.7486 29.5856C30.4046 31.0496 28.6526 31.7816 26.4926 31.7816C24.3326 31.7816 22.5806 31.0496 21.2366 29.5856ZM23.2526 18.1736C22.3886 19.4936 21.9566 21.2936 21.9566 23.5736C21.9566 25.8536 22.3886 27.6656 23.2526 29.0096C24.1166 30.3296 25.1966 30.9896 26.4926 30.9896C27.7886 30.9896 28.8686 30.3296 29.7326 29.0096C30.6206 27.6656 31.0646 25.8536 31.0646 23.5736C31.0646 21.2936 30.6206 19.4936 29.7326 18.1736C28.8686 16.8296 27.7886 16.1576 26.4926 16.1576C25.1966 16.1576 24.1166 16.8296 23.2526 18.1736ZM52.6773 16.2296C51.3093 16.2296 50.1933 16.8896 49.3293 18.2096C48.4893 19.5056 48.0693 21.2936 48.0693 23.5736C48.0693 25.8536 48.4773 27.6536 49.2933 28.9736C50.1333 30.2696 51.2013 30.9176 52.4973 30.9176C53.8173 30.9176 54.8973 30.5816 55.7373 29.9096C56.5773 29.2376 57.1533 28.2776 57.4653 27.0296L58.1493 27.1736C57.8613 28.6376 57.2013 29.7776 56.1693 30.5936C55.1373 31.3856 53.9493 31.7816 52.6053 31.7816C50.5173 31.7816 48.7773 31.0496 47.3853 29.5856C46.0173 28.1216 45.3333 26.1176 45.3333 23.5736C45.3333 21.0296 46.0293 19.0256 47.4213 17.5616C48.8133 16.0976 50.5653 15.3656 52.6773 15.3656C54.3093 15.3656 55.5333 15.7376 56.3493 16.4816C57.1653 17.2016 57.5733 18.1736 57.5733 19.3976C57.5733 20.9816 57.1293 21.7736 56.2413 21.7736C55.5213 21.7736 54.9453 21.5816 54.5133 21.1976C54.8493 20.4776 55.0173 19.7336 55.0173 18.9656C55.0173 18.1736 54.8133 17.5256 54.4053 17.0216C54.0213 16.4936 53.4453 16.2296 52.6773 16.2296ZM77.9816 22.9616L78.0176 21.7016V20.4416C78.0176 17.6336 77.1056 16.2296 75.2816 16.2296C74.4896 16.2296 73.8656 16.5056 73.4096 17.0576C72.9776 17.5856 72.7616 18.2096 72.7616 18.9296C72.7616 19.6496 72.8576 20.2736 73.0496 20.8016C72.6416 21.1616 72.0776 21.3416 71.3576 21.3416C70.6376 21.3416 70.2776 20.7536 70.2776 19.5776C70.2776 18.4016 70.7336 17.4056 71.6456 16.5896C72.5816 15.7736 73.9016 15.3656 75.6056 15.3656C78.9416 15.3656 80.6096 17.3336 80.6096 21.2696V28.6496C80.6096 29.9456 80.9696 30.5936 81.6896 30.5936C82.0256 30.5936 82.3136 30.4376 82.5536 30.1256C82.8176 29.8136 82.9496 29.4536 82.9496 29.0456C82.9496 28.6376 82.9136 28.2536 82.8416 27.8936L83.5256 27.7856C83.6216 28.1456 83.6696 28.5416 83.6696 28.9736C83.6696 29.8376 83.4056 30.5216 82.8776 31.0256C82.3736 31.5296 81.7016 31.7816 80.8616 31.7816C80.0216 31.7816 79.3376 31.4456 78.8096 30.7736C78.2816 30.0776 78.0176 29.0456 78.0176 27.6776V27.0296C77.6096 28.6616 76.9616 29.8616 76.0736 30.6296C75.1856 31.3976 74.1536 31.7816 72.9776 31.7816C71.8256 31.7816 70.8896 31.4216 70.1696 30.7016C69.4736 29.9576 69.1256 28.9856 69.1256 27.7856C69.1256 26.5616 69.6896 25.4816 70.8176 24.5456C71.9456 23.5856 73.5656 23.1056 75.6776 23.1056C76.1336 23.1056 76.9016 23.1656 77.9816 23.2856V22.9616ZM73.8056 30.4136C74.8136 30.4136 75.7136 29.8496 76.5056 28.7216C77.3216 27.5696 77.8016 25.9616 77.9456 23.8976C77.7056 23.8736 77.3696 23.8616 76.9376 23.8616C75.0176 23.8616 73.6376 24.2696 72.7976 25.0856C71.9816 25.8776 71.5736 26.8016 71.5736 27.8576C71.5736 28.5536 71.7776 29.1536 72.1856 29.6576C72.5936 30.1616 73.1336 30.4136 73.8056 30.4136ZM97.8171 11.9816H98.3571V15.7976H101.957V16.4456H98.3571V28.6496C98.3571 29.9456 98.7171 30.5936 99.4371 30.5936C99.7731 30.5936 100.061 30.4376 100.301 30.1256C100.565 29.8136 100.697 29.4536 100.697 29.0456C100.697 28.6376 100.661 28.2536 100.589 27.8936L101.273 27.7856C101.369 28.1456 101.417 28.5416 101.417 28.9736C101.417 29.8376 101.153 30.5216 100.625 31.0256C100.121 31.5296 99.4491 31.7816 98.6091 31.7816C97.7691 31.7816 97.0851 31.4456 96.5571 30.7736C96.0291 30.0776 95.7651 29.0456 95.7651 27.6776V16.9496C95.7651 16.6136 95.5971 16.4456 95.2611 16.4456H93.5691V15.7976H95.3331C96.1011 15.7976 96.9291 14.5256 97.8171 11.9816ZM115.149 30.1976V16.9496C115.149 16.6136 114.981 16.4456 114.645 16.4456H112.953V15.7976H114.717C116.157 15.7976 117.165 15.7256 117.741 15.5816V30.2696C117.741 30.5576 117.909 30.7016 118.245 30.7016H119.937V31.3496H112.953V30.7016H114.645C114.981 30.7016 115.149 30.5336 115.149 30.1976ZM115.221 11.8376C114.909 11.5016 114.753 11.0936 114.753 10.6136C114.753 10.1336 114.909 9.73761 115.221 9.42561C115.557 9.08961 115.965 8.92161 116.445 8.92161C116.925 8.92161 117.321 9.08961 117.633 9.42561C117.969 9.73761 118.137 10.1336 118.137 10.6136C118.137 11.0936 117.969 11.5016 117.633 11.8376C117.321 12.1496 116.925 12.3056 116.445 12.3056C115.965 12.3056 115.557 12.1496 115.221 11.8376ZM133.097 29.5856C131.753 28.1216 131.081 26.1176 131.081 23.5736C131.081 21.0296 131.753 19.0256 133.097 17.5616C134.441 16.0976 136.193 15.3656 138.353 15.3656C140.513 15.3656 142.265 16.0976 143.609 17.5616C144.977 19.0256 145.661 21.0296 145.661 23.5736C145.661 26.1176 144.977 28.1216 143.609 29.5856C142.265 31.0496 140.513 31.7816 138.353 31.7816C136.193 31.7816 134.441 31.0496 133.097 29.5856ZM135.113 18.1736C134.249 19.4936 133.817 21.2936 133.817 23.5736C133.817 25.8536 134.249 27.6656 135.113 29.0096C135.977 30.3296 137.057 30.9896 138.353 30.9896C139.649 30.9896 140.729 30.3296 141.593 29.0096C142.481 27.6656 142.925 25.8536 142.925 23.5736C142.925 21.2936 142.481 19.4936 141.593 18.1736C140.729 16.8296 139.649 16.1576 138.353 16.1576C137.057 16.1576 135.977 16.8296 135.113 18.1736ZM172.025 20.8376V30.2696C172.025 30.5576 172.193 30.7016 172.529 30.7016H174.221V31.3496H167.741V30.7016H168.929C169.265 30.7016 169.433 30.5576 169.433 30.2696V20.3696C169.433 19.1456 169.157 18.2456 168.605 17.6696C168.077 17.0696 167.369 16.7696 166.481 16.7696C165.233 16.7696 164.201 17.5136 163.385 19.0016C162.569 20.4656 162.161 22.5776 162.161 25.3376V30.1976C162.161 30.5336 162.329 30.7016 162.665 30.7016H163.853V31.3496H157.373V30.7016H159.065C159.401 30.7016 159.569 30.5576 159.569 30.2696V16.9496C159.569 16.6136 159.401 16.4456 159.065 16.4456H157.373V15.7976H159.137C160.577 15.7976 161.585 15.7256 162.161 15.5816V20.4776C162.977 17.0696 164.777 15.3656 167.561 15.3656C168.809 15.3656 169.865 15.8216 170.729 16.7336C171.593 17.6216 172.025 18.9896 172.025 20.8376Z" fill="#C2C2C2"/>
<path d="M3.072 90.4092L3 89.9532L4.032 89.7612C5.072 89.5692 5.872 89.1372 6.432 88.4652C6.992 87.7932 7.272 87.0892 7.272 86.3532C7.272 85.6172 7.08 85.0092 6.696 84.5292C6.328 84.0492 5.848 83.8092 5.256 83.8092C4.68 83.8092 4.232 83.9772 3.912 84.3132C3.608 84.6332 3.456 85.0412 3.456 85.5372C3.456 86.0172 3.576 86.5132 3.816 87.0252C3.544 87.2652 3.216 87.3852 2.832 87.3852C2.16 87.3852 1.824 86.9372 1.824 86.0412C1.824 85.1452 2.144 84.4652 2.784 84.0012C3.44 83.5212 4.256 83.2812 5.232 83.2812C6.208 83.2812 7.08 83.5532 7.848 84.0972C8.632 84.6252 9.024 85.3052 9.024 86.1372C9.024 86.9532 8.744 87.6972 8.184 88.3692C7.64 89.0252 6.88 89.4972 5.904 89.7852C7.152 89.9292 8.12 90.3452 8.808 91.0332C9.496 91.7052 9.84 92.4732 9.84 93.3372C9.84 94.4572 9.408 95.4252 8.544 96.2412C7.696 97.0572 6.504 97.4652 4.968 97.4652C3.768 97.4652 2.856 97.1852 2.232 96.6252C1.608 96.0492 1.296 95.3292 1.296 94.4652C1.296 93.5852 1.584 93.1452 2.16 93.1452C2.64 93.1452 3.008 93.2732 3.264 93.5292C3.056 93.9452 2.952 94.4332 2.952 94.9932C2.952 95.5532 3.12 96.0252 3.456 96.4092C3.808 96.7772 4.312 96.9612 4.968 96.9612C5.912 96.9612 6.656 96.6332 7.2 95.9772C7.744 95.3212 8.016 94.4972 8.016 93.5052C8.016 92.4972 7.664 91.7132 6.96 91.1532C6.256 90.5932 5.336 90.3132 4.2 90.3132C3.784 90.3132 3.408 90.3452 3.072 90.4092ZM16.6534 97.4652C15.1814 97.4652 13.9814 96.8412 13.0534 95.5932C12.1414 94.3292 11.6854 92.5932 11.6854 90.3852C11.6854 88.1612 12.1414 86.4252 13.0534 85.1772C13.9814 83.9132 15.1814 83.2812 16.6534 83.2812C18.1254 83.2812 19.3254 83.9132 20.2534 85.1772C21.1814 86.4252 21.6454 88.1612 21.6454 90.3852C21.6454 92.5932 21.1814 94.3292 20.2534 95.5932C19.3254 96.8412 18.1254 97.4652 16.6534 97.4652ZM14.4214 85.5852C13.8294 86.7692 13.5334 88.3692 13.5334 90.3852C13.5334 92.4012 13.8294 94.0012 14.4214 95.1852C15.0294 96.3692 15.7734 96.9612 16.6534 96.9612C17.5334 96.9612 18.2774 96.3692 18.8854 95.1852C19.4934 94.0012 19.7974 92.4012 19.7974 90.3852C19.7974 88.3692 19.4934 86.7692 18.8854 85.5852C18.2774 84.4012 17.5334 83.8092 16.6534 83.8092C15.7734 83.8092 15.0294 84.4012 14.4214 85.5852ZM25.2908 90.4092L25.2188 89.9532L26.2508 89.7612C27.2908 89.5692 28.0908 89.1372 28.6508 88.4652C29.2108 87.7932 29.4908 87.0892 29.4908 86.3532C29.4908 85.6172 29.2988 85.0092 28.9148 84.5292C28.5468 84.0492 28.0668 83.8092 27.4748 83.8092C26.8988 83.8092 26.4508 83.9772 26.1308 84.3132C25.8268 84.6332 25.6748 85.0412 25.6748 85.5372C25.6748 86.0172 25.7948 86.5132 26.0348 87.0252C25.7628 87.2652 25.4348 87.3852 25.0508 87.3852C24.3788 87.3852 24.0428 86.9372 24.0428 86.0412C24.0428 85.1452 24.3628 84.4652 25.0028 84.0012C25.6588 83.5212 26.4748 83.2812 27.4508 83.2812C28.4268 83.2812 29.2988 83.5532 30.0668 84.0972C30.8508 84.6252 31.2428 85.3052 31.2428 86.1372C31.2428 86.9532 30.9628 87.6972 30.4028 88.3692C29.8588 89.0252 29.0988 89.4972 28.1228 89.7852C29.3708 89.9292 30.3388 90.3452 31.0268 91.0332C31.7148 91.7052 32.0588 92.4732 32.0588 93.3372C32.0588 94.4572 31.6268 95.4252 30.7628 96.2412C29.9148 97.0572 28.7228 97.4652 27.1868 97.4652C25.9868 97.4652 25.0748 97.1852 24.4508 96.6252C23.8268 96.0492 23.5148 95.3292 23.5148 94.4652C23.5148 93.5852 23.8028 93.1452 24.3788 93.1452C24.8588 93.1452 25.2268 93.2732 25.4828 93.5292C25.2748 93.9452 25.1708 94.4332 25.1708 94.9932C25.1708 95.5532 25.3388 96.0252 25.6748 96.4092C26.0268 96.7772 26.5308 96.9612 27.1868 96.9612C28.1308 96.9612 28.8748 96.6332 29.4188 95.9772C29.9628 95.3212 30.2348 94.4972 30.2348 93.5052C30.2348 92.4972 29.8828 91.7132 29.1788 91.1532C28.4748 90.5932 27.5548 90.3132 26.4188 90.3132C26.0028 90.3132 25.6268 90.3452 25.2908 90.4092ZM40.1681 97.1772V96.7452H41.2961C41.5201 96.7452 41.6321 96.6492 41.6321 96.4572V82.7772C41.6321 82.5852 41.5201 82.4892 41.2961 82.4892H40.1681V82.0572H45.7841C46.9841 82.0572 48.0081 82.3852 48.8561 83.0412C49.7201 83.6972 50.1521 84.5452 50.1521 85.5852C50.1521 86.3852 49.9361 87.0892 49.5041 87.6972C49.0881 88.2892 48.5281 88.7372 47.8241 89.0412C48.8321 89.2652 49.6481 89.7212 50.2721 90.4092C50.9121 91.0972 51.2321 92.0172 51.2321 93.1692C51.2321 94.3052 50.7601 95.2572 49.8161 96.0252C48.8721 96.7932 47.7281 97.1772 46.3841 97.1772H40.1681ZM46.2641 89.4732H43.6001V96.5052H46.2641C47.2241 96.5052 47.9681 96.1532 48.4961 95.4492C49.0401 94.7452 49.3121 93.9212 49.3121 92.9772C49.3121 92.0332 49.0401 91.2172 48.4961 90.5292C47.9681 89.8252 47.2241 89.4732 46.2641 89.4732ZM45.2801 82.7292H43.6001V88.8732H45.4241C46.3681 88.8732 47.0721 88.5532 47.5361 87.9132C48.0001 87.2732 48.2321 86.5292 48.2321 85.6812C48.2321 84.8172 47.9921 84.1132 47.5121 83.5692C47.0321 83.0092 46.2881 82.7292 45.2801 82.7292ZM58.6659 86.5212C59.2899 86.5212 59.7939 86.7852 60.1779 87.3132C60.5779 87.8412 60.7779 88.5052 60.7779 89.3052C60.7779 90.1052 60.4499 90.5052 59.7939 90.5052C59.4099 90.5052 59.0979 90.3852 58.8579 90.1452C59.0659 89.6812 59.1699 89.2092 59.1699 88.7292C59.1699 87.8812 58.8179 87.4572 58.1139 87.4572C57.5219 87.4572 56.9939 87.9532 56.5299 88.9452C56.0819 89.9212 55.8579 91.3452 55.8579 93.2172V96.4092C55.8579 96.6332 55.9699 96.7452 56.1939 96.7452H57.8019V97.1772H52.6659V96.7452H53.7939C54.0179 96.7452 54.1299 96.6332 54.1299 96.4092V87.5772C54.1299 87.3532 54.0179 87.2412 53.7939 87.2412H52.6659V86.8092H53.8419C54.8019 86.8092 55.4739 86.7612 55.8579 86.6652V89.7372C56.1139 88.6332 56.4899 87.8252 56.9859 87.3132C57.4819 86.7852 58.0419 86.5212 58.6659 86.5212ZM63.1946 96.0012C62.2986 95.0252 61.8506 93.6892 61.8506 91.9932C61.8506 90.2972 62.2986 88.9612 63.1946 87.9852C64.0906 87.0092 65.2586 86.5212 66.6986 86.5212C68.1386 86.5212 69.3066 87.0092 70.2026 87.9852C71.1146 88.9612 71.5706 90.2972 71.5706 91.9932C71.5706 93.6892 71.1146 95.0252 70.2026 96.0012C69.3066 96.9772 68.1386 97.4652 66.6986 97.4652C65.2586 97.4652 64.0906 96.9772 63.1946 96.0012ZM64.5386 88.3932C63.9626 89.2732 63.6746 90.4732 63.6746 91.9932C63.6746 93.5132 63.9626 94.7212 64.5386 95.6172C65.1146 96.4972 65.8346 96.9372 66.6986 96.9372C67.5626 96.9372 68.2826 96.4972 68.8586 95.6172C69.4506 94.7212 69.7466 93.5132 69.7466 91.9932C69.7466 90.4732 69.4506 89.2732 68.8586 88.3932C68.2826 87.4972 67.5626 87.0492 66.6986 87.0492C65.8346 87.0492 65.1146 87.4972 64.5386 88.3932ZM79.4031 91.5852L79.4271 90.7452V89.9052C79.4271 88.0332 78.8191 87.0972 77.6031 87.0972C77.0751 87.0972 76.6591 87.2812 76.3551 87.6492C76.0671 88.0012 75.9231 88.4172 75.9231 88.8972C75.9231 89.3772 75.9871 89.7932 76.1151 90.1452C75.8431 90.3852 75.4671 90.5052 74.9871 90.5052C74.5071 90.5052 74.2671 90.1132 74.2671 89.3292C74.2671 88.5452 74.5711 87.8812 75.1791 87.3372C75.8031 86.7932 76.6831 86.5212 77.8191 86.5212C80.0431 86.5212 81.1551 87.8332 81.1551 90.4572V95.3772C81.1551 96.2412 81.3951 96.6732 81.8751 96.6732C82.0991 96.6732 82.2911 96.5692 82.4511 96.3612C82.6271 96.1532 82.7151 95.9132 82.7151 95.6412C82.7151 95.3692 82.6911 95.1132 82.6431 94.8732L83.0991 94.8012C83.1631 95.0412 83.1951 95.3052 83.1951 95.5932C83.1951 96.1692 83.0191 96.6252 82.6671 96.9612C82.3311 97.2972 81.8831 97.4652 81.3231 97.4652C80.7631 97.4652 80.3071 97.2412 79.9551 96.7932C79.6031 96.3292 79.4271 95.6412 79.4271 94.7292V94.2972C79.1551 95.3852 78.7231 96.1852 78.1311 96.6972C77.5391 97.2092 76.8511 97.4652 76.0671 97.4652C75.2991 97.4652 74.6751 97.2252 74.1951 96.7452C73.7311 96.2492 73.4991 95.6012 73.4991 94.8012C73.4991 93.9852 73.8751 93.2652 74.6271 92.6412C75.3791 92.0012 76.4591 91.6812 77.8671 91.6812C78.1711 91.6812 78.6831 91.7212 79.4031 91.8012V91.5852ZM76.6191 96.5532C77.2911 96.5532 77.8911 96.1772 78.4191 95.4252C78.9631 94.6572 79.2831 93.5852 79.3791 92.2092C79.2191 92.1932 78.9951 92.1852 78.7071 92.1852C77.4271 92.1852 76.5071 92.4572 75.9471 93.0012C75.4031 93.5292 75.1311 94.1452 75.1311 94.8492C75.1311 95.3132 75.2671 95.7132 75.5391 96.0492C75.8111 96.3852 76.1711 96.5532 76.6191 96.5532ZM91.6427 97.3212V95.2572C90.7467 96.7292 89.6827 97.4652 88.4507 97.4652C87.2347 97.4652 86.2747 96.9772 85.5707 96.0012C84.8667 95.0252 84.5147 93.6972 84.5147 92.0172C84.5147 90.3372 84.9627 89.0012 85.8587 88.0092C86.7547 87.0172 87.8827 86.5212 89.2427 86.5212C90.1227 86.5212 90.9227 86.7372 91.6427 87.1692V82.3932C91.6427 82.1692 91.5307 82.0572 91.3067 82.0572H90.1787V81.6252H91.3547C92.3147 81.6252 92.9867 81.5772 93.3707 81.4812V96.4092C93.3707 96.6332 93.4827 96.7452 93.7067 96.7452H94.8347V97.1772H93.6587C92.6987 97.1772 92.0267 97.2252 91.6427 97.3212ZM89.2907 87.2412C88.4747 87.2412 87.7787 87.6572 87.2027 88.4892C86.6267 89.3052 86.3387 90.4492 86.3387 91.9212C86.3387 93.3932 86.5707 94.5372 87.0347 95.3532C87.5147 96.1532 88.1147 96.5532 88.8347 96.5532C89.8747 96.5532 90.8107 95.8252 91.6427 94.3692V87.9132C90.9067 87.4652 90.1227 87.2412 89.2907 87.2412ZM106.811 86.8092H109.859V87.2412H108.971C108.827 87.2412 108.715 87.3532 108.635 87.5772L105.659 97.1772H105.011L102.587 89.7612L100.163 97.1772H99.5147L96.5387 87.5772C96.4907 87.3532 96.3787 87.2412 96.2027 87.2412H95.3147V86.8092H99.3707V87.2412H98.1707L100.331 94.6092L102.707 87.2412H103.427L105.803 94.5612L108.035 87.2412H106.811V86.8092ZM116.481 91.5852L116.505 90.7452V89.9052C116.505 88.0332 115.897 87.0972 114.681 87.0972C114.153 87.0972 113.737 87.2812 113.433 87.6492C113.145 88.0012 113.001 88.4172 113.001 88.8972C113.001 89.3772 113.065 89.7932 113.193 90.1452C112.921 90.3852 112.545 90.5052 112.065 90.5052C111.585 90.5052 111.345 90.1132 111.345 89.3292C111.345 88.5452 111.649 87.8812 112.257 87.3372C112.881 86.7932 113.761 86.5212 114.897 86.5212C117.121 86.5212 118.233 87.8332 118.233 90.4572V95.3772C118.233 96.2412 118.473 96.6732 118.953 96.6732C119.177 96.6732 119.369 96.5692 119.529 96.3612C119.705 96.1532 119.793 95.9132 119.793 95.6412C119.793 95.3692 119.769 95.1132 119.721 94.8732L120.177 94.8012C120.241 95.0412 120.273 95.3052 120.273 95.5932C120.273 96.1692 120.097 96.6252 119.745 96.9612C119.409 97.2972 118.961 97.4652 118.401 97.4652C117.841 97.4652 117.385 97.2412 117.033 96.7932C116.681 96.3292 116.505 95.6412 116.505 94.7292V94.2972C116.233 95.3852 115.801 96.1852 115.209 96.6972C114.617 97.2092 113.929 97.4652 113.145 97.4652C112.377 97.4652 111.753 97.2252 111.273 96.7452C110.809 96.2492 110.577 95.6012 110.577 94.8012C110.577 93.9852 110.953 93.2652 111.705 92.6412C112.457 92.0012 113.537 91.6812 114.945 91.6812C115.249 91.6812 115.761 91.7212 116.481 91.8012V91.5852ZM113.697 96.5532C114.369 96.5532 114.969 96.1772 115.497 95.4252C116.041 94.6572 116.361 93.5852 116.457 92.2092C116.297 92.1932 116.073 92.1852 115.785 92.1852C114.505 92.1852 113.585 92.4572 113.025 93.0012C112.481 93.5292 112.209 94.1452 112.209 94.8492C112.209 95.3132 112.345 95.7132 112.617 96.0492C112.889 96.3852 113.249 96.5532 113.697 96.5532ZM127.593 86.8092H130.641V87.2412H129.753C129.609 87.2412 129.497 87.3532 129.417 87.5772L125.265 98.6892C125.217 98.8332 125.137 99.0492 125.025 99.3372L124.761 99.9852C124.713 100.129 124.641 100.321 124.545 100.561C124.449 100.817 124.369 101.009 124.305 101.137C124.241 101.281 124.161 101.449 124.065 101.641C123.953 101.881 123.793 102.105 123.585 102.313C123.377 102.537 123.161 102.649 122.937 102.649C122.713 102.649 122.473 102.505 122.217 102.217C121.977 101.945 121.833 101.649 121.785 101.329C123.241 100.705 124.233 99.6652 124.761 98.2092L125.169 97.1052L121.617 87.5772C121.537 87.3532 121.425 87.2412 121.281 87.2412H120.393V86.8092H124.473V87.2412H123.273L126.033 94.8252L128.817 87.2412H127.593V86.8092ZM142.358 97.4652C141.302 97.4652 140.246 97.1772 139.19 96.6012C138.838 96.4252 138.598 96.3372 138.47 96.3372C138.23 96.3372 138.102 96.5052 138.086 96.8412L138.062 97.1772H137.606V93.1692H138.038C138.182 94.4012 138.638 95.3132 139.406 95.9052C140.19 96.4812 141.11 96.7692 142.166 96.7692C143.238 96.7692 144.046 96.4812 144.59 95.9052C145.15 95.3292 145.43 94.6492 145.43 93.8652C145.43 92.6172 144.71 91.6732 143.27 91.0332L140.414 89.7612C139.55 89.3772 138.902 88.8572 138.47 88.2012C138.038 87.5292 137.822 86.8092 137.822 86.0412C137.822 84.8732 138.214 83.8732 138.998 83.0412C139.782 82.1932 140.91 81.7692 142.382 81.7692C143.246 81.7692 144.134 82.0572 145.046 82.6332C145.35 82.8092 145.558 82.8972 145.67 82.8972C145.878 82.8972 145.99 82.7292 146.006 82.3932L146.03 81.9132H146.486V86.0652H146.054C145.926 84.8332 145.526 83.9292 144.854 83.3532C144.198 82.7612 143.39 82.4652 142.43 82.4652C141.486 82.4652 140.75 82.7292 140.222 83.2572C139.71 83.7692 139.454 84.3612 139.454 85.0332C139.454 85.6892 139.63 86.2812 139.982 86.8092C140.35 87.3372 140.886 87.7532 141.59 88.0572L144.47 89.3292C145.43 89.7612 146.15 90.3292 146.63 91.0332C147.126 91.7212 147.374 92.4652 147.374 93.2652C147.374 94.4012 146.918 95.3852 146.006 96.2172C145.094 97.0492 143.878 97.4652 142.358 97.4652ZM151.648 84.2652H152.008V86.8092H154.408V87.2412H152.008V95.3772C152.008 96.2412 152.248 96.6732 152.728 96.6732C152.952 96.6732 153.144 96.5692 153.304 96.3612C153.48 96.1532 153.568 95.9132 153.568 95.6412C153.568 95.3692 153.544 95.1132 153.496 94.8732L153.952 94.8012C154.016 95.0412 154.048 95.3052 154.048 95.5932C154.048 96.1692 153.872 96.6252 153.52 96.9612C153.184 97.2972 152.736 97.4652 152.176 97.4652C151.616 97.4652 151.16 97.2412 150.808 96.7932C150.456 96.3292 150.28 95.6412 150.28 94.7292V87.5772C150.28 87.3532 150.168 87.2412 149.944 87.2412H148.816V86.8092H149.992C150.504 86.8092 151.056 85.9612 151.648 84.2652ZM155.642 99.8412C156.394 99.1692 156.77 98.4812 156.77 97.7772C156.77 97.0892 156.482 96.5452 155.906 96.1452C155.922 95.7612 156.05 95.4412 156.29 95.1852C156.546 94.9132 156.85 94.7772 157.202 94.7772C158.082 94.7772 158.522 95.2572 158.522 96.2172C158.522 96.8732 158.274 97.5852 157.778 98.3532C157.298 99.1372 156.674 99.7452 155.906 100.177L155.642 99.8412ZM179.652 82.0572V82.4892H178.524C178.3 82.4892 178.188 82.5852 178.188 82.7772V92.4972C178.188 94.1612 177.708 95.4092 176.748 96.2412C175.788 97.0572 174.5 97.4652 172.884 97.4652C171.268 97.4652 169.98 97.0572 169.02 96.2412C168.06 95.4092 167.58 94.1612 167.58 92.4972V82.7772C167.58 82.5852 167.468 82.4892 167.244 82.4892H166.116V82.0572H171.012V82.4892H169.884C169.66 82.4892 169.548 82.5852 169.548 82.7772V92.6652C169.548 94.0092 169.876 95.0092 170.532 95.6652C171.204 96.3052 172.108 96.6252 173.244 96.6252C174.396 96.6252 175.372 96.3052 176.172 95.6652C176.972 95.0092 177.372 93.9532 177.372 92.4972V82.7772C177.372 82.5852 177.26 82.4892 177.036 82.4892H175.908V82.0572H179.652ZM190.848 90.1692V96.4572C190.848 96.6492 190.96 96.7452 191.184 96.7452H192.312V97.1772H187.992V96.7452H188.784C189.008 96.7452 189.12 96.6492 189.12 96.4572V89.8572C189.12 89.0412 188.936 88.4412 188.568 88.0572C188.216 87.6572 187.744 87.4572 187.152 87.4572C186.32 87.4572 185.632 87.9532 185.088 88.9452C184.544 89.9212 184.272 91.3292 184.272 93.1692V96.4092C184.272 96.6332 184.384 96.7452 184.608 96.7452H185.4V97.1772H181.08V96.7452H182.208C182.432 96.7452 182.544 96.6492 182.544 96.4572V87.5772C182.544 87.3532 182.432 87.2412 182.208 87.2412H181.08V86.8092H182.256C183.216 86.8092 183.888 86.7612 184.272 86.6652V89.9292C184.816 87.6572 186.016 86.5212 187.872 86.5212C188.704 86.5212 189.408 86.8252 189.984 87.4332C190.56 88.0252 190.848 88.9372 190.848 90.1692ZM195.692 96.4092V87.5772C195.692 87.3532 195.58 87.2412 195.356 87.2412H194.228V86.8092H195.404C196.364 86.8092 197.036 86.7612 197.42 86.6652V96.4572C197.42 96.6492 197.532 96.7452 197.756 96.7452H198.884V97.1772H194.228V96.7452H195.356C195.58 96.7452 195.692 96.6332 195.692 96.4092ZM195.74 84.1692C195.532 83.9452 195.428 83.6732 195.428 83.3532C195.428 83.0332 195.532 82.7692 195.74 82.5612C195.964 82.3372 196.236 82.2252 196.556 82.2252C196.876 82.2252 197.14 82.3372 197.348 82.5612C197.572 82.7692 197.684 83.0332 197.684 83.3532C197.684 83.6732 197.572 83.9452 197.348 84.1692C197.14 84.3772 196.876 84.4812 196.556 84.4812C196.236 84.4812 195.964 84.3772 195.74 84.1692ZM202.906 84.2652H203.266V86.8092H205.666V87.2412H203.266V95.3772C203.266 96.2412 203.506 96.6732 203.986 96.6732C204.21 96.6732 204.402 96.5692 204.562 96.3612C204.738 96.1532 204.826 95.9132 204.826 95.6412C204.826 95.3692 204.802 95.1132 204.754 94.8732L205.21 94.8012C205.274 95.0412 205.306 95.3052 205.306 95.5932C205.306 96.1692 205.13 96.6252 204.778 96.9612C204.442 97.2972 203.994 97.4652 203.434 97.4652C202.874 97.4652 202.418 97.2412 202.066 96.7932C201.714 96.3292 201.538 95.6412 201.538 94.7292V87.5772C201.538 87.3532 201.426 87.2412 201.202 87.2412H200.074V86.8092H201.25C201.762 86.8092 202.314 85.9612 202.906 84.2652ZM213.908 97.1772V96.7212H216.716C216.908 96.7212 217.02 96.6252 217.052 96.4332V85.3932C217.052 84.9932 216.812 84.7932 216.332 84.7932L213.668 84.9372L213.62 84.3612L215.804 84.0492C217.18 83.8412 218.268 83.5852 219.068 83.2812C218.908 83.8892 218.828 84.8012 218.828 86.0172V96.3852C218.828 96.6092 218.948 96.7212 219.188 96.7212H221.444V97.1772H213.908ZM228.81 97.4652C227.338 97.4652 226.138 96.8412 225.21 95.5932C224.298 94.3292 223.842 92.5932 223.842 90.3852C223.842 88.1612 224.298 86.4252 225.21 85.1772C226.138 83.9132 227.338 83.2812 228.81 83.2812C230.282 83.2812 231.482 83.9132 232.41 85.1772C233.338 86.4252 233.802 88.1612 233.802 90.3852C233.802 92.5932 233.338 94.3292 232.41 95.5932C231.482 96.8412 230.282 97.4652 228.81 97.4652ZM226.578 85.5852C225.986 86.7692 225.69 88.3692 225.69 90.3852C225.69 92.4012 225.986 94.0012 226.578 95.1852C227.186 96.3692 227.93 96.9612 228.81 96.9612C229.69 96.9612 230.434 96.3692 231.042 95.1852C231.65 94.0012 231.954 92.4012 231.954 90.3852C231.954 88.3692 231.65 86.7692 231.042 85.5852C230.434 84.4012 229.69 83.8092 228.81 83.8092C227.93 83.8092 227.186 84.4012 226.578 85.5852ZM237.447 90.4092L237.375 89.9532L238.407 89.7612C239.447 89.5692 240.247 89.1372 240.807 88.4652C241.367 87.7932 241.647 87.0892 241.647 86.3532C241.647 85.6172 241.455 85.0092 241.071 84.5292C240.703 84.0492 240.223 83.8092 239.631 83.8092C239.055 83.8092 238.607 83.9772 238.287 84.3132C237.983 84.6332 237.831 85.0412 237.831 85.5372C237.831 86.0172 237.951 86.5132 238.191 87.0252C237.919 87.2652 237.591 87.3852 237.207 87.3852C236.535 87.3852 236.199 86.9372 236.199 86.0412C236.199 85.1452 236.519 84.4652 237.159 84.0012C237.815 83.5212 238.631 83.2812 239.607 83.2812C240.583 83.2812 241.455 83.5532 242.223 84.0972C243.007 84.6252 243.399 85.3052 243.399 86.1372C243.399 86.9532 243.119 87.6972 242.559 88.3692C242.015 89.0252 241.255 89.4972 240.279 89.7852C241.527 89.9292 242.495 90.3452 243.183 91.0332C243.871 91.7052 244.215 92.4732 244.215 93.3372C244.215 94.4572 243.783 95.4252 242.919 96.2412C242.071 97.0572 240.879 97.4652 239.343 97.4652C238.143 97.4652 237.231 97.1852 236.607 96.6252C235.983 96.0492 235.671 95.3292 235.671 94.4652C235.671 93.5852 235.959 93.1452 236.535 93.1452C237.015 93.1452 237.383 93.2732 237.639 93.5292C237.431 93.9452 237.327 94.4332 237.327 94.9932C237.327 95.5532 237.495 96.0252 237.831 96.4092C238.183 96.7772 238.687 96.9612 239.343 96.9612C240.287 96.9612 241.031 96.6332 241.575 95.9772C242.119 95.3212 242.391 94.4972 242.391 93.5052C242.391 92.4972 242.039 91.7132 241.335 91.1532C240.631 90.5932 239.711 90.3132 238.575 90.3132C238.159 90.3132 237.783 90.3452 237.447 90.4092ZM246.228 99.8412C246.98 99.1692 247.356 98.4812 247.356 97.7772C247.356 97.0892 247.068 96.5452 246.492 96.1452C246.508 95.7612 246.636 95.4412 246.876 95.1852C247.132 94.9132 247.436 94.7772 247.788 94.7772C248.668 94.7772 249.108 95.2572 249.108 96.2172C249.108 96.8732 248.86 97.5852 248.364 98.3532C247.884 99.1372 247.26 99.7452 246.492 100.177L246.228 99.8412ZM256.942 97.1772V96.7452H258.07C258.294 96.7452 258.406 96.6332 258.406 96.4092V82.7772C258.406 82.5852 258.294 82.4892 258.07 82.4892H256.942V82.0572H261.838V82.4892H260.71C260.486 82.4892 260.374 82.5852 260.374 82.7772V96.5052H265.15C265.566 96.5052 265.79 96.3292 265.822 95.9772L266.182 93.1692H266.734V94.2972C266.734 95.7052 266.806 96.7372 266.95 97.3932C266.438 97.2492 265.55 97.1772 264.286 97.1772H256.942ZM273.817 91.5852L273.841 90.7452V89.9052C273.841 88.0332 273.233 87.0972 272.017 87.0972C271.489 87.0972 271.073 87.2812 270.769 87.6492C270.481 88.0012 270.337 88.4172 270.337 88.8972C270.337 89.3772 270.401 89.7932 270.529 90.1452C270.257 90.3852 269.881 90.5052 269.401 90.5052C268.921 90.5052 268.681 90.1132 268.681 89.3292C268.681 88.5452 268.985 87.8812 269.593 87.3372C270.217 86.7932 271.097 86.5212 272.233 86.5212C274.457 86.5212 275.569 87.8332 275.569 90.4572V95.3772C275.569 96.2412 275.809 96.6732 276.289 96.6732C276.513 96.6732 276.705 96.5692 276.865 96.3612C277.041 96.1532 277.129 95.9132 277.129 95.6412C277.129 95.3692 277.105 95.1132 277.057 94.8732L277.513 94.8012C277.577 95.0412 277.609 95.3052 277.609 95.5932C277.609 96.1692 277.433 96.6252 277.081 96.9612C276.745 97.2972 276.297 97.4652 275.737 97.4652C275.177 97.4652 274.721 97.2412 274.369 96.7932C274.017 96.3292 273.841 95.6412 273.841 94.7292V94.2972C273.569 95.3852 273.137 96.1852 272.545 96.6972C271.953 97.2092 271.265 97.4652 270.481 97.4652C269.713 97.4652 269.089 97.2252 268.609 96.7452C268.145 96.2492 267.913 95.6012 267.913 94.8012C267.913 93.9852 268.289 93.2652 269.041 92.6412C269.793 92.0012 270.873 91.6812 272.281 91.6812C272.585 91.6812 273.097 91.7212 273.817 91.8012V91.5852ZM271.033 96.5532C271.705 96.5532 272.305 96.1772 272.833 95.4252C273.377 94.6572 273.697 93.5852 273.793 92.2092C273.633 92.1932 273.409 92.1852 273.121 92.1852C271.841 92.1852 270.921 92.4572 270.361 93.0012C269.817 93.5292 269.545 94.1452 269.545 94.8492C269.545 95.3132 269.681 95.7132 269.953 96.0492C270.225 96.3852 270.585 96.5532 271.033 96.5532ZM288.241 87.0972L288.049 87.0732C287.905 86.0812 287.545 85.5852 286.969 85.5852C286.681 85.5852 286.417 85.7372 286.177 86.0412C285.937 86.3452 285.793 86.7452 285.745 87.2412C286.609 87.8972 287.041 88.8092 287.041 89.9772C287.041 91.1452 286.697 92.0492 286.009 92.6892C285.337 93.3132 284.457 93.6252 283.369 93.6252H281.233C280.833 93.6252 280.521 93.7372 280.297 93.9612C280.089 94.1852 279.985 94.4492 279.985 94.7532C279.985 95.0572 280.089 95.3212 280.297 95.5452C280.521 95.7692 280.833 95.8812 281.233 95.8812H285.241C286.201 95.8812 286.921 96.1052 287.401 96.5532C287.897 96.9852 288.145 97.5372 288.145 98.2092C288.145 99.2812 287.641 100.289 286.633 101.233C285.625 102.177 284.369 102.649 282.865 102.649C281.713 102.649 280.777 102.377 280.057 101.833C279.337 101.289 278.977 100.601 278.977 99.7692C278.977 98.9372 279.417 98.1372 280.297 97.3692C279.881 97.2572 279.545 97.0252 279.289 96.6732C279.049 96.3052 278.929 95.8572 278.929 95.3292C278.929 94.8012 279.121 94.3292 279.505 93.9132C279.889 93.4812 280.465 93.2652 281.233 93.2652H281.593C280.345 92.6892 279.721 91.6252 279.721 90.0732C279.721 88.9692 280.057 88.1052 280.729 87.4812C281.401 86.8412 282.281 86.5212 283.369 86.5212C284.089 86.5212 284.721 86.6652 285.265 86.9532C285.377 86.3132 285.601 85.7852 285.937 85.3692C286.289 84.9532 286.745 84.7452 287.305 84.7452C287.881 84.7452 288.353 84.8972 288.721 85.2012C289.105 85.5052 289.297 85.8332 289.297 86.1852C289.297 86.7932 288.945 87.0972 288.241 87.0972ZM285.241 97.4652H281.041C280.529 98.0572 280.273 98.7292 280.273 99.4812C280.273 100.233 280.497 100.849 280.945 101.329C281.393 101.825 282.113 102.073 283.105 102.073C284.113 102.073 285.025 101.721 285.841 101.017C286.657 100.313 287.065 99.5852 287.065 98.8332C287.065 98.4332 286.913 98.1052 286.609 97.8492C286.305 97.5932 285.849 97.4652 285.241 97.4652ZM281.977 87.8652C281.609 88.4092 281.425 89.1452 281.425 90.0732C281.425 91.0012 281.609 91.7372 281.977 92.2812C282.345 92.8252 282.809 93.0972 283.369 93.0972C283.929 93.0972 284.393 92.8252 284.761 92.2812C285.145 91.7372 285.337 91.0012 285.337 90.0732C285.337 89.1452 285.145 88.4092 284.761 87.8652C284.393 87.3212 283.929 87.0492 283.369 87.0492C282.809 87.0492 282.345 87.3212 281.977 87.8652ZM299.115 86.6652V96.4092C299.115 96.6332 299.227 96.7452 299.451 96.7452H300.579V97.1772H299.403C298.443 97.1772 297.771 97.2252 297.387 97.3212V94.0812C296.843 96.3372 295.643 97.4652 293.787 97.4652C292.955 97.4652 292.251 97.1692 291.675 96.5772C291.099 95.9692 290.811 95.0492 290.811 93.8172V87.5772C290.811 87.3532 290.699 87.2412 290.475 87.2412H289.347V86.8092H290.523C291.483 86.8092 292.155 86.7612 292.539 86.6652V94.1292C292.539 94.9452 292.715 95.5532 293.067 95.9532C293.435 96.3372 293.915 96.5292 294.507 96.5292C295.355 96.5292 296.043 96.0172 296.571 94.9932C297.115 93.9532 297.387 92.4652 297.387 90.5292V87.5772C297.387 87.3532 297.275 87.2412 297.051 87.2412H295.923V86.8092H297.099C298.059 86.8092 298.731 86.7612 299.115 86.6652ZM312.137 90.1692V96.4572C312.137 96.6492 312.249 96.7452 312.473 96.7452H313.601V97.1772H309.281V96.7452H310.073C310.297 96.7452 310.409 96.6492 310.409 96.4572V89.8572C310.409 89.0412 310.225 88.4412 309.857 88.0572C309.505 87.6572 309.033 87.4572 308.441 87.4572C307.609 87.4572 306.921 87.9532 306.377 88.9452C305.833 89.9212 305.561 91.3292 305.561 93.1692V96.4092C305.561 96.6332 305.673 96.7452 305.897 96.7452H306.689V97.1772H302.369V96.7452H303.497C303.721 96.7452 303.833 96.6492 303.833 96.4572V87.5772C303.833 87.3532 303.721 87.2412 303.497 87.2412H302.369V86.8092H303.545C304.505 86.8092 305.177 86.7612 305.561 86.6652V89.9292C306.105 87.6572 307.305 86.5212 309.161 86.5212C309.993 86.5212 310.697 86.8252 311.273 87.4332C311.849 88.0252 312.137 88.9372 312.137 90.1692ZM321.302 91.5852L321.326 90.7452V89.9052C321.326 88.0332 320.718 87.0972 319.502 87.0972C318.974 87.0972 318.558 87.2812 318.254 87.6492C317.966 88.0012 317.822 88.4172 317.822 88.8972C317.822 89.3772 317.886 89.7932 318.014 90.1452C317.742 90.3852 317.366 90.5052 316.886 90.5052C316.406 90.5052 316.166 90.1132 316.166 89.3292C316.166 88.5452 316.47 87.8812 317.078 87.3372C317.702 86.7932 318.582 86.5212 319.718 86.5212C321.942 86.5212 323.054 87.8332 323.054 90.4572V95.3772C323.054 96.2412 323.294 96.6732 323.774 96.6732C323.998 96.6732 324.19 96.5692 324.35 96.3612C324.526 96.1532 324.614 95.9132 324.614 95.6412C324.614 95.3692 324.59 95.1132 324.542 94.8732L324.998 94.8012C325.062 95.0412 325.094 95.3052 325.094 95.5932C325.094 96.1692 324.918 96.6252 324.566 96.9612C324.23 97.2972 323.782 97.4652 323.222 97.4652C322.662 97.4652 322.206 97.2412 321.854 96.7932C321.502 96.3292 321.326 95.6412 321.326 94.7292V94.2972C321.054 95.3852 320.622 96.1852 320.03 96.6972C319.438 97.2092 318.75 97.4652 317.965 97.4652C317.198 97.4652 316.574 97.2252 316.094 96.7452C315.63 96.2492 315.398 95.6012 315.398 94.8012C315.398 93.9852 315.774 93.2652 316.526 92.6412C317.278 92.0012 318.358 91.6812 319.766 91.6812C320.07 91.6812 320.582 91.7212 321.302 91.8012V91.5852ZM318.518 96.5532C319.19 96.5532 319.79 96.1772 320.318 95.4252C320.862 94.6572 321.182 93.5852 321.278 92.2092C321.118 92.1932 320.894 92.1852 320.605 92.1852C319.326 92.1852 318.406 92.4572 317.846 93.0012C317.302 93.5292 317.03 94.1452 317.03 94.8492C317.03 95.3132 317.166 95.7132 317.438 96.0492C317.71 96.3852 318.07 96.5532 318.518 96.5532ZM0.84 133.177V132.745H1.968C2.192 132.745 2.304 132.649 2.304 132.457V118.777C2.304 118.585 2.192 118.489 1.968 118.489H0.84V118.057H6.456C7.656 118.057 8.68 118.385 9.528 119.041C10.392 119.697 10.824 120.545 10.824 121.585C10.824 122.385 10.608 123.089 10.176 123.697C9.76 124.289 9.2 124.737 8.496 125.041C9.504 125.265 10.32 125.721 10.944 126.409C11.584 127.097 11.904 128.017 11.904 129.169C11.904 130.305 11.432 131.257 10.488 132.025C9.544 132.793 8.4 133.177 7.056 133.177H0.84ZM6.936 125.473H4.272V132.505H6.936C7.896 132.505 8.64 132.153 9.168 131.449C9.712 130.745 9.984 129.921 9.984 128.977C9.984 128.033 9.712 127.217 9.168 126.529C8.64 125.825 7.896 125.473 6.936 125.473ZM5.952 118.729H4.272V124.873H6.096C7.04 124.873 7.744 124.553 8.208 123.913C8.672 123.273 8.904 122.529 8.904 121.681C8.904 120.817 8.664 120.113 8.184 119.569C7.704 119.009 6.96 118.729 5.952 118.729ZM18.0658 122.521C19.1698 122.521 20.0418 122.889 20.6818 123.625C21.3218 124.361 21.6418 125.441 21.6418 126.865C21.6418 127.153 21.6258 127.473 21.5938 127.825H15.0418V127.993C15.0418 129.513 15.3138 130.713 15.8578 131.593C16.4178 132.457 17.1298 132.889 17.9938 132.889C18.8738 132.889 19.5938 132.665 20.1538 132.217C20.7138 131.769 21.0978 131.129 21.3058 130.297L21.7618 130.393C21.5698 131.369 21.1298 132.129 20.4418 132.673C19.7538 133.201 18.9618 133.465 18.0658 133.465C16.6738 133.465 15.5138 132.977 14.5858 132.001C13.6738 131.025 13.2178 129.697 13.2178 128.017C13.2178 126.321 13.6818 124.985 14.6098 124.009C15.5378 123.017 16.6898 122.521 18.0658 122.521ZM19.9858 126.049C19.9858 124.081 19.2498 123.097 17.7778 123.097C17.0418 123.097 16.4098 123.497 15.8818 124.297C15.3698 125.097 15.0978 126.113 15.0658 127.345H19.8898C19.9538 126.801 19.9858 126.369 19.9858 126.049ZM29.7156 127.585L29.7396 126.745V125.905C29.7396 124.033 29.1316 123.097 27.9156 123.097C27.3876 123.097 26.9716 123.281 26.6676 123.649C26.3796 124.001 26.2356 124.417 26.2356 124.897C26.2356 125.377 26.2996 125.793 26.4276 126.145C26.1556 126.385 25.7796 126.505 25.2996 126.505C24.8196 126.505 24.5796 126.113 24.5796 125.329C24.5796 124.545 24.8836 123.881 25.4916 123.337C26.1156 122.793 26.9956 122.521 28.1316 122.521C30.3556 122.521 31.4676 123.833 31.4676 126.457V131.377C31.4676 132.241 31.7076 132.673 32.1876 132.673C32.4116 132.673 32.6036 132.569 32.7636 132.361C32.9396 132.153 33.0276 131.913 33.0276 131.641C33.0276 131.369 33.0036 131.113 32.9556 130.873L33.4116 130.801C33.4756 131.041 33.5076 131.305 33.5076 131.593C33.5076 132.169 33.3316 132.625 32.9796 132.961C32.6436 133.297 32.1956 133.465 31.6356 133.465C31.0756 133.465 30.6196 133.241 30.2676 132.793C29.9156 132.329 29.7396 131.641 29.7396 130.729V130.297C29.4676 131.385 29.0356 132.185 28.4436 132.697C27.8516 133.209 27.1636 133.465 26.3796 133.465C25.6116 133.465 24.9876 133.225 24.5076 132.745C24.0436 132.249 23.8116 131.601 23.8116 130.801C23.8116 129.985 24.1876 129.265 24.9396 128.641C25.6916 128.001 26.7716 127.681 28.1796 127.681C28.4836 127.681 28.9956 127.721 29.7156 127.801V127.585ZM26.9316 132.553C27.6036 132.553 28.2036 132.177 28.7316 131.425C29.2756 130.657 29.5956 129.585 29.6916 128.209C29.5316 128.193 29.3076 128.185 29.0196 128.185C27.7396 128.185 26.8196 128.457 26.2596 129.001C25.7156 129.529 25.4436 130.145 25.4436 130.849C25.4436 131.313 25.5796 131.713 25.8516 132.049C26.1236 132.385 26.4836 132.553 26.9316 132.553ZM39.7232 123.097C38.8112 123.097 38.0672 123.537 37.4912 124.417C36.9312 125.281 36.6512 126.473 36.6512 127.993C36.6512 129.513 36.9232 130.713 37.4672 131.593C38.0272 132.457 38.7392 132.889 39.6032 132.889C40.4832 132.889 41.2032 132.665 41.7632 132.217C42.3232 131.769 42.7072 131.129 42.9152 130.297L43.3712 130.393C43.1792 131.369 42.7392 132.129 42.0512 132.673C41.3632 133.201 40.5712 133.465 39.6752 133.465C38.2832 133.465 37.1232 132.977 36.1952 132.001C35.2832 131.025 34.8272 129.689 34.8272 127.993C34.8272 126.297 35.2912 124.961 36.2192 123.985C37.1472 123.009 38.3152 122.521 39.7232 122.521C40.8112 122.521 41.6272 122.769 42.1712 123.265C42.7152 123.745 42.9872 124.393 42.9872 125.209C42.9872 126.265 42.6912 126.793 42.0992 126.793C41.6192 126.793 41.2352 126.665 40.9472 126.409C41.1712 125.929 41.2832 125.433 41.2832 124.921C41.2832 124.393 41.1472 123.961 40.8752 123.625C40.6192 123.273 40.2352 123.097 39.7232 123.097ZM54.4568 126.169V132.457C54.4568 132.649 54.5688 132.745 54.7928 132.745H55.9208V133.177H51.6008V132.745H52.3928C52.6168 132.745 52.7288 132.649 52.7288 132.457V125.857C52.7288 125.041 52.5448 124.441 52.1768 124.057C51.8248 123.657 51.3528 123.457 50.7608 123.457C49.9288 123.457 49.2408 123.953 48.6968 124.945C48.1528 125.921 47.8808 127.329 47.8808 129.169V132.409C47.8808 132.633 47.9928 132.745 48.2168 132.745H49.0088V133.177H44.6888V132.745H45.8168C46.0408 132.745 46.1528 132.649 46.1528 132.457V118.393C46.1528 118.169 46.0408 118.057 45.8168 118.057H44.6888V117.625H45.8648C46.8248 117.625 47.4968 117.577 47.8808 117.481V125.929C48.4248 123.657 49.6248 122.521 51.4808 122.521C52.3128 122.521 53.0168 122.825 53.5928 123.433C54.1688 124.025 54.4568 124.937 54.4568 126.169ZM57.3924 135.841C58.1444 135.169 58.5204 134.481 58.5204 133.777C58.5204 133.089 58.2324 132.545 57.6564 132.145C57.6724 131.761 57.8004 131.441 58.0404 131.185C58.2964 130.913 58.6004 130.777 58.9524 130.777C59.8324 130.777 60.2724 131.257 60.2724 132.217C60.2724 132.873 60.0244 133.585 59.5284 134.353C59.0484 135.137 58.4244 135.745 57.6564 136.177L57.3924 135.841ZM79.2416 133.177L79.2176 132.841C79.2016 132.505 79.0736 132.337 78.8336 132.337C78.7056 132.337 78.4736 132.425 78.1376 132.601C77.0976 133.177 76.0496 133.465 74.9936 133.465C72.9776 133.465 71.3216 132.769 70.0256 131.377C68.7456 129.985 68.1056 128.073 68.1056 125.641C68.1056 123.193 68.7376 121.273 70.0016 119.881C71.2816 118.473 72.9456 117.769 74.9936 117.769C76.0336 117.769 77.0736 118.033 78.1136 118.561C78.4496 118.737 78.6896 118.825 78.8336 118.825C79.0736 118.825 79.2016 118.657 79.2176 118.321L79.2416 117.913H79.6976V122.065H79.2656C79.1216 120.833 78.6576 119.929 77.8736 119.353C77.1056 118.761 76.1456 118.465 74.9936 118.465C73.5376 118.465 72.3616 119.105 71.4656 120.385C70.5856 121.665 70.1456 123.417 70.1456 125.641C70.1456 127.865 70.5936 129.609 71.4896 130.873C72.3856 132.137 73.5536 132.769 74.9936 132.769C76.1456 132.769 77.1056 132.481 77.8736 131.905C78.6576 131.313 79.1216 130.401 79.2656 129.169H79.6976V133.177H79.2416ZM94.6131 133.177H89.6931V132.745H91.2531L89.5731 128.113H84.2931L82.6131 132.745H84.1731V133.177H80.5491V132.745H81.4371C81.6611 132.745 81.8131 132.633 81.8931 132.409L87.1731 118.057H87.9891L93.2691 132.409C93.3491 132.633 93.5011 132.745 93.7251 132.745H94.6131V133.177ZM86.9571 120.889L84.5571 127.441H89.3331L86.9571 120.889ZM103.263 133.465L103.071 132.913C103.951 132.625 104.895 132.025 105.903 131.113C106.431 130.617 106.911 129.977 107.343 129.193C107.791 128.409 108.119 127.545 108.327 126.601C107.735 127.513 106.903 127.969 105.831 127.969C104.759 127.969 103.799 127.569 102.951 126.769C102.119 125.953 101.703 124.889 101.703 123.577C101.703 122.249 102.087 121.201 102.855 120.433C103.623 119.665 104.687 119.281 106.047 119.281C107.407 119.281 108.479 119.737 109.263 120.649C110.047 121.545 110.439 122.641 110.439 123.937C110.439 125.233 110.191 126.489 109.695 127.705C109.199 128.905 108.391 130.041 107.271 131.113C106.167 132.185 104.831 132.969 103.263 133.465ZM106.119 127.273C106.823 127.273 107.399 126.969 107.847 126.361C108.311 125.753 108.543 124.873 108.543 123.721C108.543 122.569 108.295 121.633 107.799 120.913C107.303 120.177 106.703 119.809 105.999 119.809C105.295 119.809 104.711 120.137 104.247 120.793C103.783 121.433 103.551 122.329 103.551 123.481C103.551 124.633 103.807 125.553 104.319 126.241C104.831 126.929 105.431 127.273 106.119 127.273ZM119.148 122.761C119.148 121.849 118.94 121.129 118.524 120.601C118.124 120.073 117.556 119.809 116.82 119.809C116.1 119.809 115.548 119.993 115.164 120.361C114.78 120.729 114.588 121.193 114.588 121.753C114.588 122.313 114.692 122.809 114.9 123.241C114.628 123.481 114.26 123.601 113.796 123.601C113.22 123.601 112.932 123.169 112.932 122.305C112.932 121.425 113.244 120.705 113.868 120.145C114.508 119.569 115.484 119.281 116.796 119.281C118.124 119.281 119.156 119.593 119.892 120.217C120.644 120.841 121.02 121.585 121.02 122.449C121.02 123.649 120.46 124.889 119.34 126.169C119.228 126.297 118.964 126.585 118.548 127.033C118.148 127.465 117.916 127.721 117.852 127.801L114.276 131.665H119.796C120.18 131.665 120.404 131.489 120.468 131.137L120.78 129.049H121.332V130.201C121.332 131.609 121.412 132.673 121.572 133.393C121.028 133.249 120.108 133.177 118.812 133.177H111.972L117.42 127.177C118.572 125.897 119.148 124.425 119.148 122.761ZM131.242 119.281L131.434 119.857C130.506 120.161 129.538 120.777 128.53 121.705C127.986 122.201 127.482 122.857 127.018 123.673C126.57 124.473 126.234 125.353 126.01 126.313C126.65 125.385 127.522 124.921 128.626 124.921C129.73 124.921 130.698 125.321 131.53 126.121C132.362 126.905 132.778 127.945 132.778 129.241C132.778 130.521 132.362 131.545 131.53 132.313C130.714 133.081 129.61 133.465 128.218 133.465C126.842 133.465 125.762 133.017 124.978 132.121C124.21 131.225 123.826 130.129 123.826 128.833C123.826 127.521 124.098 126.257 124.642 125.041C125.186 123.809 126.034 122.665 127.186 121.609C128.338 120.553 129.69 119.777 131.242 119.281ZM128.314 125.617C127.61 125.617 127.01 125.913 126.514 126.505C126.018 127.081 125.77 127.937 125.77 129.073C125.77 130.209 126.018 131.145 126.514 131.881C127.01 132.601 127.618 132.961 128.338 132.961C129.074 132.961 129.69 132.633 130.186 131.977C130.682 131.305 130.93 130.401 130.93 129.265C130.93 128.113 130.674 127.217 130.162 126.577C129.65 125.937 129.034 125.617 128.314 125.617ZM135.943 126.265L136.471 119.593H141.967C142.383 119.593 142.615 119.409 142.663 119.041L142.711 118.561H143.215L143.143 119.377C143.079 120.177 142.919 120.673 142.663 120.865C142.407 121.057 141.903 121.153 141.151 121.153H137.071L136.711 125.473C137.415 125.313 138.095 125.233 138.751 125.233C140.287 125.233 141.479 125.641 142.327 126.457C143.191 127.273 143.623 128.241 143.623 129.361C143.623 130.465 143.191 131.425 142.327 132.241C141.479 133.057 140.287 133.465 138.751 133.465C137.551 133.465 136.639 133.185 136.015 132.625C135.391 132.049 135.079 131.329 135.079 130.465C135.079 129.585 135.367 129.145 135.943 129.145C136.423 129.145 136.791 129.273 137.047 129.529C136.839 129.945 136.735 130.433 136.735 130.993C136.735 131.553 136.903 132.025 137.239 132.409C137.591 132.777 138.095 132.961 138.751 132.961C139.711 132.961 140.455 132.633 140.983 131.977C141.527 131.321 141.799 130.465 141.799 129.409C141.799 128.337 141.439 127.489 140.719 126.865C140.015 126.241 139.103 125.929 137.983 125.929C137.279 125.929 136.599 126.041 135.943 126.265ZM146.572 133.177V132.721H149.38C149.572 132.721 149.684 132.625 149.716 132.433V121.393C149.716 120.993 149.476 120.793 148.996 120.793L146.332 120.937L146.284 120.361L148.468 120.049C149.844 119.841 150.932 119.585 151.732 119.281C151.572 119.889 151.492 120.801 151.492 122.017V132.385C151.492 132.609 151.612 132.721 151.852 132.721H154.108V133.177H146.572Z" fill="#ADADAD"/>
</svg>
