<svg width="326" height="236" viewBox="0 0 326 236" fill="none" xmlns="http://www.w3.org/2000/svg">
<path d="M10.488 77.8548V84.1428C10.488 84.3348 10.6 84.4308 10.824 84.4308H11.952V84.8628H7.632V84.4308H8.424C8.648 84.4308 8.76 84.3348 8.76 84.1428V77.5428C8.76 76.7268 8.576 76.1268 8.208 75.7428C7.856 75.3428 7.384 75.1428 6.792 75.1428C5.96 75.1428 5.272 75.6388 4.728 76.6308C4.184 77.6068 3.912 79.0148 3.912 80.8548V84.0948C3.912 84.3188 4.024 84.4308 4.248 84.4308H5.04V84.8628H0.72V84.4308H1.848C2.072 84.4308 2.184 84.3348 2.184 84.1428V70.0788C2.184 69.8548 2.072 69.7428 1.848 69.7428H0.72V69.3108H1.896C2.856 69.3108 3.528 69.2628 3.912 69.1668V77.6148C4.456 75.3428 5.656 74.2068 7.512 74.2068C8.344 74.2068 9.048 74.5108 9.624 75.1188C10.2 75.7108 10.488 76.6228 10.488 77.8548ZM14.9837 83.6868C14.0877 82.7108 13.6397 81.3748 13.6397 79.6788C13.6397 77.9828 14.0877 76.6468 14.9837 75.6708C15.8797 74.6948 17.0477 74.2068 18.4877 74.2068C19.9277 74.2068 21.0957 74.6948 21.9917 75.6708C22.9037 76.6468 23.3597 77.9828 23.3597 79.6788C23.3597 81.3748 22.9037 82.7108 21.9917 83.6868C21.0957 84.6628 19.9277 85.1508 18.4877 85.1508C17.0477 85.1508 15.8797 84.6628 14.9837 83.6868ZM16.3277 76.0788C15.7517 76.9588 15.4637 78.1588 15.4637 79.6788C15.4637 81.1988 15.7517 82.4068 16.3277 83.3028C16.9037 84.1828 17.6237 84.6228 18.4877 84.6228C19.3517 84.6228 20.0717 84.1828 20.6477 83.3028C21.2397 82.4068 21.5357 81.1988 21.5357 79.6788C21.5357 78.1588 21.2397 76.9588 20.6477 76.0788C20.0717 75.1828 19.3517 74.7348 18.4877 74.7348C17.6237 74.7348 16.9037 75.1828 16.3277 76.0788ZM41.2721 77.8548V84.1428C41.2721 84.3348 41.3841 84.4308 41.6081 84.4308H42.7361V84.8628H38.4161V84.4308H39.2081C39.4321 84.4308 39.5441 84.3348 39.5441 84.1428V77.5428C39.5441 76.7268 39.3761 76.1268 39.0401 75.7428C38.7041 75.3428 38.2481 75.1428 37.6721 75.1428C36.8721 75.1428 36.2161 75.6628 35.7041 76.7028C35.1921 77.7268 34.9361 79.2068 34.9361 81.1428V84.0948C34.9361 84.3188 35.0481 84.4308 35.2721 84.4308H36.4001V84.8628H32.0801V84.4308H32.8721C33.0961 84.4308 33.2081 84.3348 33.2081 84.1428V77.5428C33.2081 76.7268 33.0401 76.1268 32.7041 75.7428C32.3681 75.3428 31.9121 75.1428 31.3361 75.1428C30.5361 75.1428 29.8801 75.6628 29.3681 76.7028C28.8561 77.7268 28.6001 79.2068 28.6001 81.1428V84.0948C28.6001 84.3188 28.7121 84.4308 28.9361 84.4308H29.7281V84.8628H25.4081V84.4308H26.5361C26.7601 84.4308 26.8721 84.3348 26.8721 84.1428V75.2628C26.8721 75.0388 26.7601 74.9268 26.5361 74.9268H25.4081V74.4948H26.5841C27.5441 74.4948 28.2161 74.4468 28.6001 74.3508V77.5668C29.1281 75.3268 30.2641 74.2068 32.0081 74.2068C32.7761 74.2068 33.4401 74.4868 34.0001 75.0468C34.5761 75.6068 34.8881 76.4548 34.9361 77.5908C35.4641 75.3348 36.6001 74.2068 38.3441 74.2068C39.1441 74.2068 39.8321 74.5108 40.4081 75.1188C40.9841 75.7108 41.2721 76.6228 41.2721 77.8548ZM49.3783 74.2068C50.4823 74.2068 51.3543 74.5748 51.9943 75.3108C52.6343 76.0468 52.9543 77.1268 52.9543 78.5508C52.9543 78.8388 52.9383 79.1588 52.9063 79.5108H46.3543V79.6788C46.3543 81.1988 46.6263 82.3988 47.1703 83.2788C47.7303 84.1428 48.4423 84.5748 49.3063 84.5748C50.1863 84.5748 50.9063 84.3508 51.4663 83.9028C52.0263 83.4548 52.4103 82.8148 52.6183 81.9828L53.0743 82.0788C52.8823 83.0548 52.4423 83.8148 51.7543 84.3588C51.0663 84.8868 50.2743 85.1508 49.3783 85.1508C47.9863 85.1508 46.8263 84.6628 45.8983 83.6868C44.9863 82.7108 44.5303 81.3828 44.5303 79.7028C44.5303 78.0068 44.9943 76.6708 45.9223 75.6948C46.8503 74.7028 48.0023 74.2068 49.3783 74.2068ZM51.2983 77.7348C51.2983 75.7668 50.5623 74.7828 49.0903 74.7828C48.3543 74.7828 47.7223 75.1828 47.1943 75.9828C46.6823 76.7828 46.4103 77.7988 46.3783 79.0308H51.2023C51.2663 78.4868 51.2983 78.0548 51.2983 77.7348ZM4.08 114.359L6.576 115.295C7.168 115.519 7.616 115.863 7.92 116.327C8.24 116.775 8.4 117.279 8.4 117.839C8.4 118.703 8.056 119.471 7.368 120.143C6.68 120.815 5.752 121.151 4.584 121.151C3.432 121.151 2.344 120.935 1.32 120.503C1.416 120.119 1.464 119.447 1.464 118.487V117.527H1.896L2.064 118.775C2.208 119.975 3.048 120.575 4.584 120.575C5.272 120.575 5.84 120.367 6.288 119.951C6.752 119.519 6.984 119.031 6.984 118.487C6.984 117.735 6.528 117.191 5.616 116.855L3.12 115.919C2.56 115.711 2.136 115.383 1.848 114.935C1.56 114.487 1.416 113.983 1.416 113.423C1.416 112.575 1.72 111.831 2.328 111.191C2.936 110.535 3.696 110.207 4.608 110.207C5.536 110.207 6.576 110.423 7.728 110.855C7.632 111.239 7.584 111.911 7.584 112.871V113.831H7.152L6.984 112.583C6.856 111.431 6.128 110.855 4.8 110.855C4.208 110.855 3.72 111.039 3.336 111.407C2.952 111.775 2.76 112.207 2.76 112.703C2.76 113.471 3.2 114.023 4.08 114.359ZM19.9568 113.855V120.143C19.9568 120.335 20.0688 120.431 20.2928 120.431H21.4208V120.863H17.1008V120.431H17.8928C18.1168 120.431 18.2288 120.335 18.2288 120.143V113.543C18.2288 112.727 18.0448 112.127 17.6768 111.743C17.3248 111.343 16.8528 111.143 16.2608 111.143C15.4288 111.143 14.7408 111.639 14.1968 112.631C13.6528 113.607 13.3808 115.015 13.3808 116.855V120.095C13.3808 120.319 13.4928 120.431 13.7168 120.431H14.5088V120.863H10.1888V120.431H11.3168C11.5408 120.431 11.6528 120.335 11.6528 120.143V106.079C11.6528 105.855 11.5408 105.743 11.3168 105.743H10.1888V105.311H11.3648C12.3248 105.311 12.9968 105.263 13.3808 105.167V113.615C13.9248 111.343 15.1248 110.207 16.9808 110.207C17.8128 110.207 18.5168 110.511 19.0928 111.119C19.6688 111.711 19.9568 112.623 19.9568 113.855ZM24.4524 119.687C23.5564 118.711 23.1084 117.375 23.1084 115.679C23.1084 113.983 23.5564 112.647 24.4524 111.671C25.3484 110.695 26.5164 110.207 27.9564 110.207C29.3964 110.207 30.5644 110.695 31.4604 111.671C32.3724 112.647 32.8284 113.983 32.8284 115.679C32.8284 117.375 32.3724 118.711 31.4604 119.687C30.5644 120.663 29.3964 121.151 27.9564 121.151C26.5164 121.151 25.3484 120.663 24.4524 119.687ZM25.7964 112.079C25.2204 112.959 24.9324 114.159 24.9324 115.679C24.9324 117.199 25.2204 118.407 25.7964 119.303C26.3724 120.183 27.0924 120.623 27.9564 120.623C28.8204 120.623 29.5404 120.183 30.1164 119.303C30.7084 118.407 31.0044 117.199 31.0044 115.679C31.0044 114.159 30.7084 112.959 30.1164 112.079C29.5404 111.183 28.8204 110.735 27.9564 110.735C27.0924 110.735 26.3724 111.183 25.7964 112.079ZM35.9809 125.279V111.263C35.9809 111.039 35.8689 110.927 35.6449 110.927H34.5169V110.495H35.6929C36.6529 110.495 37.3249 110.447 37.7089 110.351V113.711C37.9809 112.559 38.4129 111.687 39.0049 111.095C39.6129 110.503 40.2849 110.207 41.0209 110.207C42.0289 110.207 42.9169 110.711 43.6849 111.719C44.4529 112.727 44.8369 114.063 44.8369 115.727C44.8369 117.391 44.3969 118.711 43.5169 119.687C42.6529 120.663 41.5169 121.151 40.1089 121.151C39.2289 121.151 38.4289 120.935 37.7089 120.503V125.279C37.7089 125.503 37.8209 125.615 38.0449 125.615H39.6529V126.047H34.5169V125.615H35.6449C35.8689 125.615 35.9809 125.503 35.9809 125.279ZM43.0129 115.775C43.0129 114.287 42.7809 113.143 42.3169 112.343C41.8529 111.527 41.2609 111.119 40.5409 111.119C39.8369 111.119 39.1889 111.591 38.5969 112.535C38.0049 113.479 37.7089 114.839 37.7089 116.615V119.855C38.4129 120.319 39.1809 120.551 40.0129 120.551C40.8609 120.551 41.5729 120.127 42.1489 119.279C42.7249 118.431 43.0129 117.263 43.0129 115.775ZM6.864 151.271L6.888 150.431V149.591C6.888 147.719 6.28 146.783 5.064 146.783C4.536 146.783 4.12 146.967 3.816 147.335C3.528 147.687 3.384 148.103 3.384 148.583C3.384 149.063 3.448 149.479 3.576 149.831C3.304 150.071 2.928 150.191 2.448 150.191C1.968 150.191 1.728 149.799 1.728 149.015C1.728 148.231 2.032 147.567 2.64 147.023C3.264 146.479 4.144 146.207 5.28 146.207C7.504 146.207 8.616 147.519 8.616 150.143V155.063C8.616 155.927 8.856 156.359 9.336 156.359C9.56 156.359 9.752 156.255 9.912 156.047C10.088 155.839 10.176 155.599 10.176 155.327C10.176 155.055 10.152 154.799 10.104 154.559L10.56 154.487C10.624 154.727 10.656 154.991 10.656 155.279C10.656 155.855 10.48 156.311 10.128 156.647C9.792 156.983 9.344 157.151 8.784 157.151C8.224 157.151 7.768 156.927 7.416 156.479C7.064 156.015 6.888 155.327 6.888 154.415V153.983C6.616 155.071 6.184 155.871 5.592 156.383C5 156.895 4.312 157.151 3.528 157.151C2.76 157.151 2.136 156.911 1.656 156.431C1.192 155.935 0.96 155.287 0.96 154.487C0.96 153.671 1.336 152.951 2.088 152.327C2.84 151.687 3.92 151.367 5.328 151.367C5.632 151.367 6.144 151.407 6.864 151.487V151.271ZM4.08 156.239C4.752 156.239 5.352 155.863 5.88 155.111C6.424 154.343 6.744 153.271 6.84 151.895C6.68 151.879 6.456 151.871 6.168 151.871C4.888 151.871 3.968 152.143 3.408 152.687C2.864 153.215 2.592 153.831 2.592 154.535C2.592 154.999 2.728 155.399 3 155.735C3.272 156.071 3.632 156.239 4.08 156.239ZM20.6156 155.687C19.7516 156.663 18.6156 157.151 17.2076 157.151C15.7996 157.151 14.6236 156.623 13.6796 155.567L13.4876 157.055H13.0796V142.079C13.0796 141.855 12.9676 141.743 12.7436 141.743H11.6156V141.311H12.7916C13.7516 141.311 14.4236 141.263 14.8076 141.167V149.711C15.0796 148.559 15.5116 147.687 16.1036 147.095C16.7116 146.503 17.3836 146.207 18.1196 146.207C19.1276 146.207 20.0156 146.711 20.7836 147.719C21.5516 148.727 21.9356 150.063 21.9356 151.727C21.9356 153.391 21.4956 154.711 20.6156 155.687ZM17.7596 147.119C16.9596 147.119 16.2636 147.615 15.6716 148.607C15.0956 149.599 14.8076 151.031 14.8076 152.903V155.879C15.4796 156.327 16.2396 156.551 17.0876 156.551C17.9516 156.551 18.6716 156.127 19.2476 155.279C19.8236 154.431 20.1116 153.263 20.1116 151.775C20.1116 150.287 19.8796 149.143 19.4156 148.343C18.9516 147.527 18.3996 147.119 17.7596 147.119ZM25.2024 155.687C24.3064 154.711 23.8584 153.375 23.8584 151.679C23.8584 149.983 24.3064 148.647 25.2024 147.671C26.0984 146.695 27.2664 146.207 28.7064 146.207C30.1464 146.207 31.3144 146.695 32.2104 147.671C33.1224 148.647 33.5784 149.983 33.5784 151.679C33.5784 153.375 33.1224 154.711 32.2104 155.687C31.3144 156.663 30.1464 157.151 28.7064 157.151C27.2664 157.151 26.0984 156.663 25.2024 155.687ZM26.5464 148.079C25.9704 148.959 25.6824 150.159 25.6824 151.679C25.6824 153.199 25.9704 154.407 26.5464 155.303C27.1224 156.183 27.8424 156.623 28.7064 156.623C29.5704 156.623 30.2904 156.183 30.8664 155.303C31.4584 154.407 31.7544 153.199 31.7544 151.679C31.7544 150.159 31.4584 148.959 30.8664 148.079C30.2904 147.183 29.5704 146.735 28.7064 146.735C27.8424 146.735 27.1224 147.183 26.5464 148.079ZM44.7949 146.351V156.095C44.7949 156.319 44.9069 156.431 45.1309 156.431H46.2589V156.863H45.0829C44.1229 156.863 43.4509 156.911 43.0669 157.007V153.767C42.5229 156.023 41.3229 157.151 39.4669 157.151C38.6349 157.151 37.9309 156.855 37.3549 156.263C36.7789 155.655 36.4909 154.735 36.4909 153.503V147.263C36.4909 147.039 36.3789 146.927 36.1549 146.927H35.0269V146.495H36.2029C37.1629 146.495 37.8349 146.447 38.2189 146.351V153.815C38.2189 154.631 38.3949 155.239 38.7469 155.639C39.1149 156.023 39.5949 156.215 40.1869 156.215C41.0349 156.215 41.7229 155.703 42.2509 154.679C42.7949 153.639 43.0669 152.151 43.0669 150.215V147.263C43.0669 147.039 42.9549 146.927 42.7309 146.927H41.6029V146.495H42.7789C43.7389 146.495 44.4109 146.447 44.7949 146.351ZM50.2808 143.951H50.6408V146.495H53.0408V146.927H50.6408V155.063C50.6408 155.927 50.8808 156.359 51.3608 156.359C51.5848 156.359 51.7768 156.255 51.9368 156.047C52.1128 155.839 52.2008 155.599 52.2008 155.327C52.2008 155.055 52.1768 154.799 52.1288 154.559L52.5848 154.487C52.6488 154.727 52.6808 154.991 52.6808 155.279C52.6808 155.855 52.5048 156.311 52.1528 156.647C51.8168 156.983 51.3688 157.151 50.8088 157.151C50.2488 157.151 49.7928 156.927 49.4408 156.479C49.0888 156.015 48.9128 155.327 48.9128 154.415V147.263C48.9128 147.039 48.8008 146.927 48.5768 146.927H47.4488V146.495H48.6248C49.1368 146.495 49.6888 145.647 50.2808 143.951ZM10.272 182.783L10.08 182.759C9.936 181.767 9.576 181.271 9 181.271C8.712 181.271 8.448 181.423 8.208 181.727C7.968 182.031 7.824 182.431 7.776 182.927C8.64 183.583 9.072 184.495 9.072 185.663C9.072 186.831 8.728 187.735 8.04 188.375C7.368 188.999 6.488 189.311 5.4 189.311H3.264C2.864 189.311 2.552 189.423 2.328 189.647C2.12 189.871 2.016 190.135 2.016 190.439C2.016 190.743 2.12 191.007 2.328 191.231C2.552 191.455 2.864 191.567 3.264 191.567H7.272C8.232 191.567 8.952 191.791 9.432 192.239C9.928 192.671 10.176 193.223 10.176 193.895C10.176 194.967 9.672 195.975 8.664 196.919C7.656 197.863 6.4 198.335 4.896 198.335C3.744 198.335 2.808 198.063 2.088 197.519C1.368 196.975 1.008 196.287 1.008 195.455C1.008 194.623 1.448 193.823 2.328 193.055C1.912 192.943 1.576 192.711 1.32 192.359C1.08 191.991 0.96 191.543 0.96 191.015C0.96 190.487 1.152 190.015 1.536 189.599C1.92 189.167 2.496 188.951 3.264 188.951H3.624C2.376 188.375 1.752 187.311 1.752 185.759C1.752 184.655 2.088 183.791 2.76 183.167C3.432 182.527 4.312 182.207 5.4 182.207C6.12 182.207 6.752 182.351 7.296 182.639C7.408 181.999 7.632 181.471 7.968 181.055C8.32 180.639 8.776 180.431 9.336 180.431C9.912 180.431 10.384 180.583 10.752 180.887C11.136 181.191 11.328 181.519 11.328 181.871C11.328 182.479 10.976 182.783 10.272 182.783ZM7.272 193.151H3.072C2.56 193.743 2.304 194.415 2.304 195.167C2.304 195.919 2.528 196.535 2.976 197.015C3.424 197.511 4.144 197.759 5.136 197.759C6.144 197.759 7.056 197.407 7.872 196.703C8.688 195.999 9.096 195.271 9.096 194.519C9.096 194.119 8.944 193.791 8.64 193.535C8.336 193.279 7.88 193.151 7.272 193.151ZM4.008 183.551C3.64 184.095 3.456 184.831 3.456 185.759C3.456 186.687 3.64 187.423 4.008 187.967C4.376 188.511 4.84 188.783 5.4 188.783C5.96 188.783 6.424 188.511 6.792 187.967C7.176 187.423 7.368 186.687 7.368 185.759C7.368 184.831 7.176 184.095 6.792 183.551C6.424 183.007 5.96 182.735 5.4 182.735C4.84 182.735 4.376 183.007 4.008 183.551ZM17.7624 187.271L17.7864 186.431V185.591C17.7864 183.719 17.1784 182.783 15.9624 182.783C15.4344 182.783 15.0184 182.967 14.7144 183.335C14.4264 183.687 14.2824 184.103 14.2824 184.583C14.2824 185.063 14.3464 185.479 14.4744 185.831C14.2024 186.071 13.8264 186.191 13.3464 186.191C12.8664 186.191 12.6264 185.799 12.6264 185.015C12.6264 184.231 12.9304 183.567 13.5384 183.023C14.1624 182.479 15.0424 182.207 16.1784 182.207C18.4024 182.207 19.5144 183.519 19.5144 186.143V191.063C19.5144 191.927 19.7544 192.359 20.2344 192.359C20.4584 192.359 20.6504 192.255 20.8104 192.047C20.9864 191.839 21.0744 191.599 21.0744 191.327C21.0744 191.055 21.0504 190.799 21.0024 190.559L21.4584 190.487C21.5224 190.727 21.5544 190.991 21.5544 191.279C21.5544 191.855 21.3784 192.311 21.0264 192.647C20.6904 192.983 20.2424 193.151 19.6824 193.151C19.1224 193.151 18.6664 192.927 18.3144 192.479C17.9624 192.015 17.7864 191.327 17.7864 190.415V189.983C17.5144 191.071 17.0824 191.871 16.4904 192.383C15.8984 192.895 15.2104 193.151 14.4264 193.151C13.6584 193.151 13.0344 192.911 12.5544 192.431C12.0904 191.935 11.8584 191.287 11.8584 190.487C11.8584 189.671 12.2344 188.951 12.9864 188.327C13.7384 187.687 14.8184 187.367 16.2264 187.367C16.5304 187.367 17.0424 187.407 17.7624 187.487V187.271ZM14.9784 192.239C15.6504 192.239 16.2504 191.863 16.7784 191.111C17.3224 190.343 17.6424 189.271 17.7384 187.895C17.5784 187.879 17.3544 187.871 17.0664 187.871C15.7864 187.871 14.8664 188.143 14.3064 188.687C13.7624 189.215 13.4904 189.831 13.4904 190.535C13.4904 190.999 13.6264 191.399 13.8984 191.735C14.1704 192.071 14.5304 192.239 14.9784 192.239ZM24.0981 192.095V178.079C24.0981 177.855 23.9861 177.743 23.7621 177.743H22.6341V177.311H23.8101C24.7701 177.311 25.4421 177.263 25.8261 177.167V192.095C25.8261 192.319 25.9381 192.431 26.1621 192.431H27.2901V192.863H22.6341V192.431H23.7621C23.9861 192.431 24.0981 192.319 24.0981 192.095ZM30.1918 192.095V178.079C30.1918 177.855 30.0798 177.743 29.8558 177.743H28.7278V177.311H29.9038C30.8638 177.311 31.5358 177.263 31.9198 177.167V192.095C31.9198 192.319 32.0318 192.431 32.2558 192.431H33.3838V192.863H28.7278V192.431H29.8558C30.0798 192.431 30.1918 192.319 30.1918 192.095ZM39.9096 182.207C41.0136 182.207 41.8856 182.575 42.5256 183.311C43.1656 184.047 43.4856 185.127 43.4856 186.551C43.4856 186.839 43.4696 187.159 43.4376 187.511H36.8856V187.679C36.8856 189.199 37.1576 190.399 37.7016 191.279C38.2616 192.143 38.9736 192.575 39.8376 192.575C40.7176 192.575 41.4376 192.351 41.9976 191.903C42.5576 191.455 42.9416 190.815 43.1496 189.983L43.6056 190.079C43.4136 191.055 42.9736 191.815 42.2856 192.359C41.5976 192.887 40.8056 193.151 39.9096 193.151C38.5176 193.151 37.3576 192.663 36.4296 191.687C35.5176 190.711 35.0616 189.383 35.0616 187.703C35.0616 186.007 35.5256 184.671 36.4536 183.695C37.3816 182.703 38.5336 182.207 39.9096 182.207ZM41.8296 185.735C41.8296 183.767 41.0936 182.783 39.6216 182.783C38.8856 182.783 38.2536 183.183 37.7256 183.983C37.2136 184.783 36.9416 185.799 36.9096 187.031H41.7336C41.7976 186.487 41.8296 186.055 41.8296 185.735ZM51.7753 182.207C52.3993 182.207 52.9033 182.471 53.2873 182.999C53.6873 183.527 53.8873 184.191 53.8873 184.991C53.8873 185.791 53.5593 186.191 52.9033 186.191C52.5193 186.191 52.2073 186.071 51.9673 185.831C52.1753 185.367 52.2793 184.895 52.2793 184.415C52.2793 183.567 51.9273 183.143 51.2233 183.143C50.6313 183.143 50.1033 183.639 49.6393 184.631C49.1913 185.607 48.9673 187.031 48.9673 188.903V192.095C48.9673 192.319 49.0793 192.431 49.3033 192.431H50.9113V192.863H45.7753V192.431H46.9033C47.1273 192.431 47.2393 192.319 47.2393 192.095V183.263C47.2393 183.039 47.1273 182.927 46.9033 182.927H45.7753V182.495H46.9513C47.9113 182.495 48.5833 182.447 48.9673 182.351V185.423C49.2233 184.319 49.5993 183.511 50.0953 182.999C50.5913 182.471 51.1513 182.207 51.7753 182.207ZM60.96 182.495H64.008V182.927H63.12C62.976 182.927 62.864 183.039 62.784 183.263L58.632 194.375C58.584 194.519 58.504 194.735 58.392 195.023L58.128 195.671C58.08 195.815 58.008 196.007 57.912 196.247C57.816 196.503 57.736 196.695 57.672 196.823C57.608 196.967 57.528 197.135 57.432 197.327C57.32 197.567 57.16 197.791 56.952 197.999C56.744 198.223 56.528 198.335 56.304 198.335C56.08 198.335 55.84 198.191 55.584 197.903C55.344 197.631 55.2 197.335 55.152 197.015C56.608 196.391 57.6 195.351 58.128 193.895L58.536 192.791L54.984 183.263C54.904 183.039 54.792 182.927 54.648 182.927H53.76V182.495H57.84V182.927H56.64L59.4 190.511L62.184 182.927H60.96V182.495Z" fill="#A2A2A2"/>
<path d="M4.27606 37.7544V16.7304C4.27606 16.3944 4.10806 16.2264 3.77206 16.2264H2.08006V15.5784H3.84406C5.28406 15.5784 6.29206 15.5064 6.86806 15.3624V20.4024C7.27606 18.6744 7.92406 17.3664 8.81206 16.4784C9.72406 15.5904 10.7321 15.1464 11.8361 15.1464C13.3481 15.1464 14.6801 15.9024 15.8321 17.4144C16.9841 18.9264 17.5601 20.9304 17.5601 23.4264C17.5601 25.9224 16.9001 27.9024 15.5801 29.3664C14.2841 30.8304 12.5801 31.5624 10.4681 31.5624C9.14806 31.5624 7.94806 31.2384 6.86806 30.5904V37.7544C6.86806 38.0904 7.03606 38.2584 7.37206 38.2584H9.78406V38.9064H2.08006V38.2584H3.77206C4.10806 38.2584 4.27606 38.0904 4.27606 37.7544ZM14.8241 23.4984C14.8241 21.2664 14.4761 19.5504 13.7801 18.3504C13.0841 17.1264 12.1961 16.5144 11.1161 16.5144C10.0601 16.5144 9.08806 17.2224 8.20006 18.6384C7.31206 20.0544 6.86806 22.0944 6.86806 24.7584V29.6184C7.92406 30.3144 9.07606 30.6624 10.3241 30.6624C11.5961 30.6624 12.6641 30.0264 13.5281 28.7544C14.3921 27.4824 14.8241 25.7304 14.8241 23.4984ZM37.9361 22.7424L37.9721 21.4824V20.2224C37.9721 17.4144 37.0601 16.0104 35.2361 16.0104C34.4441 16.0104 33.8201 16.2864 33.3641 16.8384C32.9321 17.3664 32.7161 17.9904 32.7161 18.7104C32.7161 19.4304 32.8121 20.0544 33.0041 20.5824C32.5961 20.9424 32.0321 21.1224 31.3121 21.1224C30.5921 21.1224 30.2321 20.5344 30.2321 19.3584C30.2321 18.1824 30.6881 17.1864 31.6001 16.3704C32.5361 15.5544 33.8561 15.1464 35.5601 15.1464C38.8961 15.1464 40.5641 17.1144 40.5641 21.0504V28.4304C40.5641 29.7264 40.9241 30.3744 41.6441 30.3744C41.9801 30.3744 42.2681 30.2184 42.5081 29.9064C42.7721 29.5944 42.9041 29.2344 42.9041 28.8264C42.9041 28.4184 42.8681 28.0344 42.7961 27.6744L43.4801 27.5664C43.5761 27.9264 43.6241 28.3224 43.6241 28.7544C43.6241 29.6184 43.3601 30.3024 42.8321 30.8064C42.3281 31.3104 41.6561 31.5624 40.8161 31.5624C39.9761 31.5624 39.2921 31.2264 38.7641 30.5544C38.2361 29.8584 37.9721 28.8264 37.9721 27.4584V26.8104C37.5641 28.4424 36.9161 29.6424 36.0281 30.4104C35.1401 31.1784 34.1081 31.5624 32.9321 31.5624C31.7801 31.5624 30.8441 31.2024 30.1241 30.4824C29.4281 29.7384 29.0801 28.7664 29.0801 27.5664C29.0801 26.3424 29.6441 25.2624 30.7721 24.3264C31.9001 23.3664 33.5201 22.8864 35.6321 22.8864C36.0881 22.8864 36.8561 22.9464 37.9361 23.0664V22.7424ZM33.7601 30.1944C34.7681 30.1944 35.6681 29.6304 36.4601 28.5024C37.2761 27.3504 37.7561 25.7424 37.9001 23.6784C37.6601 23.6544 37.3241 23.6424 36.8921 23.6424C34.9721 23.6424 33.5921 24.0504 32.7521 24.8664C31.9361 25.6584 31.5281 26.5824 31.5281 27.6384C31.5281 28.3344 31.7321 28.9344 32.1401 29.4384C32.5481 29.9424 33.0881 30.1944 33.7601 30.1944ZM68.2115 16.0104L67.9235 15.9744C67.7075 14.4864 67.1675 13.7424 66.3035 13.7424C65.8715 13.7424 65.4755 13.9704 65.1155 14.4264C64.7555 14.8824 64.5395 15.4824 64.4675 16.2264C65.7635 17.2104 66.4115 18.5784 66.4115 20.3304C66.4115 22.0824 65.8955 23.4384 64.8635 24.3984C63.8555 25.3344 62.5355 25.8024 60.9035 25.8024H57.6995C57.0995 25.8024 56.6315 25.9704 56.2955 26.3064C55.9835 26.6424 55.8275 27.0384 55.8275 27.4944C55.8275 27.9504 55.9835 28.3464 56.2955 28.6824C56.6315 29.0184 57.0995 29.1864 57.6995 29.1864H63.7115C65.1515 29.1864 66.2315 29.5224 66.9515 30.1944C67.6955 30.8424 68.0675 31.6704 68.0675 32.6784C68.0675 34.2864 67.3115 35.7984 65.7995 37.2144C64.2875 38.6304 62.4035 39.3384 60.1475 39.3384C58.4195 39.3384 57.0155 38.9304 55.9355 38.1144C54.8555 37.2984 54.3155 36.2664 54.3155 35.0184C54.3155 33.7704 54.9755 32.5704 56.2955 31.4184C55.6715 31.2504 55.1675 30.9024 54.7835 30.3744C54.4235 29.8224 54.2435 29.1504 54.2435 28.3584C54.2435 27.5664 54.5315 26.8584 55.1075 26.2344C55.6835 25.5864 56.5475 25.2624 57.6995 25.2624H58.2395C56.3675 24.3984 55.4315 22.8024 55.4315 20.4744C55.4315 18.8184 55.9355 17.5224 56.9435 16.5864C57.9515 15.6264 59.2715 15.1464 60.9035 15.1464C61.9835 15.1464 62.9315 15.3624 63.7475 15.7944C63.9155 14.8344 64.2515 14.0424 64.7555 13.4184C65.2835 12.7944 65.9675 12.4824 66.8075 12.4824C67.6715 12.4824 68.3795 12.7104 68.9315 13.1664C69.5075 13.6224 69.7955 14.1144 69.7955 14.6424C69.7955 15.5544 69.2675 16.0104 68.2115 16.0104ZM63.7115 31.5624H57.4115C56.6435 32.4504 56.2595 33.4584 56.2595 34.5864C56.2595 35.7144 56.5955 36.6384 57.2675 37.3584C57.9395 38.1024 59.0195 38.4744 60.5075 38.4744C62.0195 38.4744 63.3875 37.9464 64.6115 36.8904C65.8355 35.8344 66.4475 34.7424 66.4475 33.6144C66.4475 33.0144 66.2195 32.5224 65.7635 32.1384C65.3075 31.7544 64.6235 31.5624 63.7115 31.5624ZM58.8155 17.1624C58.2635 17.9784 57.9875 19.0824 57.9875 20.4744C57.9875 21.8664 58.2635 22.9704 58.8155 23.7864C59.3675 24.6024 60.0635 25.0104 60.9035 25.0104C61.7435 25.0104 62.4395 24.6024 62.9915 23.7864C63.5675 22.9704 63.8555 21.8664 63.8555 20.4744C63.8555 19.0824 63.5675 17.9784 62.9915 17.1624C62.4395 16.3464 61.7435 15.9384 60.9035 15.9384C60.0635 15.9384 59.3675 16.3464 58.8155 17.1624ZM86.5032 15.1464C88.1592 15.1464 89.4672 15.6984 90.4272 16.8024C91.3872 17.9064 91.8672 19.5264 91.8672 21.6624C91.8672 22.0944 91.8432 22.5744 91.7952 23.1024H81.9672V23.3544C81.9672 25.6344 82.3752 27.4344 83.1912 28.7544C84.0312 30.0504 85.0992 30.6984 86.3952 30.6984C87.7152 30.6984 88.7952 30.3624 89.6352 29.6904C90.4752 29.0184 91.0512 28.0584 91.3632 26.8104L92.0472 26.9544C91.7592 28.4184 91.0992 29.5584 90.0672 30.3744C89.0352 31.1664 87.8472 31.5624 86.5032 31.5624C84.4152 31.5624 82.6752 30.8304 81.2832 29.3664C79.9152 27.9024 79.2312 25.9104 79.2312 23.3904C79.2312 20.8464 79.9272 18.8424 81.3192 17.3784C82.7112 15.8904 84.4392 15.1464 86.5032 15.1464ZM89.3832 20.4384C89.3832 17.4864 88.2792 16.0104 86.0712 16.0104C84.9672 16.0104 84.0192 16.6104 83.2272 17.8104C82.4592 19.0104 82.0512 20.5344 82.0032 22.3824H89.2392C89.3352 21.5664 89.3832 20.9184 89.3832 20.4384ZM108.442 21.3744L112.186 22.7784C113.074 23.1144 113.746 23.6304 114.202 24.3264C114.682 24.9984 114.922 25.7544 114.922 26.5944C114.922 27.8904 114.406 29.0424 113.374 30.0504C112.342 31.0584 110.95 31.5624 109.198 31.5624C107.47 31.5624 105.838 31.2384 104.302 30.5904C104.446 30.0144 104.518 29.0064 104.518 27.5664V26.1264H105.166L105.418 27.9984C105.634 29.7984 106.894 30.6984 109.198 30.6984C110.23 30.6984 111.082 30.3864 111.754 29.7624C112.45 29.1144 112.798 28.3824 112.798 27.5664C112.798 26.4384 112.114 25.6224 110.746 25.1184L107.002 23.7144C106.162 23.4024 105.526 22.9104 105.094 22.2384C104.662 21.5664 104.446 20.8104 104.446 19.9704C104.446 18.6984 104.902 17.5824 105.814 16.6224C106.726 15.6384 107.866 15.1464 109.234 15.1464C110.626 15.1464 112.186 15.4704 113.914 16.1184C113.77 16.6944 113.698 17.7024 113.698 19.1424V20.5824H113.05L112.798 18.7104C112.606 16.9824 111.514 16.1184 109.522 16.1184C108.634 16.1184 107.902 16.3944 107.326 16.9464C106.75 17.4984 106.462 18.1464 106.462 18.8904C106.462 20.0424 107.122 20.8704 108.442 21.3744Z" fill="#C2C2C2"/>
</svg>
