<svg width="326" height="236" viewBox="0 0 326 236" fill="none" xmlns="http://www.w3.org/2000/svg">
<path d="M4.272 72.1246V75.0046H6.672V75.4366H4.272V84.6526C4.272 84.8446 4.4 84.9406 4.656 84.9406H6.216V85.3726H1.08V84.9406H2.208C2.432 84.9406 2.544 84.8286 2.544 84.6046V75.7726C2.544 75.5486 2.432 75.4366 2.208 75.4366H1.08V75.0046H2.568C2.664 73.1486 3.008 71.7726 3.6 70.8766C4.208 69.9806 4.928 69.5326 5.76 69.5326C6.608 69.5326 7.224 69.7406 7.608 70.1566C7.992 70.5566 8.184 70.9886 8.184 71.4526C8.184 72.4126 7.904 72.8926 7.344 72.8926C6.88 72.8926 6.504 72.7726 6.216 72.5326C6.456 72.0526 6.576 71.6286 6.576 71.2606C6.576 70.4766 6.248 70.0846 5.592 70.0846C4.712 70.0846 4.272 70.7646 4.272 72.1246ZM14.0359 79.7806L14.0599 78.9406V78.1006C14.0599 76.2286 13.4519 75.2926 12.2359 75.2926C11.7079 75.2926 11.2919 75.4766 10.9879 75.8446C10.6999 76.1966 10.5559 76.6126 10.5559 77.0926C10.5559 77.5726 10.6199 77.9886 10.7479 78.3406C10.4759 78.5806 10.0999 78.7006 9.61988 78.7006C9.13988 78.7006 8.89988 78.3086 8.89988 77.5246C8.89988 76.7406 9.20388 76.0766 9.81188 75.5326C10.4359 74.9886 11.3159 74.7166 12.4519 74.7166C14.6759 74.7166 15.7879 76.0286 15.7879 78.6526V83.5726C15.7879 84.4366 16.0279 84.8686 16.5079 84.8686C16.7319 84.8686 16.9239 84.7646 17.0839 84.5566C17.2599 84.3486 17.3479 84.1086 17.3479 83.8366C17.3479 83.5646 17.3239 83.3086 17.2759 83.0686L17.7319 82.9966C17.7959 83.2366 17.8279 83.5006 17.8279 83.7886C17.8279 84.3646 17.6519 84.8206 17.2999 85.1566C16.9639 85.4926 16.5159 85.6606 15.9559 85.6606C15.3959 85.6606 14.9399 85.4366 14.5879 84.9886C14.2359 84.5246 14.0599 83.8366 14.0599 82.9246V82.4926C13.7879 83.5806 13.3559 84.3806 12.7639 84.8926C12.1719 85.4046 11.4839 85.6606 10.6999 85.6606C9.93188 85.6606 9.30788 85.4206 8.82788 84.9406C8.36388 84.4446 8.13188 83.7966 8.13188 82.9966C8.13188 82.1806 8.50788 81.4606 9.25988 80.8366C10.0119 80.1966 11.0919 79.8766 12.4999 79.8766C12.8039 79.8766 13.3159 79.9166 14.0359 79.9966V79.7806ZM11.2519 84.7486C11.9239 84.7486 12.5239 84.3726 13.0519 83.6206C13.5959 82.8526 13.9159 81.7806 14.0119 80.4046C13.8519 80.3886 13.6279 80.3806 13.3399 80.3806C12.0599 80.3806 11.1399 80.6526 10.5799 81.1966C10.0359 81.7246 9.76388 82.3406 9.76388 83.0446C9.76388 83.5086 9.89988 83.9086 10.1719 84.2446C10.4439 84.5806 10.8039 84.7486 11.2519 84.7486ZM24.0435 75.2926C23.1315 75.2926 22.3875 75.7326 21.8115 76.6126C21.2515 77.4766 20.9715 78.6686 20.9715 80.1886C20.9715 81.7086 21.2435 82.9086 21.7875 83.7886C22.3475 84.6526 23.0595 85.0846 23.9235 85.0846C24.8035 85.0846 25.5235 84.8606 26.0835 84.4126C26.6435 83.9646 27.0275 83.3246 27.2355 82.4926L27.6915 82.5886C27.4995 83.5646 27.0595 84.3246 26.3715 84.8686C25.6835 85.3966 24.8915 85.6606 23.9955 85.6606C22.6035 85.6606 21.4435 85.1726 20.5155 84.1966C19.6035 83.2206 19.1475 81.8846 19.1475 80.1886C19.1475 78.4926 19.6115 77.1566 20.5395 76.1806C21.4675 75.2046 22.6355 74.7166 24.0435 74.7166C25.1315 74.7166 25.9475 74.9646 26.4915 75.4606C27.0355 75.9406 27.3075 76.5886 27.3075 77.4046C27.3075 78.4606 27.0115 78.9886 26.4195 78.9886C25.9395 78.9886 25.5555 78.8606 25.2675 78.6046C25.4915 78.1246 25.6035 77.6286 25.6035 77.1166C25.6035 76.5886 25.4675 76.1566 25.1955 75.8206C24.9395 75.4686 24.5555 75.2926 24.0435 75.2926ZM34.0971 74.7166C35.2011 74.7166 36.0731 75.0846 36.7131 75.8206C37.3531 76.5566 37.6731 77.6366 37.6731 79.0606C37.6731 79.3486 37.6571 79.6686 37.6251 80.0206H31.0731V80.1886C31.0731 81.7086 31.3451 82.9086 31.8891 83.7886C32.4491 84.6526 33.1611 85.0846 34.0251 85.0846C34.9051 85.0846 35.6251 84.8606 36.1851 84.4126C36.7451 83.9646 37.1291 83.3246 37.3371 82.4926L37.7931 82.5886C37.6011 83.5646 37.1611 84.3246 36.4731 84.8686C35.7851 85.3966 34.9931 85.6606 34.0971 85.6606C32.7051 85.6606 31.5451 85.1726 30.6171 84.1966C29.7051 83.2206 29.2491 81.8926 29.2491 80.2126C29.2491 78.5166 29.7131 77.1806 30.6411 76.2046C31.5691 75.2126 32.7211 74.7166 34.0971 74.7166ZM36.0171 78.2446C36.0171 76.2766 35.2811 75.2926 33.8091 75.2926C33.0731 75.2926 32.4411 75.6926 31.9131 76.4926C31.4011 77.2926 31.1291 78.3086 31.0971 79.5406H35.9211C35.9851 78.9966 36.0171 78.5646 36.0171 78.2446ZM48.4828 84.1966C47.6188 85.1726 46.4828 85.6606 45.0748 85.6606C43.6668 85.6606 42.4908 85.1326 41.5468 84.0766L41.3548 85.5646H40.9468V70.5886C40.9468 70.3646 40.8348 70.2526 40.6108 70.2526H39.4828V69.8206H40.6588C41.6188 69.8206 42.2908 69.7726 42.6748 69.6766V78.2206C42.9468 77.0686 43.3788 76.1966 43.9708 75.6046C44.5788 75.0126 45.2508 74.7166 45.9868 74.7166C46.9948 74.7166 47.8828 75.2206 48.6508 76.2286C49.4188 77.2366 49.8028 78.5726 49.8028 80.2366C49.8028 81.9006 49.3628 83.2206 48.4828 84.1966ZM45.6268 75.6286C44.8268 75.6286 44.1308 76.1246 43.5388 77.1166C42.9628 78.1086 42.6748 79.5406 42.6748 81.4126V84.3886C43.3468 84.8366 44.1068 85.0606 44.9548 85.0606C45.8188 85.0606 46.5388 84.6366 47.1148 83.7886C47.6908 82.9406 47.9788 81.7726 47.9788 80.2846C47.9788 78.7966 47.7468 77.6526 47.2828 76.8526C46.8188 76.0366 46.2668 75.6286 45.6268 75.6286ZM53.0696 84.1966C52.1736 83.2206 51.7256 81.8846 51.7256 80.1886C51.7256 78.4926 52.1736 77.1566 53.0696 76.1806C53.9656 75.2046 55.1336 74.7166 56.5736 74.7166C58.0136 74.7166 59.1816 75.2046 60.0776 76.1806C60.9896 77.1566 61.4456 78.4926 61.4456 80.1886C61.4456 81.8846 60.9896 83.2206 60.0776 84.1966C59.1816 85.1726 58.0136 85.6606 56.5736 85.6606C55.1336 85.6606 53.9656 85.1726 53.0696 84.1966ZM54.4136 76.5886C53.8376 77.4686 53.5496 78.6686 53.5496 80.1886C53.5496 81.7086 53.8376 82.9166 54.4136 83.8126C54.9896 84.6926 55.7096 85.1326 56.5736 85.1326C57.4376 85.1326 58.1576 84.6926 58.7336 83.8126C59.3256 82.9166 59.6216 81.7086 59.6216 80.1886C59.6216 78.6686 59.3256 77.4686 58.7336 76.5886C58.1576 75.6926 57.4376 75.2446 56.5736 75.2446C55.7096 75.2446 54.9896 75.6926 54.4136 76.5886ZM64.7181 84.1966C63.8221 83.2206 63.3741 81.8846 63.3741 80.1886C63.3741 78.4926 63.8221 77.1566 64.7181 76.1806C65.6141 75.2046 66.7821 74.7166 68.2221 74.7166C69.6621 74.7166 70.8301 75.2046 71.7261 76.1806C72.6381 77.1566 73.0941 78.4926 73.0941 80.1886C73.0941 81.8846 72.6381 83.2206 71.7261 84.1966C70.8301 85.1726 69.6621 85.6606 68.2221 85.6606C66.7821 85.6606 65.6141 85.1726 64.7181 84.1966ZM66.0621 76.5886C65.4861 77.4686 65.1981 78.6686 65.1981 80.1886C65.1981 81.7086 65.4861 82.9166 66.0621 83.8126C66.6381 84.6926 67.3581 85.1326 68.2221 85.1326C69.0861 85.1326 69.8061 84.6926 70.3821 83.8126C70.9741 82.9166 71.2701 81.7086 71.2701 80.1886C71.2701 78.6686 70.9741 77.4686 70.3821 76.5886C69.8061 75.6926 69.0861 75.2446 68.2221 75.2446C67.3581 75.2446 66.6381 75.6926 66.0621 76.5886ZM76.2465 84.6046V70.5886C76.2465 70.3646 76.1345 70.2526 75.9105 70.2526H74.7825V69.8206H75.9585C76.9185 69.8206 77.5905 69.7726 77.9745 69.6766V84.6526C77.9745 84.8446 78.0865 84.9406 78.3105 84.9406H79.4385V85.3726H74.7825V84.9406H75.9105C76.1345 84.9406 76.2465 84.8286 76.2465 84.6046ZM81.1905 75.0046H84.4065V75.4366H83.5185C83.3905 75.4366 83.2465 75.5166 83.0865 75.6766L79.9905 79.2046L83.8065 84.7486C83.8865 84.8766 83.9985 84.9406 84.1425 84.9406H85.1265V85.3726H83.9985C83.2305 85.3726 82.6545 85.4206 82.2705 85.5166L78.4305 79.9246L82.4145 75.4366H81.1905V75.0046ZM2.544 120.605V111.773C2.544 111.549 2.432 111.437 2.208 111.437H1.08V111.005H2.256C3.216 111.005 3.888 110.957 4.272 110.861V120.653C4.272 120.845 4.384 120.941 4.608 120.941H5.736V121.373H1.08V120.941H2.208C2.432 120.941 2.544 120.829 2.544 120.605ZM2.592 108.365C2.384 108.141 2.28 107.869 2.28 107.549C2.28 107.229 2.384 106.965 2.592 106.757C2.816 106.533 3.088 106.421 3.408 106.421C3.728 106.421 3.992 106.533 4.2 106.757C4.424 106.965 4.536 107.229 4.536 107.549C4.536 107.869 4.424 108.141 4.2 108.365C3.992 108.573 3.728 108.677 3.408 108.677C3.088 108.677 2.816 108.573 2.592 108.365ZM17.2933 114.365V120.653C17.2933 120.845 17.4053 120.941 17.6293 120.941H18.7573V121.373H14.4373V120.941H15.2293C15.4533 120.941 15.5653 120.845 15.5653 120.653V114.053C15.5653 113.237 15.3813 112.637 15.0133 112.253C14.6613 111.853 14.1893 111.653 13.5973 111.653C12.7653 111.653 12.0773 112.149 11.5333 113.141C10.9893 114.117 10.7173 115.525 10.7173 117.365V120.605C10.7173 120.829 10.8293 120.941 11.0533 120.941H11.8453V121.373H7.52531V120.941H8.65331C8.87731 120.941 8.98931 120.845 8.98931 120.653V111.773C8.98931 111.549 8.87731 111.437 8.65331 111.437H7.52531V111.005H8.70131C9.66131 111.005 10.3333 110.957 10.7173 110.861V114.125C11.2613 111.853 12.4613 110.717 14.3173 110.717C15.1493 110.717 15.8533 111.021 16.4293 111.629C17.0053 112.221 17.2933 113.133 17.2933 114.365ZM23.6738 114.869L26.1698 115.805C26.7618 116.029 27.2098 116.373 27.5138 116.837C27.8338 117.285 27.9938 117.789 27.9938 118.349C27.9938 119.213 27.6498 119.981 26.9618 120.653C26.2738 121.325 25.3458 121.661 24.1778 121.661C23.0258 121.661 21.9378 121.445 20.9138 121.013C21.0098 120.629 21.0578 119.957 21.0578 118.997V118.037H21.4898L21.6578 119.285C21.8018 120.485 22.6418 121.085 24.1778 121.085C24.8658 121.085 25.4338 120.877 25.8818 120.461C26.3458 120.029 26.5778 119.541 26.5778 118.997C26.5778 118.245 26.1218 117.701 25.2098 117.365L22.7138 116.429C22.1538 116.221 21.7298 115.893 21.4418 115.445C21.1538 114.997 21.0098 114.493 21.0098 113.933C21.0098 113.085 21.3138 112.341 21.9218 111.701C22.5298 111.045 23.2898 110.717 24.2018 110.717C25.1298 110.717 26.1698 110.933 27.3218 111.365C27.2258 111.749 27.1778 112.421 27.1778 113.381V114.341H26.7458L26.5778 113.093C26.4498 111.941 25.7218 111.365 24.3938 111.365C23.8018 111.365 23.3138 111.549 22.9298 111.917C22.5458 112.285 22.3538 112.717 22.3538 113.213C22.3538 113.981 22.7938 114.533 23.6738 114.869ZM32.3745 108.461H32.7345V111.005H35.1345V111.437H32.7345V119.573C32.7345 120.437 32.9745 120.869 33.4545 120.869C33.6785 120.869 33.8705 120.765 34.0305 120.557C34.2065 120.349 34.2945 120.109 34.2945 119.837C34.2945 119.565 34.2705 119.309 34.2225 119.069L34.6785 118.997C34.7425 119.237 34.7745 119.501 34.7745 119.789C34.7745 120.365 34.5985 120.821 34.2465 121.157C33.9105 121.493 33.4625 121.661 32.9025 121.661C32.3425 121.661 31.8865 121.437 31.5345 120.989C31.1825 120.525 31.0065 119.837 31.0065 118.925V111.773C31.0065 111.549 30.8945 111.437 30.6705 111.437H29.5425V111.005H30.7185C31.2305 111.005 31.7825 110.157 32.3745 108.461ZM42.489 115.781L42.513 114.941V114.101C42.513 112.229 41.905 111.293 40.689 111.293C40.161 111.293 39.745 111.477 39.441 111.845C39.153 112.197 39.009 112.613 39.009 113.093C39.009 113.573 39.073 113.989 39.201 114.341C38.929 114.581 38.553 114.701 38.073 114.701C37.593 114.701 37.353 114.309 37.353 113.525C37.353 112.741 37.657 112.077 38.265 111.533C38.889 110.989 39.769 110.717 40.905 110.717C43.129 110.717 44.241 112.029 44.241 114.653V119.573C44.241 120.437 44.481 120.869 44.961 120.869C45.185 120.869 45.377 120.765 45.537 120.557C45.713 120.349 45.801 120.109 45.801 119.837C45.801 119.565 45.777 119.309 45.729 119.069L46.185 118.997C46.249 119.237 46.281 119.501 46.281 119.789C46.281 120.365 46.105 120.821 45.753 121.157C45.417 121.493 44.969 121.661 44.409 121.661C43.849 121.661 43.393 121.437 43.041 120.989C42.689 120.525 42.513 119.837 42.513 118.925V118.493C42.241 119.581 41.809 120.381 41.217 120.893C40.625 121.405 39.937 121.661 39.153 121.661C38.385 121.661 37.761 121.421 37.281 120.941C36.817 120.445 36.585 119.797 36.585 118.997C36.585 118.181 36.961 117.461 37.713 116.837C38.465 116.197 39.545 115.877 40.953 115.877C41.257 115.877 41.769 115.917 42.489 115.997V115.781ZM39.705 120.749C40.377 120.749 40.977 120.373 41.505 119.621C42.049 118.853 42.369 117.781 42.465 116.405C42.305 116.389 42.081 116.381 41.793 116.381C40.513 116.381 39.593 116.653 39.033 117.197C38.489 117.725 38.217 118.341 38.217 119.045C38.217 119.509 38.353 119.909 38.625 120.245C38.897 120.581 39.257 120.749 39.705 120.749ZM56.9126 111.293L56.7206 111.269C56.5766 110.277 56.2166 109.781 55.6406 109.781C55.3526 109.781 55.0886 109.933 54.8486 110.237C54.6086 110.541 54.4646 110.941 54.4166 111.437C55.2806 112.093 55.7126 113.005 55.7126 114.173C55.7126 115.341 55.3686 116.245 54.6806 116.885C54.0086 117.509 53.1286 117.821 52.0406 117.821H49.9046C49.5046 117.821 49.1926 117.933 48.9686 118.157C48.7606 118.381 48.6566 118.645 48.6566 118.949C48.6566 119.253 48.7606 119.517 48.9686 119.741C49.1926 119.965 49.5046 120.077 49.9046 120.077H53.9126C54.8726 120.077 55.5926 120.301 56.0726 120.749C56.5686 121.181 56.8166 121.733 56.8166 122.405C56.8166 123.477 56.3126 124.485 55.3046 125.429C54.2966 126.373 53.0406 126.845 51.5366 126.845C50.3846 126.845 49.4486 126.573 48.7286 126.029C48.0086 125.485 47.6486 124.797 47.6486 123.965C47.6486 123.133 48.0886 122.333 48.9686 121.565C48.5526 121.453 48.2166 121.221 47.9606 120.869C47.7206 120.501 47.6006 120.053 47.6006 119.525C47.6006 118.997 47.7926 118.525 48.1766 118.109C48.5606 117.677 49.1366 117.461 49.9046 117.461H50.2646C49.0166 116.885 48.3926 115.821 48.3926 114.269C48.3926 113.165 48.7286 112.301 49.4006 111.677C50.0726 111.037 50.9526 110.717 52.0406 110.717C52.7606 110.717 53.3926 110.861 53.9366 111.149C54.0486 110.509 54.2726 109.981 54.6086 109.565C54.9606 109.149 55.4166 108.941 55.9766 108.941C56.5526 108.941 57.0246 109.093 57.3926 109.397C57.7766 109.701 57.9686 110.029 57.9686 110.381C57.9686 110.989 57.6166 111.293 56.9126 111.293ZM53.9126 121.661H49.7126C49.2006 122.253 48.9446 122.925 48.9446 123.677C48.9446 124.429 49.1686 125.045 49.6166 125.525C50.0646 126.021 50.7846 126.269 51.7766 126.269C52.7846 126.269 53.6966 125.917 54.5126 125.213C55.3286 124.509 55.7366 123.781 55.7366 123.029C55.7366 122.629 55.5846 122.301 55.2806 122.045C54.9766 121.789 54.5206 121.661 53.9126 121.661ZM50.6486 112.061C50.2806 112.605 50.0966 113.341 50.0966 114.269C50.0966 115.197 50.2806 115.933 50.6486 116.477C51.0166 117.021 51.4806 117.293 52.0406 117.293C52.6006 117.293 53.0646 117.021 53.4326 116.477C53.8166 115.933 54.0086 115.197 54.0086 114.269C54.0086 113.341 53.8166 112.605 53.4326 112.061C53.0646 111.517 52.6006 111.245 52.0406 111.245C51.4806 111.245 51.0166 111.517 50.6486 112.061ZM64.6191 110.717C65.2431 110.717 65.7471 110.981 66.1311 111.509C66.5311 112.037 66.7311 112.701 66.7311 113.501C66.7311 114.301 66.4031 114.701 65.7471 114.701C65.3631 114.701 65.0511 114.581 64.8111 114.341C65.0191 113.877 65.1231 113.405 65.1231 112.925C65.1231 112.077 64.7711 111.653 64.0671 111.653C63.4751 111.653 62.9471 112.149 62.4831 113.141C62.0351 114.117 61.8111 115.541 61.8111 117.413V120.605C61.8111 120.829 61.9231 120.941 62.1471 120.941H63.7551V121.373H58.6191V120.941H59.7471C59.9711 120.941 60.0831 120.829 60.0831 120.605V111.773C60.0831 111.549 59.9711 111.437 59.7471 111.437H58.6191V111.005H59.7951C60.7551 111.005 61.4271 110.957 61.8111 110.861V113.933C62.0671 112.829 62.4431 112.021 62.9391 111.509C63.4351 110.981 63.9951 110.717 64.6191 110.717ZM73.7078 115.781L73.7318 114.941V114.101C73.7318 112.229 73.1238 111.293 71.9078 111.293C71.3798 111.293 70.9638 111.477 70.6598 111.845C70.3718 112.197 70.2278 112.613 70.2278 113.093C70.2278 113.573 70.2918 113.989 70.4198 114.341C70.1478 114.581 69.7718 114.701 69.2918 114.701C68.8118 114.701 68.5718 114.309 68.5718 113.525C68.5718 112.741 68.8758 112.077 69.4838 111.533C70.1078 110.989 70.9878 110.717 72.1238 110.717C74.3478 110.717 75.4598 112.029 75.4598 114.653V119.573C75.4598 120.437 75.6998 120.869 76.1798 120.869C76.4038 120.869 76.5958 120.765 76.7558 120.557C76.9318 120.349 77.0198 120.109 77.0198 119.837C77.0198 119.565 76.9958 119.309 76.9478 119.069L77.4038 118.997C77.4678 119.237 77.4998 119.501 77.4998 119.789C77.4998 120.365 77.3238 120.821 76.9718 121.157C76.6358 121.493 76.1878 121.661 75.6278 121.661C75.0678 121.661 74.6118 121.437 74.2598 120.989C73.9078 120.525 73.7318 119.837 73.7318 118.925V118.493C73.4598 119.581 73.0278 120.381 72.4358 120.893C71.8438 121.405 71.1558 121.661 70.3717 121.661C69.6038 121.661 68.9798 121.421 68.4998 120.941C68.0358 120.445 67.8038 119.797 67.8038 118.997C67.8038 118.181 68.1798 117.461 68.9318 116.837C69.6838 116.197 70.7638 115.877 72.1718 115.877C72.4758 115.877 72.9878 115.917 73.7078 115.997V115.781ZM70.9238 120.749C71.5958 120.749 72.1958 120.373 72.7238 119.621C73.2678 118.853 73.5878 117.781 73.6838 116.405C73.5238 116.389 73.2998 116.381 73.0117 116.381C71.7318 116.381 70.8118 116.653 70.2518 117.197C69.7078 117.725 69.4358 118.341 69.4358 119.045C69.4358 119.509 69.5718 119.909 69.8438 120.245C70.1158 120.581 70.4758 120.749 70.9238 120.749ZM94.8034 114.365V120.653C94.8034 120.845 94.9154 120.941 95.1394 120.941H96.2674V121.373H91.9474V120.941H92.7394C92.9634 120.941 93.0754 120.845 93.0754 120.653V114.053C93.0754 113.237 92.9074 112.637 92.5714 112.253C92.2354 111.853 91.7794 111.653 91.2034 111.653C90.4034 111.653 89.7474 112.173 89.2354 113.213C88.7234 114.237 88.4674 115.717 88.4674 117.653V120.605C88.4674 120.829 88.5794 120.941 88.8034 120.941H89.9314V121.373H85.6114V120.941H86.4034C86.6274 120.941 86.7394 120.845 86.7394 120.653V114.053C86.7394 113.237 86.5714 112.637 86.2354 112.253C85.8994 111.853 85.4434 111.653 84.8674 111.653C84.0674 111.653 83.4114 112.173 82.8994 113.213C82.3874 114.237 82.1314 115.717 82.1314 117.653V120.605C82.1314 120.829 82.2434 120.941 82.4674 120.941H83.2594V121.373H78.9394V120.941H80.0674C80.2914 120.941 80.4034 120.845 80.4034 120.653V111.773C80.4034 111.549 80.2914 111.437 80.0674 111.437H78.9394V111.005H80.1154C81.0754 111.005 81.7474 110.957 82.1314 110.861V114.077C82.6594 111.837 83.7954 110.717 85.5394 110.717C86.3074 110.717 86.9714 110.997 87.5314 111.557C88.1074 112.117 88.4194 112.965 88.4674 114.101C88.9954 111.845 90.1314 110.717 91.8754 110.717C92.6754 110.717 93.3634 111.021 93.9394 111.629C94.5154 112.221 94.8034 113.133 94.8034 114.365Z" fill="#A2A2A2"/>
<path d="M7.12003 21.5936L10.864 22.9976C11.752 23.3336 12.424 23.8496 12.88 24.5456C13.36 25.2176 13.6 25.9736 13.6 26.8136C13.6 28.1096 13.084 29.2616 12.052 30.2696C11.02 31.2776 9.62803 31.7816 7.87603 31.7816C6.14803 31.7816 4.51603 31.4576 2.98003 30.8096C3.12403 30.2336 3.19603 29.2256 3.19603 27.7856V26.3456H3.84403L4.09603 28.2176C4.31203 30.0176 5.57203 30.9176 7.87603 30.9176C8.90803 30.9176 9.76003 30.6056 10.432 29.9816C11.128 29.3336 11.476 28.6016 11.476 27.7856C11.476 26.6576 10.792 25.8416 9.42403 25.3376L5.68003 23.9336C4.84003 23.6216 4.20403 23.1296 3.77203 22.4576C3.34003 21.7856 3.12403 21.0296 3.12403 20.1896C3.12403 18.9176 3.58003 17.8016 4.49203 16.8416C5.40403 15.8576 6.54403 15.3656 7.91203 15.3656C9.30403 15.3656 10.864 15.6896 12.592 16.3376C12.448 16.9136 12.376 17.9216 12.376 19.3616V20.8016H11.728L11.476 18.9296C11.284 17.2016 10.192 16.3376 8.20003 16.3376C7.31203 16.3376 6.58003 16.6136 6.00403 17.1656C5.42803 17.7176 5.14003 18.3656 5.14003 19.1096C5.14003 20.2616 5.80003 21.0896 7.12003 21.5936ZM27.2992 29.5856C25.9552 28.1216 25.2832 26.1176 25.2832 23.5736C25.2832 21.0296 25.9552 19.0256 27.2992 17.5616C28.6432 16.0976 30.3952 15.3656 32.5552 15.3656C34.7152 15.3656 36.4672 16.0976 37.8112 17.5616C39.1792 19.0256 39.8632 21.0296 39.8632 23.5736C39.8632 26.1176 39.1792 28.1216 37.8112 29.5856C36.4672 31.0496 34.7152 31.7816 32.5552 31.7816C30.3952 31.7816 28.6432 31.0496 27.2992 29.5856ZM29.3152 18.1736C28.4512 19.4936 28.0192 21.2936 28.0192 23.5736C28.0192 25.8536 28.4512 27.6656 29.3152 29.0096C30.1792 30.3296 31.2592 30.9896 32.5552 30.9896C33.8512 30.9896 34.9312 30.3296 35.7952 29.0096C36.6832 27.6656 37.1272 25.8536 37.1272 23.5736C37.1272 21.2936 36.6832 19.4936 35.7952 18.1736C34.9312 16.8296 33.8512 16.1576 32.5552 16.1576C31.2592 16.1576 30.1792 16.8296 29.3152 18.1736ZM58.7398 16.2296C57.3718 16.2296 56.2558 16.8896 55.3918 18.2096C54.5518 19.5056 54.1318 21.2936 54.1318 23.5736C54.1318 25.8536 54.5398 27.6536 55.3558 28.9736C56.1958 30.2696 57.2638 30.9176 58.5598 30.9176C59.8798 30.9176 60.9598 30.5816 61.7998 29.9096C62.6398 29.2376 63.2158 28.2776 63.5278 27.0296L64.2118 27.1736C63.9238 28.6376 63.2638 29.7776 62.2318 30.5936C61.1998 31.3856 60.0118 31.7816 58.6678 31.7816C56.5798 31.7816 54.8398 31.0496 53.4478 29.5856C52.0798 28.1216 51.3958 26.1176 51.3958 23.5736C51.3958 21.0296 52.0918 19.0256 53.4838 17.5616C54.8758 16.0976 56.6278 15.3656 58.7398 15.3656C60.3718 15.3656 61.5958 15.7376 62.4118 16.4816C63.2278 17.2016 63.6358 18.1736 63.6358 19.3976C63.6358 20.9816 63.1918 21.7736 62.3038 21.7736C61.5838 21.7736 61.0078 21.5816 60.5758 21.1976C60.9118 20.4776 61.0798 19.7336 61.0798 18.9656C61.0798 18.1736 60.8758 17.5256 60.4678 17.0216C60.0838 16.4936 59.5078 16.2296 58.7398 16.2296ZM77.5642 30.1976V16.9496C77.5642 16.6136 77.3962 16.4456 77.0602 16.4456H75.3682V15.7976H77.1322C78.5722 15.7976 79.5802 15.7256 80.1562 15.5816V30.2696C80.1562 30.5576 80.3242 30.7016 80.6602 30.7016H82.3522V31.3496H75.3682V30.7016H77.0602C77.3962 30.7016 77.5642 30.5336 77.5642 30.1976ZM77.6362 11.8376C77.3242 11.5016 77.1682 11.0936 77.1682 10.6136C77.1682 10.1336 77.3242 9.73761 77.6362 9.42561C77.9722 9.08961 78.3802 8.92161 78.8602 8.92161C79.3402 8.92161 79.7362 9.08961 80.0482 9.42561C80.3842 9.73761 80.5522 10.1336 80.5522 10.6136C80.5522 11.0936 80.3842 11.5016 80.0482 11.8376C79.7362 12.1496 79.3402 12.3056 78.8602 12.3056C78.3802 12.3056 77.9722 12.1496 77.6362 11.8376ZM102.352 22.9616L102.388 21.7016V20.4416C102.388 17.6336 101.476 16.2296 99.6521 16.2296C98.8601 16.2296 98.2361 16.5056 97.7801 17.0576C97.3481 17.5856 97.1321 18.2096 97.1321 18.9296C97.1321 19.6496 97.2281 20.2736 97.4201 20.8016C97.0121 21.1616 96.4481 21.3416 95.7281 21.3416C95.0081 21.3416 94.6481 20.7536 94.6481 19.5776C94.6481 18.4016 95.1041 17.4056 96.0161 16.5896C96.9521 15.7736 98.2721 15.3656 99.9761 15.3656C103.312 15.3656 104.98 17.3336 104.98 21.2696V28.6496C104.98 29.9456 105.34 30.5936 106.06 30.5936C106.396 30.5936 106.684 30.4376 106.924 30.1256C107.188 29.8136 107.32 29.4536 107.32 29.0456C107.32 28.6376 107.284 28.2536 107.212 27.8936L107.896 27.7856C107.992 28.1456 108.04 28.5416 108.04 28.9736C108.04 29.8376 107.776 30.5216 107.248 31.0256C106.744 31.5296 106.072 31.7816 105.232 31.7816C104.392 31.7816 103.708 31.4456 103.18 30.7736C102.652 30.0776 102.388 29.0456 102.388 27.6776V27.0296C101.98 28.6616 101.332 29.8616 100.444 30.6296C99.5561 31.3976 98.5241 31.7816 97.3481 31.7816C96.1961 31.7816 95.2601 31.4216 94.5401 30.7016C93.8441 29.9576 93.4961 28.9856 93.4961 27.7856C93.4961 26.5616 94.0601 25.4816 95.1881 24.5456C96.3161 23.5856 97.9361 23.1056 100.048 23.1056C100.504 23.1056 101.272 23.1656 102.352 23.2856V22.9616ZM98.1761 30.4136C99.1841 30.4136 100.084 29.8496 100.876 28.7216C101.692 27.5696 102.172 25.9616 102.316 23.8976C102.076 23.8736 101.74 23.8616 101.308 23.8616C99.3881 23.8616 98.0081 24.2696 97.1681 25.0856C96.3521 25.8776 95.9441 26.8016 95.9441 27.8576C95.9441 28.5536 96.1481 29.1536 96.5561 29.6576C96.9641 30.1616 97.5041 30.4136 98.1761 30.4136ZM120.496 30.1976V9.17361C120.496 8.83761 120.328 8.66961 119.992 8.66961H118.3V8.02161H120.064C121.504 8.02161 122.512 7.94961 123.088 7.80561V30.1976C123.088 30.5336 123.256 30.7016 123.592 30.7016H125.284V31.3496H118.3V30.7016H119.992C120.328 30.7016 120.496 30.5336 120.496 30.1976Z" fill="#C2C2C2"/>
</svg>
