<?xml version="1.0" encoding="utf-8"?>
<!-- Generator: Adobe Illustrator 24.0.1, SVG Export Plug-In . SVG Version: 6.00 Build 0)  -->
<svg version="1.1" id="Layer_1" xmlns="http://www.w3.org/2000/svg" xmlns:xlink="http://www.w3.org/1999/xlink" x="0px" y="0px"
	 viewBox="0 0 981 358" style="enable-background:new 0 0 981 358;" xml:space="preserve">
<style type="text/css">
	.st0{fill:#181818;stroke:#BDBDBD;stroke-miterlimit:10;}
	.st1{fill:#BDBDBD;}
	.st2{fill:#181818;}
</style>
<path class="st0" d="M0,273.9h533v83.7H0V273.9z"/>
<path class="st1" d="M430.6,273.9H533v83.7H430.6V273.9z"/>
<g>
	<path class="st2" d="M462.3,300.2l2.5,0.9c0.6,0.2,1,0.6,1.3,1c0.3,0.4,0.5,1,0.5,1.5c0,0.9-0.3,1.6-1,2.3c-0.7,0.7-1.6,1-2.8,1
		c-1.2,0-2.2-0.2-3.3-0.6c0.1-0.4,0.1-1.1,0.1-2v-1h0.4l0.2,1.2c0.1,1.2,1,1.8,2.5,1.8c0.7,0,1.3-0.2,1.7-0.6
		c0.5-0.4,0.7-0.9,0.7-1.5c0-0.8-0.5-1.3-1.4-1.6l-2.5-0.9c-0.6-0.2-1-0.5-1.3-1s-0.4-1-0.4-1.5c0-0.8,0.3-1.6,0.9-2.2
		c0.6-0.7,1.4-1,2.3-1c0.9,0,2,0.2,3.1,0.6c-0.1,0.4-0.1,1.1-0.1,2v1h-0.4l-0.2-1.2c-0.1-1.2-0.9-1.7-2.2-1.7
		c-0.6,0-1.1,0.2-1.5,0.6c-0.4,0.4-0.6,0.8-0.6,1.3C461,299.3,461.4,299.9,462.3,300.2z"/>
	<path class="st2" d="M472.6,305.9v-8.8c0-0.2-0.1-0.3-0.3-0.3h-1.1v-0.4h1.2c1,0,1.6,0,2-0.1v9.8c0,0.2,0.1,0.3,0.3,0.3h1.1v0.4
		h-4.7v-0.4h1.1C472.5,306.3,472.6,306.2,472.6,305.9z M472.7,293.7c-0.2-0.2-0.3-0.5-0.3-0.8s0.1-0.6,0.3-0.8
		c0.2-0.2,0.5-0.3,0.8-0.3s0.6,0.1,0.8,0.3c0.2,0.2,0.3,0.5,0.3,0.8s-0.1,0.6-0.3,0.8c-0.2,0.2-0.5,0.3-0.8,0.3
		S472.9,293.9,472.7,293.7z"/>
	<path class="st2" d="M489.2,296.6l-0.2,0c-0.1-1-0.5-1.5-1.1-1.5c-0.3,0-0.6,0.2-0.8,0.5c-0.2,0.3-0.4,0.7-0.4,1.2
		c0.9,0.7,1.3,1.6,1.3,2.7s-0.3,2.1-1,2.7c-0.7,0.6-1.6,0.9-2.6,0.9h-2.1c-0.4,0-0.7,0.1-0.9,0.3c-0.2,0.2-0.3,0.5-0.3,0.8
		c0,0.3,0.1,0.6,0.3,0.8c0.2,0.2,0.5,0.3,0.9,0.3h4c1,0,1.7,0.2,2.2,0.7c0.5,0.4,0.7,1,0.7,1.7c0,1.1-0.5,2.1-1.5,3
		s-2.3,1.4-3.8,1.4c-1.2,0-2.1-0.3-2.8-0.8c-0.7-0.5-1.1-1.2-1.1-2.1s0.4-1.6,1.3-2.4c-0.4-0.1-0.8-0.3-1-0.7
		c-0.2-0.4-0.4-0.8-0.4-1.3c0-0.5,0.2-1,0.6-1.4c0.4-0.4,1-0.6,1.7-0.6h0.4c-1.2-0.6-1.9-1.6-1.9-3.2c0-1.1,0.3-2,1-2.6
		c0.7-0.6,1.6-1,2.6-1c0.7,0,1.4,0.1,1.9,0.4c0.1-0.6,0.3-1.2,0.7-1.6c0.4-0.4,0.8-0.6,1.4-0.6c0.6,0,1,0.2,1.4,0.5
		c0.4,0.3,0.6,0.6,0.6,1C490.3,296.3,489.9,296.6,489.2,296.6z M486.2,307H482c-0.5,0.6-0.8,1.3-0.8,2c0,0.8,0.2,1.4,0.7,1.8
		c0.4,0.5,1.2,0.7,2.2,0.7c1,0,1.9-0.4,2.7-1.1s1.2-1.4,1.2-2.2c0-0.4-0.2-0.7-0.5-1C487.3,307.1,486.8,307,486.2,307z M482.9,297.4
		c-0.4,0.5-0.6,1.3-0.6,2.2s0.2,1.7,0.6,2.2c0.4,0.5,0.8,0.8,1.4,0.8c0.6,0,1-0.3,1.4-0.8c0.4-0.5,0.6-1.3,0.6-2.2s-0.2-1.7-0.6-2.2
		c-0.4-0.5-0.8-0.8-1.4-0.8C483.8,296.6,483.3,296.8,482.9,297.4z"/>
	<path class="st2" d="M503.1,299.7v6.3c0,0.2,0.1,0.3,0.3,0.3h1.1v0.4h-4.3v-0.4h0.8c0.2,0,0.3-0.1,0.3-0.3v-6.6
		c0-0.8-0.2-1.4-0.6-1.8c-0.4-0.4-0.8-0.6-1.4-0.6c-0.8,0-1.5,0.5-2.1,1.5c-0.5,1-0.8,2.4-0.8,4.2v3.2c0,0.2,0.1,0.3,0.3,0.3h0.8
		v0.4h-4.3v-0.4h1.1c0.2,0,0.3-0.1,0.3-0.3v-8.9c0-0.2-0.1-0.3-0.3-0.3h-1.1v-0.4h1.2c1,0,1.6,0,2-0.1v3.3c0.5-2.3,1.7-3.4,3.6-3.4
		c0.8,0,1.5,0.3,2.1,0.9C502.8,297.5,503.1,298.5,503.1,299.7z"/>
	<path class="st2" d="M479.8,322.2v9.7c0,0.2,0.1,0.3,0.3,0.3h1.1v0.4h-1.2c-1,0-1.6,0-2,0.1v-3.2c-0.5,2.3-1.7,3.4-3.6,3.4
		c-0.8,0-1.5-0.3-2.1-0.9c-0.6-0.6-0.9-1.5-0.9-2.8v-6.2c0-0.2-0.1-0.3-0.3-0.3h-1.1v-0.4h1.2c1,0,1.6,0,2-0.1v7.5
		c0,0.8,0.2,1.4,0.5,1.8c0.4,0.4,0.8,0.6,1.4,0.6c0.8,0,1.5-0.5,2.1-1.5c0.5-1,0.8-2.5,0.8-4.5v-3c0-0.2-0.1-0.3-0.3-0.3h-1.1v-0.4
		h1.2C478.8,322.3,479.5,322.3,479.8,322.2z"/>
	<path class="st2" d="M486.6,337.1v-14c0-0.2-0.1-0.3-0.3-0.3h-1.1v-0.4h1.2c1,0,1.6,0,2-0.1v3.4c0.3-1.2,0.7-2,1.3-2.6
		c0.6-0.6,1.3-0.9,2-0.9c1,0,1.9,0.5,2.7,1.5c0.8,1,1.2,2.3,1.2,4s-0.4,3-1.3,4c-0.9,1-2,1.5-3.4,1.5c-0.9,0-1.7-0.2-2.4-0.6v4.8
		c0,0.2,0.1,0.3,0.3,0.3h1.6v0.4h-5.1v-0.4h1.1C486.5,337.4,486.6,337.3,486.6,337.1z M493.6,327.6c0-1.5-0.2-2.6-0.7-3.4
		c-0.5-0.8-1.1-1.2-1.8-1.2c-0.7,0-1.4,0.5-1.9,1.4s-0.9,2.3-0.9,4.1v3.2c0.7,0.5,1.5,0.7,2.3,0.7c0.8,0,1.6-0.4,2.1-1.3
		C493.3,330.3,493.6,329.1,493.6,327.6z"/>
</g>
<path class="st1" d="M17.3,199.9v9.4c0,0.3,0.2,0.4,0.5,0.4h1.7v0.6H13v-0.6h1.2c0.3,0,0.5-0.1,0.5-0.4v-9.9c0-1.2-0.3-2.1-0.8-2.7
	c-0.5-0.6-1.2-0.9-2.1-0.9c-1.2,0-2.3,0.7-3.1,2.2c-0.8,1.5-1.2,3.6-1.2,6.3v4.9c0,0.3,0.2,0.5,0.5,0.5h1.2v0.6H2.6v-0.6h1.7
	c0.3,0,0.5-0.1,0.5-0.4v-13.3c0-0.3-0.2-0.5-0.5-0.5H2.6v-0.6h1.8c1.4,0,2.4-0.1,3-0.2v4.9c0.8-3.4,2.6-5.1,5.4-5.1
	c1.2,0,2.3,0.5,3.2,1.4C16.8,196.7,17.3,198.1,17.3,199.9z"/>
<path class="st1" d="M38.1,194.5c1.7,0,3,0.6,3.9,1.7c1,1.1,1.4,2.7,1.4,4.9c0,0.4,0,0.9-0.1,1.4h-9.8v0.3c0,2.3,0.4,4.1,1.2,5.4
	c0.8,1.3,1.9,1.9,3.2,1.9c1.3,0,2.4-0.3,3.2-1c0.8-0.7,1.4-1.6,1.7-2.9l0.7,0.1c-0.3,1.5-0.9,2.6-2,3.4c-1,0.8-2.2,1.2-3.6,1.2
	c-2.1,0-3.8-0.7-5.2-2.2c-1.4-1.5-2.1-3.5-2.1-6c0-2.5,0.7-4.5,2.1-6C34.3,195.2,36,194.5,38.1,194.5z M41,199.8
	c0-3-1.1-4.4-3.3-4.4c-1.1,0-2.1,0.6-2.8,1.8c-0.8,1.2-1.2,2.7-1.2,4.6h7.2C40.9,200.9,41,200.2,41,199.8z"/>
<path class="st1" d="M70.8,194.9h4.6v0.6H74c-0.2,0-0.4,0.2-0.5,0.5L69,210.5h-1l-3.6-11.1l-3.6,11.1h-1l-4.5-14.4
	c-0.1-0.3-0.2-0.5-0.5-0.5h-1.3v-0.6h6.1v0.6h-1.8l3.2,11.1l3.6-11.1h1.1l3.6,11l3.3-11h-1.8V194.9z"/>
<path class="st1" d="M89.7,200.7l3.7,1.4c0.9,0.3,1.6,0.9,2,1.5c0.5,0.7,0.7,1.4,0.7,2.3c0,1.3-0.5,2.4-1.5,3.5
	c-1,1-2.4,1.5-4.2,1.5c-1.7,0-3.4-0.3-4.9-1c0.1-0.6,0.2-1.6,0.2-3v-1.4h0.6l0.3,1.9c0.2,1.8,1.5,2.7,3.8,2.7c1,0,1.9-0.3,2.6-0.9
	c0.7-0.6,1-1.4,1-2.2c0-1.1-0.7-1.9-2.1-2.4l-3.7-1.4c-0.8-0.3-1.5-0.8-1.9-1.5s-0.6-1.4-0.6-2.3c0-1.3,0.5-2.4,1.4-3.3
	c0.9-1,2.1-1.5,3.4-1.5c1.4,0,3,0.3,4.7,1c-0.1,0.6-0.2,1.6-0.2,3v1.4h-0.6l-0.3-1.9c-0.2-1.7-1.3-2.6-3.3-2.6
	c-0.9,0-1.6,0.3-2.2,0.8c-0.6,0.6-0.9,1.2-0.9,1.9C87.8,199.4,88.4,200.2,89.7,200.7z"/>
<path class="st1" d="M109.7,209.3v-21c0-0.3-0.2-0.5-0.5-0.5h-1.7v-0.6h1.8c1.4,0,2.4-0.1,3-0.2v22.4c0,0.3,0.2,0.5,0.5,0.5h1.7v0.6
	h-7v-0.6h1.7C109.6,209.8,109.7,209.6,109.7,209.3z"/>
<path class="st1" d="M133,194.5c1.7,0,3,0.6,3.9,1.7c1,1.1,1.4,2.7,1.4,4.9c0,0.4,0,0.9-0.1,1.4h-9.8v0.3c0,2.3,0.4,4.1,1.2,5.4
	c0.8,1.3,1.9,1.9,3.2,1.9c1.3,0,2.4-0.3,3.2-1c0.8-0.7,1.4-1.6,1.7-2.9l0.7,0.1c-0.3,1.5-0.9,2.6-2,3.4c-1,0.8-2.2,1.2-3.6,1.2
	c-2.1,0-3.8-0.7-5.2-2.2c-1.4-1.5-2.1-3.5-2.1-6c0-2.5,0.7-4.5,2.1-6C129.2,195.2,130.9,194.5,133,194.5z M135.8,199.8
	c0-3-1.1-4.4-3.3-4.4c-1.1,0-2.1,0.6-2.8,1.8c-0.8,1.2-1.2,2.7-1.2,4.6h7.2C135.8,200.9,135.8,200.2,135.8,199.8z"/>
<path class="st1" d="M153.7,191.1h0.5v3.8h3.6v0.6h-3.6v12.2c0,1.3,0.4,1.9,1.1,1.9c0.3,0,0.6-0.2,0.9-0.5c0.3-0.3,0.4-0.7,0.4-1.1
	c0-0.4,0-0.8-0.1-1.2l0.7-0.1c0.1,0.4,0.1,0.8,0.1,1.2c0,0.9-0.3,1.5-0.8,2.1c-0.5,0.5-1.2,0.8-2,0.8s-1.5-0.3-2.1-1
	c-0.5-0.7-0.8-1.7-0.8-3.1v-10.7c0-0.3-0.2-0.5-0.5-0.5h-1.7v-0.6h1.8C152,194.9,152.9,193.6,153.7,191.1z"/>
<path class="st1" d="M172.2,191.1h0.5v3.8h3.6v0.6h-3.6v12.2c0,1.3,0.4,1.9,1.1,1.9c0.3,0,0.6-0.2,0.9-0.5c0.3-0.3,0.4-0.7,0.4-1.1
	c0-0.4,0-0.8-0.1-1.2l0.7-0.1c0.1,0.4,0.1,0.8,0.1,1.2c0,0.9-0.3,1.5-0.8,2.1c-0.5,0.5-1.2,0.8-2,0.8c-0.8,0-1.5-0.3-2.1-1
	c-0.5-0.7-0.8-1.7-0.8-3.1v-10.7c0-0.3-0.2-0.5-0.5-0.5H168v-0.6h1.8C170.5,194.9,171.3,193.6,172.2,191.1z"/>
<path class="st1" d="M194.5,194.5c1.7,0,3,0.6,3.9,1.7c1,1.1,1.4,2.7,1.4,4.9c0,0.4,0,0.9-0.1,1.4h-9.8v0.3c0,2.3,0.4,4.1,1.2,5.4
	c0.8,1.3,1.9,1.9,3.2,1.9c1.3,0,2.4-0.3,3.2-1c0.8-0.7,1.4-1.6,1.7-2.9l0.7,0.1c-0.3,1.5-0.9,2.6-2,3.4c-1,0.8-2.2,1.2-3.6,1.2
	c-2.1,0-3.8-0.7-5.2-2.2c-1.4-1.5-2.1-3.5-2.1-6c0-2.5,0.7-4.5,2.1-6C190.7,195.2,192.4,194.5,194.5,194.5z M197.3,199.8
	c0-3-1.1-4.4-3.3-4.4c-1.1,0-2.1,0.6-2.8,1.8c-0.8,1.2-1.2,2.7-1.2,4.6h7.2C197.3,200.9,197.3,200.2,197.3,199.8z"/>
<path class="st1" d="M220.9,194.5c0.9,0,1.7,0.4,2.3,1.2c0.6,0.8,0.9,1.8,0.9,3s-0.5,1.8-1.5,1.8c-0.6,0-1-0.2-1.4-0.5
	c0.3-0.7,0.5-1.4,0.5-2.1c0-1.3-0.5-1.9-1.6-1.9c-0.9,0-1.7,0.7-2.4,2.2c-0.7,1.5-1,3.6-1,6.4v4.8c0,0.3,0.2,0.5,0.5,0.5h2.4v0.6
	h-7.7v-0.6h1.7c0.3,0,0.5-0.2,0.5-0.5v-13.2c0-0.3-0.2-0.5-0.5-0.5h-1.7v-0.6h1.8c1.4,0,2.4-0.1,3-0.2v4.6c0.4-1.7,0.9-2.9,1.7-3.6
	C219.1,194.9,220,194.5,220.9,194.5z"/>
<path class="st1" d="M30,80.4c-5.3,0-10.6-1.4-15.8-4.3c-1.8-0.9-3-1.3-3.6-1.3c-1.2,0-1.8,0.8-1.9,2.5L8.6,79H6.3V59h2.2
	c0.7,6.2,3,10.7,6.8,13.7c3.9,2.9,8.5,4.3,13.8,4.3c5.4,0,9.4-1.4,12.1-4.3c2.8-2.9,4.2-6.3,4.2-10.2c0-6.2-3.6-11-10.8-14.2
	l-14.3-6.4c-4.3-1.9-7.6-4.5-9.7-7.8c-2.2-3.4-3.2-7-3.2-10.8c0-5.8,2-10.8,5.9-15C17.2,4.1,22.8,2,30.2,2c4.3,0,8.8,1.4,13.3,4.3
	C45,7.2,46,7.6,46.6,7.6c1,0,1.6-0.8,1.7-2.5l0.1-2.4h2.3v20.8h-2.2c-0.6-6.2-2.6-10.7-6-13.6c-3.3-3-7.3-4.4-12.1-4.4
	c-4.7,0-8.4,1.3-11,4c-2.6,2.6-3.8,5.5-3.8,8.9c0,3.3,0.9,6.2,2.6,8.9c1.8,2.6,4.5,4.7,8,6.2l14.4,6.4c4.8,2.2,8.4,5,10.8,8.5
	c2.5,3.4,3.7,7.2,3.7,11.2c0,5.7-2.3,10.6-6.8,14.8C43.7,78.4,37.6,80.4,30,80.4z"/>
<path class="st1" d="M105.3,14.4h1.8v12.7h12v2.2h-12V70c0,4.3,1.2,6.5,3.6,6.5c1.1,0,2.1-0.5,2.9-1.6c0.9-1,1.3-2.2,1.3-3.6
	s-0.1-2.6-0.4-3.8l2.3-0.4c0.3,1.2,0.5,2.5,0.5,4c0,2.9-0.9,5.2-2.6,6.8c-1.7,1.7-3.9,2.5-6.7,2.5c-2.8,0-5.1-1.1-6.8-3.4
	c-1.8-2.3-2.6-5.8-2.6-10.3V31c0-1.1-0.6-1.7-1.7-1.7h-5.6v-2.2H97C99.6,27.2,102.3,22.9,105.3,14.4z"/>
<path class="st1" d="M184.7,51l0.1-4.2v-4.2c0-9.4-3-14-9.1-14c-2.6,0-4.7,0.9-6.2,2.8c-1.4,1.8-2.2,3.8-2.2,6.2
	c0,2.4,0.3,4.5,1,6.2c-1.4,1.2-3.2,1.8-5.6,1.8c-2.4,0-3.6-2-3.6-5.9s1.5-7.2,4.6-10c3.1-2.7,7.5-4.1,13.2-4.1
	c11.1,0,16.7,6.6,16.7,19.7V70c0,4.3,1.2,6.5,3.6,6.5c1.1,0,2.1-0.5,2.9-1.6c0.9-1,1.3-2.2,1.3-3.6s-0.1-2.6-0.4-3.8l2.3-0.4
	c0.3,1.2,0.5,2.5,0.5,4c0,2.9-0.9,5.2-2.6,6.8c-1.7,1.7-3.9,2.5-6.7,2.5c-2.8,0-5.1-1.1-6.8-3.4c-1.8-2.3-2.6-5.8-2.6-10.3v-2.2
	c-1.4,5.4-3.5,9.4-6.5,12c-3,2.6-6.4,3.8-10.3,3.8c-3.8,0-7-1.2-9.4-3.6c-2.3-2.5-3.5-5.7-3.5-9.7c0-4.1,1.9-7.7,5.6-10.8
	c3.8-3.2,9.2-4.8,16.2-4.8c1.5,0,4.1,0.2,7.7,0.6V51z M170.7,75.9c3.4,0,6.4-1.9,9-5.6c2.7-3.8,4.3-9.2,4.8-16.1
	c-0.8-0.1-1.9-0.1-3.4-0.1c-6.4,0-11,1.4-13.8,4.1c-2.7,2.6-4.1,5.7-4.1,9.2c0,2.3,0.7,4.3,2,6S168.5,75.9,170.7,75.9z"/>
<path class="st1" d="M269,27.2h15.2v2.2h-4.4c-0.7,0-1.3,0.6-1.7,1.7l-20.8,55.6c-0.2,0.7-0.6,1.8-1.2,3.2l-1.3,3.2
	c-0.2,0.7-0.6,1.7-1.1,2.9c-0.5,1.3-0.9,2.2-1.2,2.9c-0.3,0.7-0.7,1.6-1.2,2.5c-0.6,1.2-1.4,2.3-2.4,3.4c-1,1.1-2.1,1.7-3.2,1.7
	s-2.3-0.7-3.6-2.2c-1.2-1.4-1.9-2.8-2.2-4.4c7.3-3.1,12.2-8.3,14.9-15.6l2-5.5L239.1,31c-0.4-1.1-1-1.7-1.7-1.7H233v-2.2h20.4v2.2
	h-6l13.8,37.9l13.9-37.9H269V27.2z"/>
<path class="st1" d="M383.4,75.2V31c0-1.1-0.6-1.7-1.7-1.7h-5.6v-2.2h5.9c4.8,0,8.2-0.2,10.1-0.7v49c0,1,0.6,1.4,1.7,1.4h5.6V79
	h-23.3v-2.2h5.6C382.8,76.8,383.4,76.3,383.4,75.2z M383.6,14c-1-1.1-1.6-2.5-1.6-4.1c0-1.6,0.5-2.9,1.6-4c1.1-1.1,2.5-1.7,4.1-1.7
	s2.9,0.6,4,1.7c1.1,1,1.7,2.4,1.7,4c0,1.6-0.6,3-1.7,4.1c-1,1-2.4,1.6-4,1.6S384.8,15,383.6,14z"/>
<path class="st1" d="M485.9,44v31.4c0,1,0.6,1.4,1.7,1.4h5.6V79h-21.6v-2.2h4c1.1,0,1.7-0.5,1.7-1.4v-33c0-4.1-0.9-7.1-2.8-9
	c-1.8-2-4.1-3-7.1-3c-4.2,0-7.6,2.5-10.3,7.4c-2.7,4.9-4.1,11.9-4.1,21.1v16.2c0,1.1,0.6,1.7,1.7,1.7h4V79h-21.6v-2.2h5.6
	c1.1,0,1.7-0.5,1.7-1.4V31c0-1.1-0.6-1.7-1.7-1.7h-5.6v-2.2h5.9c4.8,0,8.2-0.2,10.1-0.7v16.3c2.7-11.4,8.7-17,18-17
	c4.2,0,7.7,1.5,10.6,4.6C484.5,33.2,485.9,37.8,485.9,44z"/>
<path class="st1" d="M620,6.8v68.6c0,1,0.6,1.4,1.7,1.4h10.4V79H598v-2.2h10.4c1.1,0,1.7-0.5,1.7-1.4V6.8h-15.5
	c-2.1,0-3.2,0.9-3.4,2.6l-1.8,14h-2.8v-5.6c0-7-0.4-12.2-1.1-15.5c2.6,0.7,7,1.1,13.3,1.1h32.2c6.3,0,10.8-0.4,13.3-1.1
	c-0.7,3.3-1.1,8.4-1.1,15.5v5.6h-2.8l-1.8-14c-0.2-1.8-1.3-2.6-3.4-2.6H620z"/>
<path class="st1" d="M674.6,73.1c-4.5-4.9-6.7-11.6-6.7-20s2.2-15.2,6.7-20c4.5-4.9,10.3-7.3,17.5-7.3c7.2,0,13,2.4,17.5,7.3
	c4.6,4.9,6.8,11.6,6.8,20s-2.3,15.2-6.8,20c-4.5,4.9-10.3,7.3-17.5,7.3C684.9,80.4,679.1,78,674.6,73.1z M681.3,35.1
	c-2.9,4.4-4.3,10.4-4.3,18s1.4,13.6,4.3,18.1c2.9,4.4,6.5,6.6,10.8,6.6c4.3,0,7.9-2.2,10.8-6.6c3-4.5,4.4-10.5,4.4-18.1
	s-1.5-13.6-4.4-18c-2.9-4.5-6.5-6.7-10.8-6.7C687.8,28.4,684.2,30.6,681.3,35.1z"/>
<path class="st1" d="M801.3,26.4v48.7c0,1.1,0.6,1.7,1.7,1.7h5.6V79h-5.9c-4.8,0-8.2,0.2-10.1,0.7V63.5c-2.7,11.3-8.7,16.9-18,16.9
	c-4.2,0-7.7-1.5-10.6-4.4c-2.9-3-4.3-7.6-4.3-13.8V31c0-1.1-0.6-1.7-1.7-1.7h-5.6v-2.2h5.9c4.8,0,8.2-0.2,10.1-0.7v37.3
	c0,4.1,0.9,7.1,2.6,9.1c1.8,1.9,4.2,2.9,7.2,2.9c4.2,0,7.7-2.6,10.3-7.7c2.7-5.2,4.1-12.6,4.1-22.3V31c0-1.1-0.6-1.7-1.7-1.7h-5.6
	v-2.2h5.9C796.1,27.2,799.4,26.9,801.3,26.4z"/>
<path class="st1" d="M870.3,28.6c-4.6,0-8.3,2.2-11.2,6.6c-2.8,4.3-4.2,10.3-4.2,17.9s1.4,13.6,4.1,18c2.8,4.3,6.4,6.5,10.7,6.5
	c4.4,0,8-1.1,10.8-3.4c2.8-2.2,4.7-5.4,5.8-9.6l2.3,0.5c-1,4.9-3.2,8.7-6.6,11.4c-3.4,2.6-7.4,4-11.9,4c-7,0-12.8-2.4-17.4-7.3
	c-4.6-4.9-6.8-11.6-6.8-20s2.3-15.2,7-20c4.6-4.9,10.5-7.3,17.5-7.3c5.4,0,9.5,1.2,12.2,3.7c2.7,2.4,4.1,5.6,4.1,9.7
	c0,5.3-1.5,7.9-4.4,7.9c-2.4,0-4.3-0.6-5.8-1.9c1.1-2.4,1.7-4.9,1.7-7.4c0-2.6-0.7-4.8-2-6.5C874.8,29.5,872.9,28.6,870.3,28.6z"/>
<path class="st1" d="M972.8,44v31.4c0,1,0.6,1.4,1.7,1.4h5.6V79h-21.6v-2.2h4c1.1,0,1.7-0.5,1.7-1.4v-33c0-4.1-0.9-7.1-2.8-9
	c-1.8-2-4.1-3-7.1-3c-4.2,0-7.6,2.5-10.3,7.4c-2.7,4.9-4.1,11.9-4.1,21.1v16.2c0,1.1,0.6,1.7,1.7,1.7h4V79h-21.6v-2.2h5.6
	c1.1,0,1.7-0.5,1.7-1.4V5.1c0-1.1-0.6-1.7-1.7-1.7h-5.6V1.2h5.9c4.8,0,8.2-0.2,10.1-0.7v42.2c2.7-11.4,8.7-17,18-17
	c4.2,0,7.7,1.5,10.6,4.6C971.3,33.2,972.8,37.8,972.8,44z"/>
</svg>
