<svg width="96" height="26" viewBox="0 0 96 26" fill="none" xmlns="http://www.w3.org/2000/svg">
<path d="M3.44781 20.212C3.44781 21.22 3.72381 21.928 4.27581 22.336C4.82781 22.744 5.46381 22.948 6.18381 22.948C6.92781 22.948 7.91181 22.744 9.13581 22.336L9.20781 18.16C6.13581 18.328 4.22781 18.856 3.48381 19.744C3.45981 19.864 3.44781 20.02 3.44781 20.212ZM9.17181 23.92C7.61181 24.832 6.18381 25.288 4.88781 25.288C3.59181 25.288 2.55981 24.88 1.79181 24.064C1.04781 23.224 0.675812 22.168 0.675812 20.896C0.675812 19.6 1.29981 18.604 2.54781 17.908C3.81981 17.212 6.03981 16.768 9.20781 16.576L9.24381 14.236C9.26781 13.156 9.00381 12.292 8.45181 11.644C7.92381 10.972 7.19181 10.636 6.25581 10.636C5.31981 10.636 4.50381 10.744 3.80781 10.96L3.51981 13.696L2.65581 13.948L0.675812 11.14C1.20381 10.54 1.99581 9.952 3.05181 9.376C4.10781 8.8 5.36781 8.512 6.83181 8.512C10.4078 8.512 12.1958 10.684 12.1958 15.028L12.0158 23.056L14.4998 23.92L14.2838 24.712L11.2238 25.288L10.5038 25L9.35181 23.992L9.17181 23.92ZM23.5957 9.88C25.1557 8.968 26.9077 8.512 28.8517 8.512C30.7957 8.512 32.3197 9.316 33.4237 10.924C34.5517 12.532 35.1157 14.608 35.1157 17.152C35.1157 19.672 34.3477 21.664 32.8117 23.128C31.2997 24.568 29.3677 25.288 27.0157 25.288C26.0317 25.288 24.8797 25.18 23.5597 24.964C22.2637 24.724 21.3277 24.46 20.7517 24.172V3.112L18.2317 2.716L18.0157 1.924L22.8757 0.231999L23.5957 0.52V9.88ZM23.6677 22.48C24.6277 22.816 25.8037 22.984 27.1957 22.984C28.6117 22.984 29.7877 22.804 30.7237 22.444C31.6117 21.268 32.0557 19.552 32.0557 17.296C32.0557 13.096 30.4717 10.996 27.3037 10.996C26.1277 10.996 24.9157 11.152 23.6677 11.464V22.48ZM44.51 16.504C44.51 20.824 46.154 22.984 49.442 22.984C50.642 22.984 51.674 22.804 52.538 22.444C53.426 21.292 53.87 19.576 53.87 17.296C53.87 12.976 52.226 10.816 48.938 10.816C47.738 10.816 46.706 10.996 45.842 11.356C44.954 12.508 44.51 14.224 44.51 16.504ZM48.974 25.288C46.742 25.288 44.93 24.556 43.538 23.092C42.146 21.628 41.45 19.564 41.45 16.9C41.45 14.212 42.218 12.148 43.754 10.708C45.29 9.244 47.174 8.512 49.406 8.512C51.638 8.512 53.45 9.244 54.842 10.708C56.234 12.172 56.93 14.248 56.93 16.936C56.93 19.6 56.162 21.664 54.626 23.128C53.09 24.568 51.206 25.288 48.974 25.288ZM70.065 25.288C66.609 25.288 64.881 23.452 64.881 19.78V11.392L62.361 10.996L62.145 10.204L67.077 8.512L67.797 8.8V19.348C67.797 20.572 68.073 21.46 68.625 22.012C69.201 22.54 70.113 22.804 71.361 22.804C72.609 22.804 73.857 22.648 75.105 22.336V11.392L72.585 10.996L72.369 10.204L77.301 8.512L78.021 8.8V23.056L80.505 23.92L80.289 24.712L77.229 25.288L76.509 25L75.357 23.992L75.177 23.92C73.521 24.832 71.817 25.288 70.065 25.288ZM87.8194 21.796V10.528H85.2994L85.0834 9.736L87.8194 8.512L89.4034 5.164L90.7354 5.416V8.8H95.0194L95.4154 9.232L95.0554 10.6L90.7354 10.456V20.968C90.7354 21.856 90.9154 22.516 91.2754 22.948C91.6354 23.356 92.2714 23.56 93.1834 23.56H95.2354L95.4154 24.568C93.9034 25.048 92.5714 25.288 91.4194 25.288C90.2674 25.288 89.3794 24.964 88.7554 24.316C88.1314 23.668 87.8194 22.828 87.8194 21.796Z" fill="#252C2C"/>
</svg>
