<svg width="121" height="34" viewBox="0 0 121 34" fill="none" xmlns="http://www.w3.org/2000/svg">
<path d="M12.0874 10.384C13.0714 11.44 13.5634 12.82 13.5634 14.524C13.5634 16.204 12.9634 17.596 11.7634 18.7C10.5874 19.78 9.06338 20.32 7.19138 20.32C6.71138 20.32 6.25538 20.284 5.82338 20.212C5.17538 20.836 4.85138 21.46 4.85138 22.084C4.85138 22.3 5.01938 22.444 5.35538 22.516C5.69138 22.564 7.20338 22.708 9.89138 22.948C11.4034 23.092 12.6514 23.548 13.6354 24.316C14.6434 25.084 15.1474 26.284 15.1474 27.916C15.1474 29.548 14.4274 30.892 12.9874 31.948C11.5714 33.028 9.71138 33.568 7.40738 33.568C5.12738 33.568 3.36338 33.136 2.11538 32.272C0.867376 31.432 0.243376 30.304 0.243376 28.888C0.243376 27.16 1.13138 25.684 2.90738 24.46C2.52338 24.028 2.33138 23.56 2.33138 23.056C2.33138 22.528 2.49938 21.952 2.83538 21.328C3.17138 20.68 3.60338 20.128 4.13138 19.672C3.12338 19.192 2.33138 18.496 1.75538 17.584C1.20338 16.672 0.927376 15.616 0.927376 14.416C0.927376 12.64 1.51538 11.2 2.69138 10.096C3.86738 8.992 5.37938 8.44 7.22738 8.44C8.57138 8.44 9.75938 8.752 10.7914 9.376C11.7754 8.152 12.6034 7.288 13.2754 6.784L14.8234 8.584L14.6074 9.124C13.2394 9.796 12.3994 10.216 12.0874 10.384ZM4.34738 25.288C3.45938 26.104 3.01538 27.052 3.01538 28.132C3.01538 29.236 3.45938 30.076 4.34738 30.652C5.25938 31.228 6.48338 31.516 8.01938 31.516C9.57938 31.516 10.8994 31.192 11.9794 30.544C12.3634 29.992 12.5554 29.236 12.5554 28.276C12.5554 27.316 12.2554 26.68 11.6554 26.368C11.0554 26.056 10.1674 25.84 8.99138 25.72C7.38338 25.552 6.11138 25.468 5.17538 25.468C4.93538 25.444 4.65938 25.384 4.34738 25.288ZM3.73538 14.452C3.73538 15.628 4.04738 16.552 4.67138 17.224C5.29538 17.872 6.15938 18.196 7.26338 18.196C8.39138 18.196 9.27938 18.004 9.92738 17.62C10.1194 17.38 10.2874 16.924 10.4314 16.252C10.5994 15.58 10.6834 14.932 10.6834 14.308C10.6834 13.132 10.3714 12.22 9.74738 11.572C9.12338 10.9 8.24738 10.564 7.11938 10.564C6.01538 10.564 5.13938 10.756 4.49138 11.14C4.29938 11.38 4.11938 11.836 3.95138 12.508C3.80738 13.18 3.73538 13.828 3.73538 14.452ZM23.3658 20.212C23.3658 21.22 23.6418 21.928 24.1938 22.336C24.7458 22.744 25.3818 22.948 26.1018 22.948C26.8458 22.948 27.8298 22.744 29.0538 22.336L29.1258 18.16C26.0538 18.328 24.1458 18.856 23.4018 19.744C23.3778 19.864 23.3658 20.02 23.3658 20.212ZM29.0898 23.92C27.5298 24.832 26.1018 25.288 24.8058 25.288C23.5098 25.288 22.4778 24.88 21.7098 24.064C20.9658 23.224 20.5938 22.168 20.5938 20.896C20.5938 19.6 21.2178 18.604 22.4658 17.908C23.7378 17.212 25.9578 16.768 29.1258 16.576L29.1618 14.236C29.1858 13.156 28.9218 12.292 28.3698 11.644C27.8418 10.972 27.1098 10.636 26.1738 10.636C25.2378 10.636 24.4218 10.744 23.7258 10.96L23.4378 13.696L22.5738 13.948L20.5938 11.14C21.1218 10.54 21.9138 9.952 22.9698 9.376C24.0258 8.8 25.2858 8.512 26.7498 8.512C30.3258 8.512 32.1138 10.684 32.1138 15.028L31.9338 23.056L34.4178 23.92L34.2018 24.712L31.1418 25.288L30.4218 25L29.2698 23.992L29.0898 23.92ZM41.5697 22.156V3.112L39.0497 2.716L38.8337 1.924L43.7657 0.231999L44.4857 0.52V23.056L47.3297 24.208L47.1137 25H39.0497L38.8337 24.208L40.4537 23.524C40.8857 23.356 41.1737 23.176 41.3177 22.984C41.4857 22.792 41.5697 22.516 41.5697 22.156ZM54.5564 22.156V3.112L52.0364 2.716L51.8204 1.924L56.7524 0.231999L57.4724 0.52V23.056L60.3164 24.208L60.1004 25H52.0364L51.8204 24.208L53.4404 23.524C53.8724 23.356 54.1604 23.176 54.3044 22.984C54.4724 22.792 54.5564 22.516 54.5564 22.156ZM65.5305 16.9C65.5305 14.26 66.2865 12.208 67.7985 10.744C69.3105 9.256 71.0745 8.512 73.0905 8.512C75.1065 8.512 76.6305 9.112 77.6625 10.312C78.6945 11.488 79.2105 13.108 79.2105 15.172V16.36L78.6705 16.9H68.5905C68.6385 18.748 69.1545 20.224 70.1385 21.328C71.1225 22.432 72.3825 22.984 73.9185 22.984C75.4785 22.984 76.9665 22.672 78.3825 22.048L78.8865 22.984C78.5985 23.272 78.2505 23.572 77.8425 23.884C77.4345 24.172 76.7745 24.484 75.8625 24.82C74.9745 25.132 74.0385 25.288 73.0545 25.288C70.8225 25.288 69.0105 24.556 67.6185 23.092C66.2265 21.604 65.5305 19.54 65.5305 16.9ZM72.6945 10.816C71.5665 10.816 70.6425 10.996 69.9225 11.356C69.6345 11.716 69.3465 12.292 69.0585 13.084C68.7945 13.876 68.6505 14.632 68.6265 15.352L76.3305 15.136C76.3305 12.256 75.1185 10.816 72.6945 10.816ZM94.6573 10.888C94.0333 10.888 93.2893 10.984 92.4253 11.176C91.5853 11.344 90.9973 11.5 90.6613 11.644V23.056L93.8653 24.208L93.6493 25H85.2253L85.0093 24.208L86.6293 23.524C87.0613 23.356 87.3493 23.176 87.4933 22.984C87.6613 22.792 87.7453 22.516 87.7453 22.156V11.392L85.2253 10.996L85.0093 10.204L89.6533 8.512L90.3733 8.8L90.5173 10.132L90.6613 10.204C90.9973 9.94 91.6813 9.616 92.7133 9.232C93.7693 8.824 94.5493 8.584 95.0533 8.512C95.5573 8.656 96.0973 8.968 96.6733 9.448C97.2493 9.904 97.6453 10.336 97.8613 10.744L95.5213 13.876L94.6573 13.624V10.888ZM108.183 10.276C107.727 10.468 107.499 10.732 107.499 11.068C107.499 11.38 107.559 11.668 107.679 11.932L111.603 21.184L115.635 10.744L113.079 9.592L113.295 8.8H120.279L120.495 9.592L118.731 10.348C118.275 10.54 117.939 10.84 117.723 11.248C117.675 11.392 117.591 11.62 117.471 11.932L112.359 24.568C110.703 28.648 109.239 31.648 107.967 33.568L105.267 32.704L104.979 31.984C107.499 29.272 109.191 26.956 110.055 25.036L104.007 10.744L101.451 9.592L101.667 8.8H109.587L109.803 9.592L108.183 10.276Z" fill="#252C2C"/>
</svg>
