<svg width="94" height="26" viewBox="0 0 94 26" fill="none" xmlns="http://www.w3.org/2000/svg">
<path d="M13.5665 14.452C13.5665 13.228 13.2785 12.352 12.7025 11.824C12.1505 11.272 11.2505 10.996 10.0025 10.996C8.75448 10.996 7.50648 11.152 6.25848 11.464V23.056L9.10248 24.208L8.88648 25H0.822483L0.606483 24.208L2.22648 23.524C2.65848 23.356 2.94648 23.176 3.09048 22.984C3.25848 22.792 3.34248 22.516 3.34248 22.156V3.112L0.822483 2.716L0.606483 1.924L5.46648 0.231999L6.18648 0.52V9.88C7.84248 8.968 9.54648 8.512 11.2985 8.512C14.7545 8.512 16.4825 10.348 16.4825 14.02V23.056L19.3265 24.208L19.1105 25H11.0465L10.8305 24.208L12.4505 23.524C12.8825 23.356 13.1705 23.176 13.3145 22.984C13.4825 22.792 13.5665 22.516 13.5665 22.156V14.452ZM27.4698 16.504C27.4698 20.824 29.1138 22.984 32.4018 22.984C33.6018 22.984 34.6338 22.804 35.4978 22.444C36.3858 21.292 36.8298 19.576 36.8298 17.296C36.8298 12.976 35.1858 10.816 31.8978 10.816C30.6978 10.816 29.6658 10.996 28.8018 11.356C27.9138 12.508 27.4698 14.224 27.4698 16.504ZM31.9338 25.288C29.7018 25.288 27.8898 24.556 26.4978 23.092C25.1058 21.628 24.4098 19.564 24.4098 16.9C24.4098 14.212 25.1778 12.148 26.7138 10.708C28.2498 9.244 30.1338 8.512 32.3658 8.512C34.5978 8.512 36.4098 9.244 37.8018 10.708C39.1938 12.172 39.8898 14.248 39.8898 16.936C39.8898 19.6 39.1218 21.664 37.5858 23.128C36.0498 24.568 34.1658 25.288 31.9338 25.288ZM68.9007 14.452C68.9007 13.228 68.6127 12.352 68.0367 11.824C67.4847 11.272 66.5727 10.996 65.3007 10.996C64.0287 10.996 62.6727 11.188 61.2327 11.572C61.4727 12.364 61.5927 13.18 61.5927 14.02V23.056L64.4367 24.208L64.2207 25H56.1567L55.9407 24.208L57.5607 23.524C57.9927 23.356 58.2807 23.176 58.4247 22.984C58.5927 22.792 58.6767 22.516 58.6767 22.156V14.452C58.6767 13.228 58.3887 12.352 57.8127 11.824C57.2607 11.272 56.3607 10.996 55.1127 10.996C53.8647 10.996 52.6167 11.152 51.3687 11.464V23.056L54.2127 24.208L53.9967 25H45.9327L45.7167 24.208L47.3367 23.524C47.7687 23.356 48.0567 23.176 48.2007 22.984C48.3687 22.792 48.4527 22.516 48.4527 22.156V11.392L45.9327 10.996L45.7167 10.204L50.3607 8.512L51.0807 8.8L51.1527 9.808L51.2967 9.88C52.9527 8.968 54.6807 8.512 56.4807 8.512C58.2807 8.512 59.6127 9.052 60.4767 10.132C62.5887 9.052 64.5927 8.512 66.4887 8.512C70.0407 8.512 71.8167 10.348 71.8167 14.02V23.056L74.6607 24.208L74.4447 25H66.3807L66.1647 24.208L67.7847 23.524C68.2167 23.356 68.5047 23.176 68.6487 22.984C68.8167 22.792 68.9007 22.516 68.9007 22.156V14.452ZM79.7387 16.9C79.7387 14.26 80.4947 12.208 82.0067 10.744C83.5187 9.256 85.2827 8.512 87.2987 8.512C89.3147 8.512 90.8387 9.112 91.8707 10.312C92.9027 11.488 93.4187 13.108 93.4187 15.172V16.36L92.8787 16.9H82.7987C82.8467 18.748 83.3627 20.224 84.3467 21.328C85.3307 22.432 86.5907 22.984 88.1267 22.984C89.6867 22.984 91.1747 22.672 92.5907 22.048L93.0947 22.984C92.8067 23.272 92.4587 23.572 92.0507 23.884C91.6427 24.172 90.9827 24.484 90.0707 24.82C89.1827 25.132 88.2467 25.288 87.2627 25.288C85.0307 25.288 83.2187 24.556 81.8267 23.092C80.4347 21.604 79.7387 19.54 79.7387 16.9ZM86.9027 10.816C85.7747 10.816 84.8507 10.996 84.1307 11.356C83.8427 11.716 83.5547 12.292 83.2667 13.084C83.0027 13.876 82.8587 14.632 82.8347 15.352L90.5387 15.136C90.5387 12.256 89.3267 10.816 86.9027 10.816Z" fill="black"/>
</svg>
