<svg width="647" height="97" viewBox="0 0 647 97" fill="none" xmlns="http://www.w3.org/2000/svg">
<path d="M86.432 13.352V95L76.064 96.152L22.784 20.408V86.792L35.168 91.832L34.304 95H1.76L0.896 91.832L8.816 88.52C10.544 87.848 11.696 87.128 12.272 86.36C12.944 85.592 13.28 84.488 13.28 83.048V9.60799L0.896 4.568L1.76 1.39999H25.808L76.784 73.976V74.264L76.928 73.976V9.60799L64.544 4.568L65.408 1.39999H97.952L98.816 4.568L90.896 7.88C89.168 8.55199 87.968 9.27199 87.296 10.04C86.72 10.808 86.432 11.912 86.432 13.352ZM144.532 14.792C138.58 22.952 135.604 33.464 135.604 46.328C135.604 59.192 138.292 69.224 143.668 76.424C149.14 83.624 157.012 87.224 167.284 87.224C175.828 87.224 182.788 85.448 188.164 81.896C194.116 74.6 197.092 64.328 197.092 51.08C197.092 37.736 194.356 27.464 188.884 20.264C183.508 13.064 175.732 9.46399 165.556 9.46399C157.108 9.46399 150.1 11.24 144.532 14.792ZM122.212 48.92C122.212 40.856 123.46 33.656 125.956 27.32C128.452 20.984 131.812 15.896 136.036 12.056C144.868 4.18399 155.476 0.247993 167.86 0.247993C180.34 0.247993 190.564 4.47199 198.532 12.92C206.5 21.368 210.484 32.984 210.484 47.768C210.484 55.832 209.236 63.032 206.74 69.368C204.244 75.608 200.836 80.648 196.516 84.488C187.876 92.264 177.316 96.152 164.836 96.152C152.356 96.152 142.132 91.976 134.164 83.624C126.196 75.272 122.212 63.704 122.212 48.92ZM337.108 13.352L340.42 86.792L352.804 91.832L351.94 95H317.812L316.948 91.832L323.428 88.664C326.5 87.224 327.988 85.352 327.892 83.048L324.724 12.488L297.076 92.12L288.148 95L285.412 93.56L258.484 12.632L254.452 86.792L265.396 91.832L264.532 95H234.292L233.428 91.832L241.348 88.52C243.748 87.464 245.14 86.408 245.524 85.352C245.62 84.872 245.716 84.104 245.812 83.048L249.412 9.60799L237.028 4.568L237.892 1.39999H266.98L268.852 2.83999L293.188 78.008L318.676 1.39999H348.628L349.492 4.568L341.572 7.88C338.5 9.128 337.012 10.952 337.108 13.352ZM400.173 13.352V86.792L412.557 91.832L411.693 95H376.413L375.549 91.832L383.469 88.52C385.197 87.848 386.349 87.128 386.925 86.36C387.597 85.592 387.933 84.488 387.933 83.048V9.60799L375.549 4.568L376.413 1.39999H411.693L412.557 4.568L404.637 7.88C402.909 8.55199 401.709 9.27199 401.037 10.04C400.461 10.808 400.173 11.912 400.173 13.352ZM522.313 13.352V95L511.945 96.152L458.665 20.408V86.792L471.049 91.832L470.185 95H437.641L436.777 91.832L444.697 88.52C446.425 87.848 447.577 87.128 448.153 86.36C448.825 85.592 449.161 84.488 449.161 83.048V9.60799L436.777 4.568L437.641 1.39999H461.689L512.665 73.976V74.264L512.809 73.976V9.60799L500.425 4.568L501.289 1.39999H533.833L534.697 4.568L526.777 7.88C525.049 8.55199 523.849 9.27199 523.177 10.04C522.601 10.808 522.313 11.912 522.313 13.352ZM620.123 84.92C620.123 84.344 619.979 83.72 619.691 83.048L613.211 64.76H579.803L572.171 86.792L584.555 91.832L583.691 95H551.867L551.003 91.832L558.923 88.52C560.555 87.848 561.563 87.224 561.947 86.648C562.427 86.072 563.003 84.872 563.675 83.048L592.475 2.83999L601.259 0.247993L604.139 1.39999L635.099 87.224L646.331 91.832L645.467 95H610.187L609.323 91.832L617.243 88.52C619.163 87.752 620.123 86.552 620.123 84.92ZM596.363 16.952L582.251 57.416H610.619L596.363 16.952Z" fill="#252C2C"/>
</svg>
