<svg width="80" height="34" viewBox="0 0 80 34" fill="none" xmlns="http://www.w3.org/2000/svg">
<path d="M8.80966 10.816C8.25766 10.576 7.40566 10.456 6.25366 10.456C5.12565 10.456 4.27365 10.744 3.69765 11.32C3.48165 11.656 3.37365 12.052 3.37365 12.508C3.37365 13.516 3.98565 14.248 5.20966 14.704L8.88166 16C9.91366 16.36 10.7417 16.948 11.3657 17.764C11.9897 18.556 12.3017 19.492 12.3017 20.572C12.3017 22.084 11.7257 23.248 10.5737 24.064C9.42166 24.88 8.06565 25.288 6.50566 25.288C4.96966 25.288 3.67366 25.036 2.61765 24.532C1.58565 24.004 0.829655 23.452 0.349655 22.876L2.18565 19.888L3.08565 20.14L3.22965 22.552C4.06965 23.032 5.13765 23.272 6.43365 23.272C8.61766 23.272 9.70966 22.528 9.70966 21.04C9.70966 20.44 9.51766 19.96 9.13366 19.6C8.74966 19.24 8.12566 18.916 7.26165 18.628L3.94965 17.548C2.96565 17.212 2.20965 16.66 1.68165 15.892C1.15365 15.124 0.889655 14.26 0.889655 13.3C0.889655 11.788 1.48965 10.612 2.68965 9.772C3.88965 8.932 5.28165 8.512 6.86566 8.512C7.82566 8.512 8.72566 8.704 9.56566 9.088C10.7417 9.592 11.5337 10.156 11.9417 10.78L9.96166 13.588L9.09765 13.336L8.80966 10.816ZM30.5669 14.452C30.5669 13.228 30.2789 12.352 29.7029 11.824C29.1509 11.272 28.2509 10.996 27.0029 10.996C25.7549 10.996 24.5069 11.152 23.2589 11.464V23.056L26.1029 24.208L25.8869 25H17.8229L17.6069 24.208L19.2269 23.524C19.6589 23.356 19.9469 23.176 20.0909 22.984C20.2589 22.792 20.3429 22.516 20.3429 22.156V3.112L17.8229 2.716L17.6069 1.924L22.4669 0.231999L23.1869 0.52V9.88C24.8429 8.968 26.5469 8.512 28.2989 8.512C31.7549 8.512 33.4829 10.348 33.4829 14.02V23.056L36.3269 24.208L36.1109 25H28.0469L27.8309 24.208L29.4509 23.524C29.8829 23.356 30.1709 23.176 30.3149 22.984C30.4829 22.792 30.5669 22.516 30.5669 22.156V14.452ZM44.4702 16.504C44.4702 20.824 46.1142 22.984 49.4022 22.984C50.6022 22.984 51.6342 22.804 52.4982 22.444C53.3862 21.292 53.8302 19.576 53.8302 17.296C53.8302 12.976 52.1862 10.816 48.8982 10.816C47.6982 10.816 46.6662 10.996 45.8022 11.356C44.9142 12.508 44.4702 14.224 44.4702 16.504ZM48.9342 25.288C46.7022 25.288 44.8902 24.556 43.4982 23.092C42.1062 21.628 41.4102 19.564 41.4102 16.9C41.4102 14.212 42.1782 12.148 43.7142 10.708C45.2502 9.244 47.1342 8.512 49.3662 8.512C51.5982 8.512 53.4102 9.244 54.8022 10.708C56.1942 12.172 56.8902 14.248 56.8902 16.936C56.8902 19.6 56.1222 21.664 54.5862 23.128C53.0502 24.568 51.1662 25.288 48.9342 25.288ZM72.9051 8.512C75.0171 8.512 76.6251 9.328 77.7291 10.96C78.8571 12.568 79.4211 14.632 79.4211 17.152C79.4211 19.672 78.6531 21.664 77.1171 23.128C75.6051 24.568 73.7091 25.288 71.4291 25.288C70.3251 25.288 69.1731 25.18 67.9731 24.964V31.264L70.8171 32.416L70.6011 33.208H62.5371L62.3211 32.416L63.9411 31.732C64.3731 31.564 64.6611 31.384 64.8051 31.192C64.9731 31 65.0571 30.724 65.0571 30.364V11.392L62.5371 10.996L62.3211 10.204L66.9651 8.512L67.6851 8.8L67.7571 9.808L67.9011 9.88C69.5331 8.968 71.2011 8.512 72.9051 8.512ZM67.9731 22.48C68.9331 22.816 70.1091 22.984 71.5011 22.984C72.9171 22.984 74.0931 22.804 75.0291 22.444C75.9171 21.268 76.3611 19.552 76.3611 17.296C76.3611 13.096 74.7771 10.996 71.6091 10.996C70.4331 10.996 69.2211 11.152 67.9731 11.464V22.48Z" fill="#252C2C"/>
</svg>
