<svg width="60" height="20" viewBox="0 0 60 20" fill="none" xmlns="http://www.w3.org/2000/svg">
<path d="M5.66659 4.544C5.29859 4.384 4.73059 4.304 3.96259 4.304C3.21059 4.304 2.64259 4.496 2.25859 4.88C2.11459 5.104 2.04259 5.368 2.04259 5.672C2.04259 6.344 2.45059 6.832 3.26659 7.136L5.7146 8C6.40259 8.24 6.95459 8.632 7.3706 9.176C7.7866 9.704 7.9946 10.328 7.9946 11.048C7.9946 12.056 7.61059 12.832 6.84259 13.376C6.07459 13.92 5.17059 14.192 4.13059 14.192C3.10659 14.192 2.24259 14.024 1.53859 13.688C0.850595 13.336 0.346595 12.968 0.0265945 12.584L1.25059 10.592L1.85059 10.76L1.94659 12.368C2.50659 12.688 3.21859 12.848 4.08259 12.848C5.53859 12.848 6.2666 12.352 6.2666 11.36C6.2666 10.96 6.1386 10.64 5.8826 10.4C5.6266 10.16 5.21059 9.944 4.63459 9.752L2.42659 9.032C1.77059 8.808 1.26659 8.44 0.914595 7.928C0.562595 7.416 0.386595 6.84 0.386595 6.2C0.386595 5.192 0.786595 4.408 1.58659 3.848C2.38659 3.288 3.31459 3.008 4.37059 3.008C5.01059 3.008 5.61059 3.136 6.17059 3.392C6.95459 3.728 7.48259 4.104 7.75459 4.52L6.4346 6.392L5.85859 6.224L5.66659 4.544ZM13.3554 11.864V4.352H11.6754L11.5314 3.824L13.3554 3.008L14.4114 0.776L15.2994 0.943999V3.2H18.1554L18.4194 3.488L18.1794 4.4L15.2994 4.304V11.312C15.2994 11.904 15.4194 12.344 15.6594 12.632C15.8994 12.904 16.3234 13.04 16.9314 13.04H18.2994L18.4194 13.712C17.4114 14.032 16.5234 14.192 15.7554 14.192C14.9874 14.192 14.3954 13.976 13.9794 13.544C13.5634 13.112 13.3554 12.552 13.3554 11.864ZM23.9559 8.336C23.9559 11.216 25.0519 12.656 27.2439 12.656C28.0439 12.656 28.7319 12.536 29.3079 12.296C29.8999 11.528 30.1959 10.384 30.1959 8.864C30.1959 5.984 29.0999 4.544 26.9079 4.544C26.1079 4.544 25.4199 4.664 24.8439 4.904C24.2519 5.672 23.9559 6.816 23.9559 8.336ZM26.9319 14.192C25.4439 14.192 24.2359 13.704 23.3079 12.728C22.3799 11.752 21.9159 10.376 21.9159 8.6C21.9159 6.808 22.4279 5.432 23.4519 4.472C24.4759 3.496 25.7319 3.008 27.2199 3.008C28.7079 3.008 29.9159 3.496 30.8439 4.472C31.7719 5.448 32.2359 6.832 32.2359 8.624C32.2359 10.4 31.7239 11.776 30.6999 12.752C29.6759 13.712 28.4199 14.192 26.9319 14.192ZM42.5525 4.592C42.1365 4.592 41.6405 4.656 41.0645 4.784C40.5045 4.896 40.1125 5 39.8885 5.096V12.704L42.0245 13.472L41.8805 14H36.2645L36.1205 13.472L37.2005 13.016C37.4885 12.904 37.6805 12.784 37.7765 12.656C37.8885 12.528 37.9445 12.344 37.9445 12.104V4.928L36.2645 4.664L36.1205 4.136L39.2165 3.008L39.6965 3.2L39.7925 4.088L39.8885 4.136C40.1125 3.96 40.5685 3.744 41.2565 3.488C41.9605 3.216 42.4805 3.056 42.8165 3.008C43.1525 3.104 43.5125 3.312 43.8965 3.632C44.2805 3.936 44.5445 4.224 44.6885 4.496L43.1285 6.584L42.5525 6.416V4.592ZM51.5698 4.184C51.2658 4.312 51.1138 4.488 51.1138 4.712C51.1138 4.92 51.1538 5.112 51.2338 5.288L53.8498 11.456L56.5378 4.496L54.8338 3.728L54.9778 3.2H59.6338L59.7778 3.728L58.6018 4.232C58.2978 4.36 58.0738 4.56 57.9298 4.832C57.8978 4.928 57.8418 5.08 57.7618 5.288L54.3538 13.712C53.2498 16.432 52.2738 18.432 51.4258 19.712L49.6258 19.136L49.4338 18.656C51.1138 16.848 52.2418 15.304 52.8178 14.024L48.7858 4.496L47.0818 3.728L47.2258 3.2H52.5058L52.6498 3.728L51.5698 4.184Z" fill="black"/>
</svg>
