<svg width="670" height="97" viewBox="0 0 670 97" fill="none" xmlns="http://www.w3.org/2000/svg">
<path d="M26.48 11.48C26.48 12.056 26.624 12.68 26.912 13.352L50.24 79.448L74.432 9.60799L62.048 4.568L62.912 1.39999H94.736L95.6 4.568L87.68 7.88C86.048 8.55199 84.992 9.17599 84.512 9.752C84.128 10.328 83.6 11.528 82.928 13.352L54.128 93.56L45.344 96.152L42.464 95L11.504 9.176L0.272 4.568L1.136 1.39999H36.416L37.28 4.568L29.36 7.88C27.44 8.648 26.48 9.848 26.48 11.48ZM137.748 13.208V44.312C146.868 44.312 156.132 43.88 165.54 43.016L170.148 42.584L171.732 44.312L170.148 52.376C158.724 51.704 147.924 51.368 137.748 51.368V87.512L168.996 86.936L175.908 74.264L180.228 75.272V95H113.988L113.124 91.832L121.044 88.52C122.772 87.848 123.924 87.128 124.5 86.36C125.172 85.592 125.508 84.488 125.508 83.048V9.60799L113.124 4.568L113.988 1.39999H179.508V21.128L175.188 22.136L168.276 9.46399L141.636 8.88799C139.044 8.88799 137.748 10.328 137.748 13.208ZM291.529 13.352V95L281.161 96.152L227.881 20.408V86.792L240.265 91.832L239.401 95H206.857L205.993 91.832L213.913 88.52C215.641 87.848 216.793 87.128 217.369 86.36C218.041 85.592 218.377 84.488 218.377 83.048V9.60799L205.993 4.568L206.857 1.39999H230.905L281.881 73.976V74.264L282.025 73.976V9.60799L269.641 4.568L270.505 1.39999H303.049L303.913 4.568L295.993 7.88C294.265 8.55199 293.065 9.27199 292.393 10.04C291.817 10.808 291.529 11.912 291.529 13.352ZM351.611 13.352V86.792L363.995 91.832L363.131 95H327.851L326.987 91.832L334.907 88.52C336.635 87.848 337.787 87.128 338.363 86.36C339.035 85.592 339.371 84.488 339.371 83.048V9.60799L326.987 4.568L327.851 1.39999H363.131L363.995 4.568L356.075 7.88C354.347 8.55199 353.147 9.27199 352.475 10.04C351.899 10.808 351.611 11.912 351.611 13.352ZM421.191 54.392H412.839V86.792L424.791 91.832L423.927 95H389.079L388.215 91.832L396.135 88.52C397.863 87.848 399.015 87.128 399.591 86.36C400.263 85.592 400.599 84.488 400.599 83.048V9.60799L388.215 4.568L389.079 1.39999C404.919 0.631993 415.767 0.247993 421.623 0.247993C446.487 0.247993 458.919 9.17599 458.919 27.032C458.919 41.144 451.335 49.88 436.167 53.24C437.223 54.2 438.183 55.592 439.047 57.416C445.575 70.76 450.423 79.4 453.591 83.336C456.759 87.272 461.655 89.96 468.279 91.4L467.271 95L451.143 96.152C445.959 91.928 442.023 87.752 439.335 83.624C436.743 79.496 432.423 71.048 426.375 58.28C425.127 55.688 423.399 54.392 421.191 54.392ZM412.839 11.768V47.048H422.199C429.303 47.048 434.871 46.232 438.903 44.6C441.015 43.064 442.647 41.288 443.799 39.272C444.951 37.16 445.527 34.088 445.527 30.056C445.527 23.816 443.847 18.632 440.487 14.504C437.223 10.28 431.799 8.16799 424.215 8.16799H416.727C414.135 8.16799 412.839 9.368 412.839 11.768ZM512.022 14.792C506.07 22.952 503.094 33.464 503.094 46.328C503.094 59.192 505.782 69.224 511.158 76.424C516.63 83.624 524.502 87.224 534.774 87.224C543.318 87.224 550.278 85.448 555.654 81.896C561.606 74.6 564.582 64.328 564.582 51.08C564.582 37.736 561.846 27.464 556.374 20.264C550.998 13.064 543.222 9.46399 533.046 9.46399C524.598 9.46399 517.59 11.24 512.022 14.792ZM489.702 48.92C489.702 40.856 490.95 33.656 493.446 27.32C495.942 20.984 499.302 15.896 503.526 12.056C512.358 4.18399 522.966 0.247993 535.35 0.247993C547.83 0.247993 558.054 4.47199 566.022 12.92C573.99 21.368 577.974 32.984 577.974 47.768C577.974 55.832 576.726 63.032 574.23 69.368C571.734 75.608 568.326 80.648 564.006 84.488C555.366 92.264 544.806 96.152 532.326 96.152C519.846 96.152 509.622 91.976 501.654 83.624C493.686 75.272 489.702 63.704 489.702 48.92ZM627.123 13.208V44.312C636.243 44.312 645.507 43.88 654.915 43.016L659.523 42.584L661.107 44.312L659.523 52.376C648.099 51.704 637.299 51.368 627.123 51.368V87.512L658.371 86.936L665.283 74.264L669.603 75.272V95H603.363L602.499 91.832L610.419 88.52C612.147 87.848 613.299 87.128 613.875 86.36C614.547 85.592 614.883 84.488 614.883 83.048V9.60799L602.499 4.568L603.363 1.39999H668.883V21.128L664.563 22.136L657.651 9.46399L631.011 8.88799C628.419 8.88799 627.123 10.328 627.123 13.208Z" fill="#252C2C"/>
</svg>
