<svg width="439" height="876" viewBox="0 0 439 876" fill="none" xmlns="http://www.w3.org/2000/svg">
<path d="M196.09 474.184C191.05 442.188 152.748 419.888 110.415 407.283C68.081 394.679 37.8426 312.265 58.0016 292.873C78.1605 273.481 80.1762 230.82 37.8426 209.489C3.97578 192.425 0.212798 171.353 2.56466 162.95C8.61231 161.657 24.1346 154.03 37.8426 133.862C54.9776 108.653 102.351 79.5661 132.589 58.2355C156.78 41.1709 162.155 13.6349 161.819 2C191.05 11.6958 201.129 5.87831 253.542 24.3003C305.955 42.7222 356.352 100.897 305.955 122.228C255.558 143.558 258.582 215.307 297.892 243.425C316.804 256.953 326.385 279.009 326.969 299.66M196.09 474.184C201.129 506.18 203.145 549.811 167.867 607.985C141.473 651.51 160.039 636.804 174.923 621.762M196.09 474.184C182.986 457.701 149.724 432.104 121.502 461.579C109.171 474.457 105.371 495.084 105.981 516.845M196.09 474.184L191.05 491.636M137.629 278.934C128.207 282.245 102.945 260.133 108.399 244.394C117.47 243.425 136.621 246.915 140.653 268.634C140.78 269.316 140.875 269.962 140.941 270.573M137.629 278.934C151.74 300.709 181.575 354.926 188.026 397.587L197.098 392.739M137.629 278.934C140.089 278.069 141.47 275.471 140.941 270.573M197.098 392.739C192.181 378.025 184.251 356.053 175.381 334.565M197.098 392.739C185.509 346.523 158.45 247.885 142.924 223.063M197.098 392.739C176.939 301.987 181.469 219.185 186.253 189.128M197.098 392.739L204.153 386.922M140.941 270.573C151.045 280.167 163.988 306.966 175.381 334.565M137.629 229.041C127.289 231.617 109.973 205.223 123.518 189.128C131.917 190.744 147.708 199.212 143.677 220.155C143.47 221.229 143.217 222.196 142.924 223.063M137.629 229.041C149.022 254.809 172.522 311.989 175.381 334.565M137.629 229.041C139.833 228.492 141.721 226.626 142.924 223.063M186.253 189.128C177.662 184.037 178.953 160.142 201.129 151.315C205.833 158.748 211.612 176.33 197.098 187.189C194.905 188.83 192.874 189.72 191.05 189.996M186.253 189.128C187.618 189.937 189.231 190.271 191.05 189.996M204.153 386.922C194.746 343.869 178.955 244.211 191.05 189.996M204.153 386.922C193.671 315.561 206.852 251.934 214.753 229.041M204.153 386.922L210.201 382.074M214.753 229.041C210.213 221.031 212.313 205.967 232.376 196.885C236.407 203.349 241.649 219.185 230.36 230.82C227.336 233.937 224.127 234.872 221.288 234.264M214.753 229.041C216.305 231.782 218.635 233.696 221.288 234.264M210.201 382.074C206.169 344.941 202.742 263.392 221.288 234.264M210.201 382.074C206.559 328.553 221.385 294.136 229.253 283.618M210.201 382.074L217.256 377.226M229.253 283.618C221.848 278.242 221.609 261.209 246.487 246.333C250.518 253.12 255.558 269.603 243.463 281.238C240.222 284.356 236.795 285.558 233.779 285.302M229.253 283.618C230.569 284.573 232.111 285.16 233.779 285.302M217.256 377.226C215.84 357.635 217.162 311.823 233.779 285.302M217.256 377.226C227.336 370.116 251.526 354.926 267.654 351.048C287.812 346.2 315.739 338.443 323.446 322.93M323.446 322.93C319.017 335.194 310.463 344.971 297.892 349.108C288.999 352.035 282.28 355.379 277.166 358.899M323.446 322.93C326.019 315.806 327.2 307.843 326.969 299.66M148.716 643.86C148.683 644.036 148.649 644.212 148.615 644.387M148.716 643.86L148.615 644.387M148.716 643.86C153.554 594.993 130.573 556.921 118.478 543.993C113.898 537.863 111.875 529.576 111.99 520.724M148.615 644.387C138.929 694.492 123.158 725.013 116.462 734.03C79.3699 724.722 70.7688 750.836 71.1048 765.057C65.4603 751.871 81.5202 729.829 90.2557 720.456C121.578 674.577 125.353 626.33 122.802 601.198M148.615 644.387C167.463 672.329 205.363 741.399 206.169 794.144C227.672 805.456 264.025 836.418 237.415 869.771C234.727 874.296 232.98 880.049 247.495 866.862C254.886 859.752 266.444 835.254 253.542 794.144C237.415 742.757 201.231 654.931 174.923 621.762M191.05 491.636C192.394 497.13 193.671 508.701 188.026 511.028C180.97 513.937 231.368 522.663 253.542 497.454M191.05 491.636C150.471 442.291 116.289 480.22 112.361 514.906M191.05 491.636C207.428 496.02 242.931 496.783 253.919 464.762M246.487 455.762C249.472 458.894 251.781 461.904 253.542 464.771M246.487 455.762C255.15 441.541 272.372 411.355 271.96 404.374M246.487 455.762C248.602 458.515 251.102 461.561 253.919 464.762M338.209 507.149C316.395 515.543 289.971 499.278 269.849 480.971M269.849 480.971C304.059 482.587 366.633 492.024 343.249 516.845C339.889 520.4 334.178 529.644 338.209 538.176C339.553 546.256 334.782 560.864 304.947 554.659C267.653 546.902 253.542 499.393 253.542 497.454M269.849 480.971C263.892 475.551 258.488 469.953 253.919 464.762M253.542 497.454C253.542 495.776 264.865 483.206 253.542 464.771M326.969 299.66C336.763 299.014 360.989 298.884 379.535 303.538C402.718 309.356 416.829 290.748 416.829 288.025C416.829 285.302 472.266 363.652 403.726 432.492C388.271 440.895 355.143 451.884 346.273 428.614C335.186 399.526 296.884 417.948 281.765 426.675M281.765 426.675C285.443 439.085 280.232 449.944 277.166 453.823M281.765 426.675C281.149 425.325 280.448 423.321 279.749 420.673M271.274 363.652C260.375 374.045 260.593 384.996 258.582 390.8C255.558 399.526 244.471 437.34 244.471 467.397C244.471 491.442 200.121 578.252 177.947 618.651C176.967 619.677 175.954 620.72 174.923 621.762M271.274 363.652C270.948 373.307 270.872 390 271.96 404.374M271.274 363.652C272.957 362.048 274.904 360.456 277.166 358.899M253.542 464.771C253.668 464.769 253.794 464.765 253.919 464.762M271.96 404.374C272.656 413.578 273.828 421.83 275.717 426.675C279.093 435.335 281.213 445.984 277.166 453.823M277.166 453.823C273.994 459.967 267.033 464.384 253.919 464.762M277.166 358.899C274.226 389.34 276.965 410.123 279.749 420.673M279.749 420.673C295.54 404.638 327.727 369.835 330.146 358.899C327.458 352.081 324.703 338.443 335.186 338.443C342.577 341.229 342.644 361.575 283.781 420.673M283.781 420.673C305.955 406.514 351.514 375.287 356.352 363.652C357.696 356.219 362.803 341.74 372.479 343.291C374.495 349.108 365.021 369.47 310.995 404.374L285.796 419.465M283.781 420.673C293.86 414.27 318.252 401.272 335.186 400.496C345.601 405.021 366.835 411.743 368.448 402.435C365.424 393.01 344.66 383.22 285.796 419.465M283.781 420.673L285.796 419.465M105.981 516.845C106.767 544.891 114.88 574.82 121.502 592.472C122.014 594.934 122.464 597.863 122.802 601.198M105.981 516.845C95.8944 522.986 85.1376 548.453 122.802 601.198M165.851 607.985C148.575 586.008 115.779 537.012 122.802 516.845L111.99 520.724M111.99 520.724C112.015 518.806 112.14 516.861 112.361 514.906M124.526 515.876C145.693 515.229 188.026 509.476 188.026 491.636C188.652 494.545 174.395 503.271 112.361 514.906" stroke="#DCDCDC" stroke-width="2"/>
</svg>
